<?xml version="1.0" encoding="UTF-8" standalone="no"?>
<!-- created with bpmn-js / http://bpmn.io -->

<svg
   xmlns:dc="http://purl.org/dc/elements/1.1/"
   xmlns:cc="http://creativecommons.org/ns#"
   xmlns:rdf="http://www.w3.org/1999/02/22-rdf-syntax-ns#"
   xmlns:svg="http://www.w3.org/2000/svg"
   xmlns="http://www.w3.org/2000/svg"
   xmlns:sodipodi="http://sodipodi.sourceforge.net/DTD/sodipodi-0.dtd"
   xmlns:inkscape="http://www.inkscape.org/namespaces/inkscape"
   width="519"
   height="382"
   viewBox="203 72 519 382"
   version="1.1"
   id="svg6878"
   inkscape:version="0.48.5 r10040"
   sodipodi:docname="pattern4.svg">
  <metadata
     id="metadata7426">
    <rdf:RDF>
      <cc:Work
         rdf:about="">
        <dc:format>image/svg+xml</dc:format>
        <dc:type
           rdf:resource="http://purl.org/dc/dcmitype/StillImage" />
      </cc:Work>
    </rdf:RDF>
  </metadata>
  <sodipodi:namedview
     pagecolor="#ffffff"
     bordercolor="#666666"
     borderopacity="1"
     objecttolerance="10"
     gridtolerance="10"
     guidetolerance="10"
     inkscape:pageopacity="0"
     inkscape:pageshadow="2"
     inkscape:window-width="640"
     inkscape:window-height="480"
     id="namedview7424"
     showgrid="false"
     fit-margin-top="15"
     fit-margin-left="15"
     fit-margin-right="15"
     fit-margin-bottom="15"
     inkscape:zoom="0.67621777"
     inkscape:cx="259.5"
     inkscape:cy="191"
     inkscape:window-x="0"
     inkscape:window-y="380"
     inkscape:window-maximized="0"
     inkscape:current-layer="svg6878" />
  <defs
     id="defs6880">
    <marker
       viewBox="0 0 20 20"
       markerWidth="10"
       markerHeight="10"
       orient="auto"
       refX="11"
       refY="10"
       id="markerSi7yecn9l9o">
      <path
         d="M 1,5 11,10 1,15 z"
         style="fill:#000000;stroke-width:1;stroke-linecap:round;stroke-dasharray:10000, 1"
         id="path6883"
         inkscape:connector-curvature="0" />
    </marker>
    <marker
       viewBox="0 0 20 20"
       markerWidth="20"
       markerHeight="20"
       orient="auto"
       refX="6"
       refY="6"
       id="markerSi7yecn9l9q">
      <circle
         cx="6"
         cy="6"
         r="5"
         style="fill:#ffffff;stroke:#000000;stroke-width:1;stroke-linecap:round;stroke-dasharray:10000, 1"
         id="circle6886"
         sodipodi:cx="6"
         sodipodi:cy="6"
         sodipodi:rx="5"
         sodipodi:ry="5" />
    </marker>
    <marker
       viewBox="0 0 20 20"
       markerWidth="20"
       markerHeight="20"
       orient="auto"
       refX="11"
       refY="10"
       id="markerSi7yecn9l9s">
      <path
         d="M 1,5 11,10 1,15 z"
         style="fill:#ffffff;stroke:#000000;stroke-width:1;stroke-linecap:round;stroke-dasharray:10000, 1"
         id="path6889"
         inkscape:connector-curvature="0" />
    </marker>
    <marker
       viewBox="0 0 20 20"
       markerWidth="10"
       markerHeight="10"
       orient="auto"
       refX="11"
       refY="10"
       id="markerSi7yecn9l9u">
      <path
         d="M 1,5 11,10 1,15"
         style="fill:#ffffff;stroke:#000000;stroke-width:1;stroke-linecap:round;stroke-dasharray:10000, 1"
         id="path6892"
         inkscape:connector-curvature="0" />
    </marker>
    <marker
       viewBox="0 0 20 20"
       markerWidth="10"
       markerHeight="10"
       orient="auto"
       refX="-1"
       refY="10"
       id="markerSi7yecn9l9w">
      <path
         d="m 0,10 8,-4 8,4 -8,4 z"
         style="fill:#ffffff;stroke:#000000;stroke-width:1;stroke-linecap:round;stroke-dasharray:10000, 1"
         id="path6895"
         inkscape:connector-curvature="0" />
    </marker>
    <marker
       viewBox="0 0 20 20"
       markerWidth="10"
       markerHeight="10"
       orient="auto"
       refX="-5"
       refY="10"
       id="markerSi7yecn9l9y">
      <path
         d="M 1,4 5,16"
         style="fill:#000000;stroke:#000000;stroke-width:1;stroke-linecap:round;stroke-dasharray:10000, 1"
         id="path6898"
         inkscape:connector-curvature="0" />
    </marker>
  </defs>
  <g
     class="djs-group"
     id="g6900"
     transform="translate(16.5,16.5)">
    <g
       style="display:block"
       transform="translate(209,224)"
       data-element-id="StartEvent_1"
       class="djs-element djs-shape"
       id="g6902">
      <rect
         height="48"
         width="48"
         y="-6"
         x="-6"
         class="djs-outline"
         id="rect6904"
         style="fill:none" />
      <g
         class="djs-visual"
         id="g6906">
        <circle
           style="fill:#ffffff;stroke:#000000;stroke-width:2"
           r="18"
           cy="18"
           cx="18"
           id="circle6908"
           d="M 36,18 C 36,27.941125 27.941125,36 18,36 8.0588745,36 0,27.941125 0,18 0,8.0588745 8.0588745,0 18,0 27.941125,0 36,8.0588745 36,18 z"
           sodipodi:cx="18"
           sodipodi:cy="18"
           sodipodi:rx="18"
           sodipodi:ry="18" />
      </g>
      <rect
         class="djs-hit"
         style="fill:none;stroke:#ffffff;stroke-width:15;stroke-opacity:0"
         height="36"
         width="36"
         y="0"
         x="0"
         id="rect6910" />
    </g>
  </g>
  <g
     class="djs-group"
     id="g6912"
     transform="translate(16.5,16.5)">
    <g
       style="display:none"
       transform="translate(182,260)"
       data-element-id="StartEvent_1_label"
       class="djs-element djs-shape"
       id="g6914">
      <rect
         height="32"
         width="102"
         y="-6"
         x="-6"
         class="djs-outline"
         id="rect6916"
         style="fill:none" />
      <g
         class="djs-visual"
         id="g6918">
        <text
           class=" djs-label"
           style="font-size:11px;font-family:'Arial, sans-serif'"
           id="text6920">
          <tspan
             y="0"
             x="45"
             id="tspan6922" />
        </text>
      </g>
      <rect
         class="djs-hit"
         style="fill:none;stroke:#ffffff;stroke-width:15;stroke-opacity:0"
         height="20"
         width="90"
         y="0"
         x="0"
         id="rect6924" />
    </g>
  </g>
  <g
     class="djs-group"
     id="g6926"
     transform="translate(16.5,16.5)">
    <g
       style="display:block"
       transform="translate(295,217)"
       data-element-id="ParallelGateway_1"
       class="djs-element djs-shape"
       id="g6928">
      <rect
         height="62"
         width="62"
         y="-6"
         x="-6"
         class="djs-outline"
         id="rect6930"
         style="fill:none" />
      <g
         class="djs-visual"
         id="g6932">
        <polygon
           style="fill:#ffffff;stroke:#000000;stroke-width:2"
           points="0,25 25,0 50,25 25,50 "
           id="polygon6934" />
        <path
           style="fill:#000000;stroke:#000000;stroke-width:1"
           d="m 23,10 0,12.5 -12.5,0 0,5 12.5,0 0,12.5 5,0 0,-12.5 12.5,0 0,-5 -12.5,0 0,-12.5 -5,0 z"
           id="path6936"
           inkscape:connector-curvature="0" />
      </g>
      <rect
         class="djs-hit"
         style="fill:none;stroke:#ffffff;stroke-width:15;stroke-opacity:0"
         height="50"
         width="50"
         y="0"
         x="0"
         id="rect6938" />
    </g>
  </g>
  <g
     class="djs-group"
     id="g6940"
     transform="translate(16.5,16.5)">
    <g
       style="display:none"
       transform="translate(275,267)"
       data-element-id="ParallelGateway_1_label"
       class="djs-element djs-shape"
       id="g6942">
      <rect
         height="32"
         width="102"
         y="-6"
         x="-6"
         class="djs-outline"
         id="rect6944"
         style="fill:none" />
      <g
         class="djs-visual"
         id="g6946">
        <text
           class=" djs-label"
           style="font-size:11px;font-family:'Arial, sans-serif'"
           id="text6948">
          <tspan
             y="0"
             x="45"
             id="tspan6950" />
        </text>
      </g>
      <rect
         class="djs-hit"
         style="fill:none;stroke:#ffffff;stroke-width:15;stroke-opacity:0"
         height="20"
         width="90"
         y="0"
         x="0"
         id="rect6952" />
    </g>
  </g>
  <g
     class="djs-group"
     id="g6954"
     transform="translate(16.5,16.5)">
    <g
       style="display:block"
       transform="translate(546,217)"
       data-element-id="ParallelGateway_2"
       class="djs-element djs-shape"
       id="g6956">
      <rect
         height="62"
         width="62"
         y="-6"
         x="-6"
         class="djs-outline"
         id="rect6958"
         style="fill:none" />
      <g
         class="djs-visual"
         id="g6960">
        <polygon
           style="fill:#ffffff;stroke:#000000;stroke-width:2"
           points="0,25 25,0 50,25 25,50 "
           id="polygon6962" />
        <path
           style="fill:#000000;stroke:#000000;stroke-width:1"
           d="m 23,10 0,12.5 -12.5,0 0,5 12.5,0 0,12.5 5,0 0,-12.5 12.5,0 0,-5 -12.5,0 0,-12.5 -5,0 z"
           id="path6964"
           inkscape:connector-curvature="0" />
      </g>
      <rect
         class="djs-hit"
         style="fill:none;stroke:#ffffff;stroke-width:15;stroke-opacity:0"
         height="50"
         width="50"
         y="0"
         x="0"
         id="rect6966" />
    </g>
  </g>
  <g
     class="djs-group"
     id="g6968"
     transform="translate(16.5,16.5)">
    <g
       style="display:none"
       transform="translate(526,267)"
       data-element-id="ParallelGateway_2_label"
       class="djs-element djs-shape"
       id="g6970">
      <rect
         height="32"
         width="102"
         y="-6"
         x="-6"
         class="djs-outline"
         id="rect6972"
         style="fill:none" />
      <g
         class="djs-visual"
         id="g6974">
        <text
           class=" djs-label"
           style="font-size:11px;font-family:'Arial, sans-serif'"
           id="text6976">
          <tspan
             y="0"
             x="45"
             id="tspan6978" />
        </text>
      </g>
      <rect
         class="djs-hit"
         style="fill:none;stroke:#ffffff;stroke-width:15;stroke-opacity:0"
         height="20"
         width="90"
         y="0"
         x="0"
         id="rect6980" />
    </g>
  </g>
  <g
     class="djs-group"
     id="g6982"
     transform="translate(16.5,16.5)">
    <g
       style="display:block"
       transform="translate(647,224)"
       data-element-id="EndEvent_1"
       class="djs-element djs-shape"
       id="g6984">
      <rect
         height="48"
         width="48"
         y="-6"
         x="-6"
         class="djs-outline"
         id="rect6986"
         style="fill:none" />
      <g
         class="djs-visual"
         id="g6988">
        <circle
           style="fill:#ffffff;stroke:#000000;stroke-width:4"
           r="18"
           cy="18"
           cx="18"
           id="circle6990"
           d="M 36,18 C 36,27.941125 27.941125,36 18,36 8.0588745,36 0,27.941125 0,18 0,8.0588745 8.0588745,0 18,0 27.941125,0 36,8.0588745 36,18 z"
           sodipodi:cx="18"
           sodipodi:cy="18"
           sodipodi:rx="18"
           sodipodi:ry="18" />
      </g>
      <rect
         class="djs-hit"
         style="fill:none;stroke:#ffffff;stroke-width:15;stroke-opacity:0"
         height="36"
         width="36"
         y="0"
         x="0"
         id="rect6992" />
    </g>
  </g>
  <g
     class="djs-group"
     id="g6994"
     transform="translate(16.5,16.5)">
    <g
       style="display:none"
       transform="translate(620,265)"
       data-element-id="EndEvent_1_label"
       class="djs-element djs-shape"
       id="g6996">
      <rect
         height="12"
         width="102"
         y="-6"
         x="-6"
         class="djs-outline"
         id="rect6998"
         style="fill:none" />
      <g
         class="djs-visual"
         id="g7000">
        <text
           class=" djs-label"
           style="font-size:11px;font-family:'Arial, sans-serif'"
           id="text7002">
          <tspan
             y="0"
             x="45"
             id="tspan7004" />
        </text>
      </g>
      <rect
         class="djs-hit"
         style="fill:none;stroke:#ffffff;stroke-width:15;stroke-opacity:0"
         height="0"
         width="90"
         y="0"
         x="0"
         id="rect7006" />
    </g>
  </g>
  <g
     class="djs-group"
     id="g7008"
     transform="translate(16.5,16.5)">
    <g
       style="display:block"
       transform="translate(395,272)"
       data-element-id="UserTask_2"
       class="djs-element djs-shape"
       id="g7010">
      <rect
         height="92"
         width="112"
         y="-6"
         x="-6"
         class="djs-outline"
         id="rect7012"
         style="fill:none" />
      <g
         class="djs-visual"
         id="g7014">
        <rect
           style="fill:#ffffff;stroke:#000000;stroke-width:2"
           ry="10"
           rx="10"
           height="80"
           width="100"
           y="0"
           x="0"
           id="rect7016" />
        <text
           class=" djs-label"
           style="font-size:12px;font-family:'Arial, sans-serif'"
           id="text7018">
          <tspan
             y="43.599998"
             x="44.799999"
             id="tspan7020">B</tspan>
        </text>
        <path
           style="fill:none;stroke:#000000;stroke-width:0.5"
           d="m 15,12 c 0.909,-0.845 1.594,-2.049 1.594,-3.385 0,-2.554 -1.805,-4.622 -4.357,-4.622 -2.552,0 -4.288,2.068 -4.288,4.622 0,1.348 0.974,2.562 1.896,3.405 -0.529,0.187 -5.669,2.097 -5.794,4.756 v 6.718 h 17 V 16.776 C 21.051,14.478 15.523,12.181 15,12 z m -8,6 0,5.5 m 11,0 0,-5"
           id="path7022"
           inkscape:connector-curvature="0" />
        <path
           style="fill:none;stroke:#000000;stroke-width:0.5"
           d="m 15,12 m 2.162,1.009 c 0,2.447001 -2.158,4.431 -4.821,4.431 -2.665,0 -4.822,-1.980999 -4.822,-4.431"
           id="path7024"
           inkscape:connector-curvature="0" />
        <path
           style="fill:#000000;stroke:#000000;stroke-width:0.5"
           d="M 15,12 M 8.1,8.2 c 0,0 2.251,-2.358 4.274,-1.177 2.024,1.181 4.221,1.537 4.124,0.965 C 16.4,7.418 16.381,4.197 12.307,3.852 8.732,3.853 8.099,7.219 8.1,8.2 z"
           id="path7026"
           inkscape:connector-curvature="0" />
      </g>
      <rect
         class="djs-hit"
         style="fill:none;stroke:#ffffff;stroke-width:15;stroke-opacity:0"
         height="80"
         width="100"
         y="0"
         x="0"
         id="rect7028" />
    </g>
  </g>
  <g
     class="djs-group"
     id="g7030"
     transform="translate(16.5,16.5)">
    <g
       style="display:block"
       transform="translate(395,143)"
       data-element-id="UserTask_1"
       class="djs-element djs-shape"
       id="g7032">
      <rect
         height="92"
         width="112"
         y="-6"
         x="-6"
         class="djs-outline"
         id="rect7034"
         style="fill:none" />
      <g
         class="djs-visual"
         id="g7036">
        <rect
           style="fill:#ffffff;stroke:#000000;stroke-width:2"
           ry="10"
           rx="10"
           height="80"
           width="100"
           y="0"
           x="0"
           id="rect7038" />
        <text
           class=" djs-label"
           style="font-size:12px;font-family:'Arial, sans-serif'"
           id="text7040">
          <tspan
             y="43.599998"
             x="45.200001"
             id="tspan7042">A</tspan>
        </text>
        <path
           style="fill:none;stroke:#000000;stroke-width:0.5"
           d="m 15,12 c 0.909,-0.845 1.594,-2.049 1.594,-3.385 0,-2.554 -1.805,-4.622 -4.357,-4.622 -2.552,0 -4.288,2.068 -4.288,4.622 0,1.348 0.974,2.562 1.896,3.405 -0.529,0.187 -5.669,2.097 -5.794,4.756 v 6.718 h 17 V 16.776 C 21.051,14.478 15.523,12.181 15,12 z m -8,6 0,5.5 m 11,0 0,-5"
           id="path7044"
           inkscape:connector-curvature="0" />
        <path
           style="fill:none;stroke:#000000;stroke-width:0.5"
           d="m 15,12 m 2.162,1.009 c 0,2.447001 -2.158,4.431 -4.821,4.431 -2.665,0 -4.822,-1.980999 -4.822,-4.431"
           id="path7046"
           inkscape:connector-curvature="0" />
        <path
           style="fill:#000000;stroke:#000000;stroke-width:0.5"
           d="M 15,12 M 8.1,8.2 c 0,0 2.251,-2.358 4.274,-1.177 2.024,1.181 4.221,1.537 4.124,0.965 C 16.4,7.418 16.381,4.197 12.307,3.852 8.732,3.853 8.099,7.219 8.1,8.2 z"
           id="path7048"
           inkscape:connector-curvature="0" />
      </g>
      <rect
         class="djs-hit"
         style="fill:none;stroke:#ffffff;stroke-width:15;stroke-opacity:0"
         height="80"
         width="100"
         y="0"
         x="0"
         id="rect7050" />
    </g>
  </g>
  <g
     class="djs-group"
     id="g7052"
     transform="translate(16.5,16.5)">
    <g
       style="display:block"
       transform="translate(555,379)"
       data-element-id="EndEvent_3"
       class="djs-element djs-shape"
       id="g7054">
      <rect
         height="48"
         width="48"
         y="-6"
         x="-6"
         class="djs-outline"
         id="rect7056"
         style="fill:none" />
      <g
         class="djs-visual"
         id="g7058">
        <circle
           style="fill:#ffffff;stroke:#000000;stroke-width:4"
           r="18"
           cy="18"
           cx="18"
           id="circle7060"
           d="M 36,18 C 36,27.941125 27.941125,36 18,36 8.0588745,36 0,27.941125 0,18 0,8.0588745 8.0588745,0 18,0 27.941125,0 36,8.0588745 36,18 z"
           sodipodi:cx="18"
           sodipodi:cy="18"
           sodipodi:rx="18"
           sodipodi:ry="18" />
      </g>
      <rect
         class="djs-hit"
         style="fill:none;stroke:#ffffff;stroke-width:15;stroke-opacity:0"
         height="36"
         width="36"
         y="0"
         x="0"
         id="rect7062" />
    </g>
  </g>
  <g
     class="djs-group"
     id="g7064"
     transform="translate(16.5,16.5)">
    <g
       style="display:none"
       transform="translate(528,420)"
       data-element-id="EndEvent_3_label"
       class="djs-element djs-shape"
       id="g7066">
      <rect
         height="12"
         width="102"
         y="-6"
         x="-6"
         class="djs-outline"
         id="rect7068"
         style="fill:none" />
      <g
         class="djs-visual"
         id="g7070">
        <text
           class=" djs-label"
           style="font-size:11px;font-family:'Arial, sans-serif'"
           id="text7072">
          <tspan
             y="0"
             x="45"
             id="tspan7074" />
        </text>
      </g>
      <rect
         class="djs-hit"
         style="fill:none;stroke:#ffffff;stroke-width:15;stroke-opacity:0"
         height="0"
         width="90"
         y="0"
         x="0"
         id="rect7076" />
    </g>
  </g>
  <g
     class="djs-group"
     id="g7078"
     transform="translate(16.5,16.5)">
    <g
       style="display:block"
       transform="translate(554,78)"
       data-element-id="EndEvent_2"
       class="djs-element djs-shape"
       id="g7080">
      <rect
         height="48"
         width="48"
         y="-6"
         x="-6"
         class="djs-outline"
         id="rect7082"
         style="fill:none" />
      <g
         class="djs-visual"
         id="g7084">
        <circle
           style="fill:#ffffff;stroke:#000000;stroke-width:4"
           r="18"
           cy="18"
           cx="18"
           id="circle7086"
           d="M 36,18 C 36,27.941125 27.941125,36 18,36 8.0588745,36 0,27.941125 0,18 0,8.0588745 8.0588745,0 18,0 27.941125,0 36,8.0588745 36,18 z"
           sodipodi:cx="18"
           sodipodi:cy="18"
           sodipodi:rx="18"
           sodipodi:ry="18" />
      </g>
      <rect
         class="djs-hit"
         style="fill:none;stroke:#ffffff;stroke-width:15;stroke-opacity:0"
         height="36"
         width="36"
         y="0"
         x="0"
         id="rect7088" />
    </g>
  </g>
  <g
     class="djs-group"
     id="g7090"
     transform="translate(16.5,16.5)">
    <g
       style="display:none"
       transform="translate(527,119)"
       data-element-id="EndEvent_2_label"
       class="djs-element djs-shape"
       id="g7092">
      <rect
         height="12"
         width="102"
         y="-6"
         x="-6"
         class="djs-outline"
         id="rect7094"
         style="fill:none" />
      <g
         class="djs-visual"
         id="g7096">
        <text
           class=" djs-label"
           style="font-size:11px;font-family:'Arial, sans-serif'"
           id="text7098">
          <tspan
             y="0"
             x="45"
             id="tspan7100" />
        </text>
      </g>
      <rect
         class="djs-hit"
         style="fill:none;stroke:#ffffff;stroke-width:15;stroke-opacity:0"
         height="0"
         width="90"
         y="0"
         x="0"
         id="rect7102" />
    </g>
  </g>
  <g
     class="djs-group"
     id="g7104"
     transform="translate(16.5,16.5)">
    <g
       style="display:block"
       transform="translate(477,125)"
       data-element-id="BoundaryEvent_1"
       class="djs-element djs-shape"
       id="g7106">
      <rect
         height="48"
         width="48"
         y="-6"
         x="-6"
         class="djs-outline"
         id="rect7108"
         style="fill:none" />
      <g
         class="djs-visual"
         id="g7110">
        <circle
           style="fill:#ffffff;stroke:#000000;stroke-width:1;stroke-linecap:round"
           r="18"
           cy="18"
           cx="18"
           id="circle7112"
           d="M 36,18 C 36,27.941125 27.941125,36 18,36 8.0588745,36 0,27.941125 0,18 0,8.0588745 8.0588745,0 18,0 27.941125,0 36,8.0588745 36,18 z"
           sodipodi:cx="18"
           sodipodi:cy="18"
           sodipodi:rx="18"
           sodipodi:ry="18" />
        <circle
           style="fill:#ffffff;stroke:#000000;stroke-width:1;stroke-linecap:round"
           r="15"
           cy="18"
           cx="18"
           id="circle7114"
           d="M 33,18 C 33,26.284271 26.284271,33 18,33 9.7157288,33 3,26.284271 3,18 3,9.7157288 9.7157288,3 18,3 26.284271,3 33,9.7157288 33,18 z"
           sodipodi:cx="18"
           sodipodi:cy="18"
           sodipodi:rx="15"
           sodipodi:ry="15" />
        <circle
           style="fill:#ffffff;stroke:#000000;stroke-width:2"
           r="11"
           cy="18"
           cx="18"
           id="circle7116"
           d="M 29,18 C 29,24.075132 24.075132,29 18,29 11.924868,29 7,24.075132 7,18 7,11.924868 11.924868,7 18,7 c 6.075132,0 11,4.924868 11,11 z"
           sodipodi:cx="18"
           sodipodi:cy="18"
           sodipodi:rx="11"
           sodipodi:ry="11" />
        <path
           style="fill:none;stroke:#000000;stroke-width:2;stroke-linecap:square"
           d="m 18,18 2.25,-7.5 M 18,18 l 5.25,1.5"
           id="path7118"
           inkscape:connector-curvature="0" />
        <path
           style="fill:none;stroke:#000000;stroke-width:1;stroke-linecap:square"
           d="m 18,18 m 0,7.5 0,2.25"
           id="path7120"
           inkscape:connector-curvature="0" />
        <path
           transform="matrix(0.866,0.5,-0.5,0.866,11.4115,-6.5885)"
           style="fill:none;stroke:#000000;stroke-width:1;stroke-linecap:square"
           d="m 18,18 m 0,7.5 0,2.25"
           id="path7122"
           inkscape:connector-curvature="0" />
        <path
           transform="matrix(0.5,0.866,-0.866,0.5,24.5885,-6.5885)"
           style="fill:none;stroke:#000000;stroke-width:1;stroke-linecap:square"
           d="m 18,18 m 0,7.5 0,2.25"
           id="path7124"
           inkscape:connector-curvature="0" />
        <path
           transform="matrix(0,1,-1,0,36,0)"
           style="fill:none;stroke:#000000;stroke-width:1;stroke-linecap:square"
           d="m 18,18 m 0,7.5 0,2.25"
           id="path7126"
           inkscape:connector-curvature="0" />
        <path
           transform="matrix(-0.5,0.866,-0.866,-0.5,42.5885,11.4115)"
           style="fill:none;stroke:#000000;stroke-width:1;stroke-linecap:square"
           d="m 18,18 m 0,7.5 0,2.25"
           id="path7128"
           inkscape:connector-curvature="0" />
        <path
           transform="matrix(-0.866,0.5,-0.5,-0.866,42.5885,24.5885)"
           style="fill:none;stroke:#000000;stroke-width:1;stroke-linecap:square"
           d="m 18,18 m 0,7.5 0,2.25"
           id="path7130"
           inkscape:connector-curvature="0" />
        <path
           transform="matrix(-1,0,0,-1,36,36)"
           style="fill:none;stroke:#000000;stroke-width:1;stroke-linecap:square"
           d="m 18,18 m 0,7.5 0,2.25"
           id="path7132"
           inkscape:connector-curvature="0" />
        <path
           transform="matrix(-0.866,-0.5,0.5,-0.866,24.5885,42.5885)"
           style="fill:none;stroke:#000000;stroke-width:1;stroke-linecap:square"
           d="m 18,18 m 0,7.5 0,2.25"
           id="path7134"
           inkscape:connector-curvature="0" />
        <path
           transform="matrix(-0.5,-0.866,0.866,-0.5,11.4115,42.5885)"
           style="fill:none;stroke:#000000;stroke-width:1;stroke-linecap:square"
           d="m 18,18 m 0,7.5 0,2.25"
           id="path7136"
           inkscape:connector-curvature="0" />
        <path
           transform="matrix(0,-1,1,0,0,36)"
           style="fill:none;stroke:#000000;stroke-width:1;stroke-linecap:square"
           d="m 18,18 m 0,7.5 0,2.25"
           id="path7138"
           inkscape:connector-curvature="0" />
        <path
           transform="matrix(0.5,-0.866,0.866,0.5,-6.5885,24.5885)"
           style="fill:none;stroke:#000000;stroke-width:1;stroke-linecap:square"
           d="m 18,18 m 0,7.5 0,2.25"
           id="path7140"
           inkscape:connector-curvature="0" />
        <path
           transform="matrix(0.866,-0.5,0.5,0.866,-6.5885,11.4115)"
           style="fill:none;stroke:#000000;stroke-width:1;stroke-linecap:square"
           d="m 18,18 m 0,7.5 0,2.25"
           id="path7142"
           inkscape:connector-curvature="0" />
      </g>
      <rect
         class="djs-hit"
         style="fill:none;stroke:#ffffff;stroke-width:15;stroke-opacity:0"
         height="36"
         width="36"
         y="0"
         x="0"
         id="rect7144" />
    </g>
  </g>
  <g
     class="djs-group"
     id="g7146"
     transform="translate(16.5,16.5)">
    <g
       style="display:none"
       transform="translate(450,166)"
       data-element-id="BoundaryEvent_1_label"
       class="djs-element djs-shape"
       id="g7148">
      <rect
         height="18"
         width="102"
         y="-6"
         x="-6"
         class="djs-outline"
         id="rect7150"
         style="fill:none" />
      <g
         class="djs-visual"
         id="g7152">
        <text
           class=" djs-label"
           style="font-size:11px;font-family:'Arial, sans-serif'"
           id="text7154">
          <tspan
             y="0"
             x="45"
             id="tspan7156" />
        </text>
      </g>
      <rect
         class="djs-hit"
         style="fill:none;stroke:#ffffff;stroke-width:15;stroke-opacity:0"
         height="6"
         width="90"
         y="0"
         x="0"
         id="rect7158" />
    </g>
  </g>
  <g
     class="djs-group"
     id="g7160"
     transform="translate(16.5,16.5)">
    <g
       style="display:block"
       transform="translate(477,334)"
       data-element-id="BoundaryEvent_2"
       class="djs-element djs-shape"
       id="g7162">
      <rect
         height="48"
         width="48"
         y="-6"
         x="-6"
         class="djs-outline"
         id="rect7164"
         style="fill:none" />
      <g
         class="djs-visual"
         id="g7166">
        <circle
           style="fill:#ffffff;stroke:#000000;stroke-width:1;stroke-linecap:round"
           r="18"
           cy="18"
           cx="18"
           id="circle7168"
           d="M 36,18 C 36,27.941125 27.941125,36 18,36 8.0588745,36 0,27.941125 0,18 0,8.0588745 8.0588745,0 18,0 27.941125,0 36,8.0588745 36,18 z"
           sodipodi:cx="18"
           sodipodi:cy="18"
           sodipodi:rx="18"
           sodipodi:ry="18" />
        <circle
           style="fill:#ffffff;stroke:#000000;stroke-width:1;stroke-linecap:round"
           r="15"
           cy="18"
           cx="18"
           id="circle7170"
           d="M 33,18 C 33,26.284271 26.284271,33 18,33 9.7157288,33 3,26.284271 3,18 3,9.7157288 9.7157288,3 18,3 26.284271,3 33,9.7157288 33,18 z"
           sodipodi:cx="18"
           sodipodi:cy="18"
           sodipodi:rx="15"
           sodipodi:ry="15" />
        <circle
           style="fill:#ffffff;stroke:#000000;stroke-width:2"
           r="11"
           cy="18"
           cx="18"
           id="circle7172"
           d="M 29,18 C 29,24.075132 24.075132,29 18,29 11.924868,29 7,24.075132 7,18 7,11.924868 11.924868,7 18,7 c 6.075132,0 11,4.924868 11,11 z"
           sodipodi:cx="18"
           sodipodi:cy="18"
           sodipodi:rx="11"
           sodipodi:ry="11" />
        <path
           style="fill:none;stroke:#000000;stroke-width:2;stroke-linecap:square"
           d="m 18,18 2.25,-7.5 M 18,18 l 5.25,1.5"
           id="path7174"
           inkscape:connector-curvature="0" />
        <path
           style="fill:none;stroke:#000000;stroke-width:1;stroke-linecap:square"
           d="m 18,18 m 0,7.5 0,2.25"
           id="path7176"
           inkscape:connector-curvature="0" />
        <path
           transform="matrix(0.866,0.5,-0.5,0.866,11.4115,-6.5885)"
           style="fill:none;stroke:#000000;stroke-width:1;stroke-linecap:square"
           d="m 18,18 m 0,7.5 0,2.25"
           id="path7178"
           inkscape:connector-curvature="0" />
        <path
           transform="matrix(0.5,0.866,-0.866,0.5,24.5885,-6.5885)"
           style="fill:none;stroke:#000000;stroke-width:1;stroke-linecap:square"
           d="m 18,18 m 0,7.5 0,2.25"
           id="path7180"
           inkscape:connector-curvature="0" />
        <path
           transform="matrix(0,1,-1,0,36,0)"
           style="fill:none;stroke:#000000;stroke-width:1;stroke-linecap:square"
           d="m 18,18 m 0,7.5 0,2.25"
           id="path7182"
           inkscape:connector-curvature="0" />
        <path
           transform="matrix(-0.5,0.866,-0.866,-0.5,42.5885,11.4115)"
           style="fill:none;stroke:#000000;stroke-width:1;stroke-linecap:square"
           d="m 18,18 m 0,7.5 0,2.25"
           id="path7184"
           inkscape:connector-curvature="0" />
        <path
           transform="matrix(-0.866,0.5,-0.5,-0.866,42.5885,24.5885)"
           style="fill:none;stroke:#000000;stroke-width:1;stroke-linecap:square"
           d="m 18,18 m 0,7.5 0,2.25"
           id="path7186"
           inkscape:connector-curvature="0" />
        <path
           transform="matrix(-1,0,0,-1,36,36)"
           style="fill:none;stroke:#000000;stroke-width:1;stroke-linecap:square"
           d="m 18,18 m 0,7.5 0,2.25"
           id="path7188"
           inkscape:connector-curvature="0" />
        <path
           transform="matrix(-0.866,-0.5,0.5,-0.866,24.5885,42.5885)"
           style="fill:none;stroke:#000000;stroke-width:1;stroke-linecap:square"
           d="m 18,18 m 0,7.5 0,2.25"
           id="path7190"
           inkscape:connector-curvature="0" />
        <path
           transform="matrix(-0.5,-0.866,0.866,-0.5,11.4115,42.5885)"
           style="fill:none;stroke:#000000;stroke-width:1;stroke-linecap:square"
           d="m 18,18 m 0,7.5 0,2.25"
           id="path7192"
           inkscape:connector-curvature="0" />
        <path
           transform="matrix(0,-1,1,0,0,36)"
           style="fill:none;stroke:#000000;stroke-width:1;stroke-linecap:square"
           d="m 18,18 m 0,7.5 0,2.25"
           id="path7194"
           inkscape:connector-curvature="0" />
        <path
           transform="matrix(0.5,-0.866,0.866,0.5,-6.5885,24.5885)"
           style="fill:none;stroke:#000000;stroke-width:1;stroke-linecap:square"
           d="m 18,18 m 0,7.5 0,2.25"
           id="path7196"
           inkscape:connector-curvature="0" />
        <path
           transform="matrix(0.866,-0.5,0.5,0.866,-6.5885,11.4115)"
           style="fill:none;stroke:#000000;stroke-width:1;stroke-linecap:square"
           d="m 18,18 m 0,7.5 0,2.25"
           id="path7198"
           inkscape:connector-curvature="0" />
      </g>
      <rect
         class="djs-hit"
         style="fill:none;stroke:#ffffff;stroke-width:15;stroke-opacity:0"
         height="36"
         width="36"
         y="0"
         x="0"
         id="rect7200" />
    </g>
  </g>
  <g
     class="djs-group"
     id="g7202"
     transform="translate(16.5,16.5)">
    <g
       style="display:none"
       transform="translate(450,375)"
       data-element-id="BoundaryEvent_2_label"
       class="djs-element djs-shape"
       id="g7204">
      <rect
         height="18"
         width="102"
         y="-6"
         x="-6"
         class="djs-outline"
         id="rect7206"
         style="fill:none" />
      <g
         class="djs-visual"
         id="g7208">
        <text
           class=" djs-label"
           style="font-size:11px;font-family:'Arial, sans-serif'"
           id="text7210">
          <tspan
             y="0"
             x="45"
             id="tspan7212" />
        </text>
      </g>
      <rect
         class="djs-hit"
         style="fill:none;stroke:#ffffff;stroke-width:15;stroke-opacity:0"
         height="6"
         width="90"
         y="0"
         x="0"
         id="rect7214" />
    </g>
  </g>
  <g
     class="djs-group"
     id="g7216"
     transform="translate(16.5,16.5)">
    <g
       style="display:block"
       data-element-id="SequenceFlow_4"
       class="djs-element djs-connection"
       id="g7218">
      <rect
         height="12"
         width="62"
         y="236"
         x="239"
         class="djs-outline"
         id="rect7220"
         style="fill:none" />
      <g
         class="djs-visual"
         id="g7222">
        <path
           style="fill:none;stroke:#000000;stroke-width:2;marker-end:url(#markerSi7yecn9l9o)"
           d="m 245,242 50,0"
           id="path7224"
           inkscape:connector-curvature="0" />
      </g>
      <polyline
         class="djs-hit"
         style="fill:none;stroke:#ffffff;stroke-width:15;stroke-opacity:0"
         points="245,242 295,242 "
         id="polyline7226" />
    </g>
  </g>
  <g
     class="djs-group"
     id="g7228"
     transform="translate(16.5,16.5)">
    <g
       style="display:none"
       transform="translate(225,232)"
       data-element-id="SequenceFlow_4_label"
       class="djs-element djs-shape"
       id="g7230">
      <rect
         height="32"
         width="102"
         y="-6"
         x="-6"
         class="djs-outline"
         id="rect7232"
         style="fill:none" />
      <g
         class="djs-visual"
         id="g7234">
        <text
           class=" djs-label"
           style="font-size:11px;font-family:'Arial, sans-serif'"
           id="text7236">
          <tspan
             y="0"
             x="45"
             id="tspan7238" />
        </text>
      </g>
      <rect
         class="djs-hit"
         style="fill:none;stroke:#ffffff;stroke-width:15;stroke-opacity:0"
         height="20"
         width="90"
         y="0"
         x="0"
         id="rect7240" />
    </g>
  </g>
  <g
     class="djs-group"
     id="g7242"
     transform="translate(16.5,16.5)">
    <g
       style="display:block"
       data-element-id="SequenceFlow_5"
       class="djs-element djs-connection"
       id="g7244">
      <rect
         height="46"
         width="87"
         y="177"
         x="314"
         class="djs-outline"
         id="rect7246"
         style="fill:none" />
      <g
         class="djs-visual"
         id="g7248">
        <path
           style="fill:none;stroke:#000000;stroke-width:2;marker-end:url(#markerSi7yecn9l9o)"
           d="m 320,217 0,-34 75,0"
           id="path7250"
           inkscape:connector-curvature="0" />
      </g>
      <polyline
         class="djs-hit"
         style="fill:none;stroke:#ffffff;stroke-width:15;stroke-opacity:0"
         points="320,217 320,183 395,183 "
         id="polyline7252" />
    </g>
  </g>
  <g
     class="djs-group"
     id="g7254"
     transform="translate(16.5,16.5)">
    <g
       style="display:none"
       transform="translate(275,197)"
       data-element-id="SequenceFlow_5_label"
       class="djs-element djs-shape"
       id="g7256">
      <rect
         height="18"
         width="102"
         y="-6"
         x="-6"
         class="djs-outline"
         id="rect7258"
         style="fill:none" />
      <g
         class="djs-visual"
         id="g7260">
        <text
           class=" djs-label"
           style="font-size:11px;font-family:'Arial, sans-serif'"
           id="text7262">
          <tspan
             y="0"
             x="45"
             id="tspan7264" />
        </text>
      </g>
      <rect
         class="djs-hit"
         style="fill:none;stroke:#ffffff;stroke-width:15;stroke-opacity:0"
         height="6"
         width="90"
         y="0"
         x="0"
         id="rect7266" />
    </g>
  </g>
  <g
     class="djs-group"
     id="g7268"
     transform="translate(16.5,16.5)">
    <g
       style="display:block"
       data-element-id="SequenceFlow_7"
       class="djs-element djs-connection"
       id="g7270">
      <rect
         height="12"
         width="63"
         y="236"
         x="590"
         class="djs-outline"
         id="rect7272"
         style="fill:none" />
      <g
         class="djs-visual"
         id="g7274">
        <path
           style="fill:none;stroke:#000000;stroke-width:2;marker-end:url(#markerSi7yecn9l9o)"
           d="m 596,242 51,0"
           id="path7276"
           inkscape:connector-curvature="0" />
      </g>
      <polyline
         class="djs-hit"
         style="fill:none;stroke:#ffffff;stroke-width:15;stroke-opacity:0"
         points="596,242 647,242 "
         id="polyline7278" />
    </g>
  </g>
  <g
     class="djs-group"
     id="g7280"
     transform="translate(16.5,16.5)">
    <g
       style="display:none"
       transform="translate(568,242)"
       data-element-id="SequenceFlow_7_label"
       class="djs-element djs-shape"
       id="g7282">
      <rect
         height="18"
         width="102"
         y="-6"
         x="-6"
         class="djs-outline"
         id="rect7284"
         style="fill:none" />
      <g
         class="djs-visual"
         id="g7286">
        <text
           class=" djs-label"
           style="font-size:11px;font-family:'Arial, sans-serif'"
           id="text7288">
          <tspan
             y="0"
             x="45"
             id="tspan7290" />
        </text>
      </g>
      <rect
         class="djs-hit"
         style="fill:none;stroke:#ffffff;stroke-width:15;stroke-opacity:0"
         height="6"
         width="90"
         y="0"
         x="0"
         id="rect7292" />
    </g>
  </g>
  <g
     class="djs-group"
     id="g7294"
     transform="translate(16.5,16.5)">
    <g
       style="display:block"
       data-element-id="SequenceFlow_8"
       class="djs-element djs-connection"
       id="g7296">
      <rect
         height="57"
         width="87"
         y="261"
         x="314"
         class="djs-outline"
         id="rect7298"
         style="fill:none" />
      <g
         class="djs-visual"
         id="g7300">
        <path
           style="fill:none;stroke:#000000;stroke-width:2;marker-end:url(#markerSi7yecn9l9o)"
           d="m 320,267 0,45 75,0"
           id="path7302"
           inkscape:connector-curvature="0" />
      </g>
      <polyline
         class="djs-hit"
         style="fill:none;stroke:#ffffff;stroke-width:15;stroke-opacity:0"
         points="320,267 320,312 395,312 "
         id="polyline7304" />
    </g>
  </g>
  <g
     class="djs-group"
     id="g7306"
     transform="translate(16.5,16.5)">
    <g
       style="display:none"
       transform="translate(305,312)"
       data-element-id="SequenceFlow_8_label"
       class="djs-element djs-shape"
       id="g7308">
      <rect
         height="18"
         width="102"
         y="-6"
         x="-6"
         class="djs-outline"
         id="rect7310"
         style="fill:none" />
      <g
         class="djs-visual"
         id="g7312">
        <text
           class=" djs-label"
           style="font-size:11px;font-family:'Arial, sans-serif'"
           id="text7314">
          <tspan
             y="0"
             x="45"
             id="tspan7316" />
        </text>
      </g>
      <rect
         class="djs-hit"
         style="fill:none;stroke:#ffffff;stroke-width:15;stroke-opacity:0"
         height="6"
         width="90"
         y="0"
         x="0"
         id="rect7318" />
    </g>
  </g>
  <g
     class="djs-group"
     id="g7320"
     transform="translate(16.5,16.5)">
    <g
       style="display:block"
       data-element-id="SequenceFlow_9"
       class="djs-element djs-connection"
       id="g7322">
      <rect
         height="57"
         width="88"
         y="261"
         x="489"
         class="djs-outline"
         id="rect7324"
         style="fill:none" />
      <g
         class="djs-visual"
         id="g7326">
        <path
           style="fill:none;stroke:#000000;stroke-width:2;marker-end:url(#markerSi7yecn9l9o)"
           d="m 495,312 76,0 0,-45"
           id="path7328"
           inkscape:connector-curvature="0" />
      </g>
      <polyline
         class="djs-hit"
         style="fill:none;stroke:#ffffff;stroke-width:15;stroke-opacity:0"
         points="495,312 571,312 571,267 "
         id="polyline7330" />
    </g>
  </g>
  <g
     class="djs-group"
     id="g7332"
     transform="translate(16.5,16.5)">
    <g
       style="display:none"
       transform="translate(525,312)"
       data-element-id="SequenceFlow_9_label"
       class="djs-element djs-shape"
       id="g7334">
      <rect
         height="18"
         width="102"
         y="-6"
         x="-6"
         class="djs-outline"
         id="rect7336"
         style="fill:none" />
      <g
         class="djs-visual"
         id="g7338">
        <text
           class=" djs-label"
           style="font-size:11px;font-family:'Arial, sans-serif'"
           id="text7340">
          <tspan
             y="0"
             x="45"
             id="tspan7342" />
        </text>
      </g>
      <rect
         class="djs-hit"
         style="fill:none;stroke:#ffffff;stroke-width:15;stroke-opacity:0"
         height="6"
         width="90"
         y="0"
         x="0"
         id="rect7344" />
    </g>
  </g>
  <g
     class="djs-group"
     id="g7346"
     transform="translate(16.5,16.5)">
    <g
       style="display:block"
       data-element-id="SequenceFlow_6"
       class="djs-element djs-connection"
       id="g7348">
      <rect
         height="46"
         width="88"
         y="177"
         x="489"
         class="djs-outline"
         id="rect7350"
         style="fill:none" />
      <g
         class="djs-visual"
         id="g7352">
        <path
           style="fill:none;stroke:#000000;stroke-width:2;marker-end:url(#markerSi7yecn9l9o)"
           d="m 495,183 76,0 0,34"
           id="path7354"
           inkscape:connector-curvature="0" />
      </g>
      <polyline
         class="djs-hit"
         style="fill:none;stroke:#ffffff;stroke-width:15;stroke-opacity:0"
         points="495,183 571,183 571,217 "
         id="polyline7356" />
    </g>
  </g>
  <g
     class="djs-group"
     id="g7358"
     transform="translate(16.5,16.5)">
    <g
       style="display:none"
       transform="translate(475,183)"
       data-element-id="SequenceFlow_6_label"
       class="djs-element djs-shape"
       id="g7360">
      <rect
         height="18"
         width="102"
         y="-6"
         x="-6"
         class="djs-outline"
         id="rect7362"
         style="fill:none" />
      <g
         class="djs-visual"
         id="g7364">
        <text
           class=" djs-label"
           style="font-size:11px;font-family:'Arial, sans-serif'"
           id="text7366">
          <tspan
             y="0"
             x="45"
             id="tspan7368" />
        </text>
      </g>
      <rect
         class="djs-hit"
         style="fill:none;stroke:#ffffff;stroke-width:15;stroke-opacity:0"
         height="6"
         width="90"
         y="0"
         x="0"
         id="rect7370" />
    </g>
  </g>
  <g
     class="djs-group"
     id="g7372"
     transform="translate(16.5,16.5)">
    <g
       style="display:block"
       data-element-id="SequenceFlow_1"
       class="djs-element djs-connection"
       id="g7374">
      <rect
         height="41"
         width="71"
         y="90"
         x="489"
         class="djs-outline"
         id="rect7376"
         style="fill:none" />
      <g
         class="djs-visual"
         id="g7378">
        <path
           style="fill:none;stroke:#000000;stroke-width:2;marker-end:url(#markerSi7yecn9l9o)"
           d="m 495,125 0,-29 59,0"
           id="path7380"
           inkscape:connector-curvature="0" />
      </g>
      <polyline
         class="djs-hit"
         style="fill:none;stroke:#ffffff;stroke-width:15;stroke-opacity:0"
         points="495,125 495,96 554,96 "
         id="polyline7382" />
    </g>
  </g>
  <g
     class="djs-group"
     id="g7384"
     transform="translate(16.5,16.5)">
    <g
       style="display:none"
       transform="translate(494,96)"
       data-element-id="SequenceFlow_1_label"
       class="djs-element djs-shape"
       id="g7386">
      <rect
         height="18"
         width="102"
         y="-6"
         x="-6"
         class="djs-outline"
         id="rect7388"
         style="fill:none" />
      <g
         class="djs-visual"
         id="g7390">
        <text
           class=" djs-label"
           style="font-size:11px;font-family:'Arial, sans-serif'"
           id="text7392">
          <tspan
             y="0"
             x="45"
             id="tspan7394" />
        </text>
      </g>
      <rect
         class="djs-hit"
         style="fill:none;stroke:#ffffff;stroke-width:15;stroke-opacity:0"
         height="6"
         width="90"
         y="0"
         x="0"
         id="rect7396" />
    </g>
  </g>
  <g
     class="djs-group"
     id="g7398"
     transform="translate(16.5,16.5)">
    <g
       style="display:block"
       data-element-id="SequenceFlow_2"
       class="djs-element djs-connection"
       id="g7400">
      <rect
         height="39"
         width="72"
         y="364"
         x="489"
         class="djs-outline"
         id="rect7402"
         style="fill:none" />
      <g
         class="djs-visual"
         id="g7404">
        <path
           style="fill:none;stroke:#000000;stroke-width:2;marker-end:url(#markerSi7yecn9l9o)"
           d="m 495,370 0,27 60,0"
           id="path7406"
           inkscape:connector-curvature="0" />
      </g>
      <polyline
         class="djs-hit"
         style="fill:none;stroke:#ffffff;stroke-width:15;stroke-opacity:0"
         points="495,370 495,397 555,397 "
         id="polyline7408" />
    </g>
  </g>
  <g
     class="djs-group"
     id="g7410"
     transform="translate(16.5,16.5)">
    <g
       style="display:none"
       transform="translate(496,397)"
       data-element-id="SequenceFlow_2_label"
       class="djs-element djs-shape"
       id="g7412">
      <rect
         height="18"
         width="102"
         y="-6"
         x="-6"
         class="djs-outline"
         id="rect7414"
         style="fill:none" />
      <g
         class="djs-visual"
         id="g7416">
        <text
           class=" djs-label"
           style="font-size:11px;font-family:'Arial, sans-serif'"
           id="text7418">
          <tspan
             y="0"
             x="45"
             id="tspan7420" />
        </text>
      </g>
      <rect
         class="djs-hit"
         style="fill:none;stroke:#ffffff;stroke-width:15;stroke-opacity:0"
         height="6"
         width="90"
         y="0"
         x="0"
         id="rect7422" />
    </g>
  </g>
</svg>
