<?xml version="1.0" encoding="UTF-8" standalone="no"?>
<svg
   xmlns:dc="http://purl.org/dc/elements/1.1/"
   xmlns:cc="http://creativecommons.org/ns#"
   xmlns:rdf="http://www.w3.org/1999/02/22-rdf-syntax-ns#"
   xmlns:svg="http://www.w3.org/2000/svg"
   xmlns="http://www.w3.org/2000/svg"
   xmlns:sodipodi="http://sodipodi.sourceforge.net/DTD/sodipodi-0.dtd"
   xmlns:inkscape="http://www.inkscape.org/namespaces/inkscape"
   version="1.1"
   x="0px"
   y="0px"
   width="267.79001"
   height="241.62"
   viewBox="0 0 267.79001 241.62"
   enable-background="new 0 0 100 100"
   xml:space="preserve"
   id="svg2"
   inkscape:version="0.48.3.1 r9886"
   sodipodi:docname="design_land.svg"
   inkscape:export-filename="/var/www/camunda/app/assets/img/design_land.png"
   inkscape:export-xdpi="208.77"
   inkscape:export-ydpi="208.77"><metadata
   id="metadata136"><rdf:RDF><cc:Work
       rdf:about=""><dc:format>image/svg+xml</dc:format><dc:type
         rdf:resource="http://purl.org/dc/dcmitype/StillImage" /><dc:title /></cc:Work></rdf:RDF></metadata><defs
   id="defs134">
	
	
	
	
	
	
	
	
	












	
	
	
	
</defs><sodipodi:namedview
   pagecolor="#ffffff"
   bordercolor="#666666"
   borderopacity="1"
   objecttolerance="10"
   gridtolerance="10"
   guidetolerance="10"
   inkscape:pageopacity="0"
   inkscape:pageshadow="2"
   inkscape:window-width="1920"
   inkscape:window-height="1056"
   id="namedview132"
   showgrid="false"
   inkscape:zoom="2.36"
   inkscape:cx="159.21309"
   inkscape:cy="215.22306"
   inkscape:window-x="0"
   inkscape:window-y="24"
   inkscape:window-maximized="1"
   inkscape:current-layer="svg2"
   inkscape:snap-global="false"
   width="500px"
   inkscape:object-nodes="true"
   inkscape:snap-center="true"
   inkscape:snap-object-midpoints="true"
   inkscape:snap-midpoints="true"
   fit-margin-top="0"
   fit-margin-left="0"
   fit-margin-right="0"
   fit-margin-bottom="0" />







<g
   id="g3645"
   style="opacity:0.22000002"
   transform="translate(18.876157,14.124993)"><path
     inkscape:connector-curvature="0"
     id="path3643"
     d="m 98.734454,55.30309 c -0.323896,-0.224755 -2.547535,-12.711008 -2.302847,-12.931018 0.110791,-0.09962 2.5652,-0.643614 5.454243,-1.208886 l 5.25281,-1.027767 -0.42774,-2.367184 -0.42774,-2.367184 -9.550399,1.672185 -9.550397,1.672184 0.934181,5.169925 c 0.90894,5.030236 0.91918,5.190176 0.378615,5.919483 -0.554321,0.747873 -0.586401,0.755127 -14.292118,3.231684 l -13.736548,2.482129 -0.749558,-0.555566 c -0.709929,-0.526198 -0.797315,-0.819879 -1.652969,-5.555223 -0.812855,-4.498487 -0.947292,-4.973045 -1.341131,-4.734188 -0.240744,0.146008 -0.614429,0.165703 -0.830412,0.04377 -0.248952,-0.14055 -2.489559,0.23511 -6.121162,1.026273 l -5.728466,1.247976 0.02674,0.699871 c 0.04129,1.080708 -1.807642,3.531501 -3.010062,3.989886 -1.713813,0.653339 -3.07995,0.472328 -4.648146,-0.615871 -2.446495,-1.697665 -2.902004,-4.218531 -1.204339,-6.665026 1.088199,-1.568197 2.304598,-2.215859 4.13868,-2.203609 1.286801,0.0086 3.876504,1.657348 4.216031,2.684166 0.212586,0.642914 0.306174,0.649246 2.821279,0.19091 1.430768,-0.260743 4.379203,-0.858963 6.552074,-1.329396 l 3.950676,-0.855332 -0.918874,-5.085214 c -0.892939,-4.941688 -0.9032,-5.106369 -0.363307,-5.834771 0.55432,-0.747873 0.586401,-0.755128 14.292117,-3.231685 l 13.736549,-2.482128 0.749558,0.555566 c 0.711438,0.527314 0.796688,0.816411 1.676414,5.684975 l 0.92686,5.129408 9.531665,-1.775852 9.531669,-1.775853 -0.92482,-5.118091 c -0.89915,-4.976054 -0.9094,-5.138891 -0.36925,-5.867647 0.55432,-0.747874 0.5864,-0.755128 14.29212,-3.231686 l 13.73655,-2.482128 0.74956,0.555566 c 0.71147,0.527343 0.79667,0.816321 1.67703,5.688372 l 0.92747,5.132805 6.134,-1.164617 6.13401,-1.164617 2.43526,-3.458895 2.43525,-3.458894 3.5233,2.435986 3.52329,2.435987 9.00304,-1.683299 c 8.08376,-1.511418 8.99452,-1.731146 8.9195,-2.151893 -0.14061,-0.78806 0.67832,-2.519383 1.56342,-3.305588 1.13907,-1.011794 3.64379,-1.464386 5.06492,-0.915208 1.57484,0.608577 2.48434,1.798142 2.82944,3.700708 0.50513,2.785618 -1.00181,4.996427 -3.74366,5.491868 -2.23862,0.404507 -4.44759,-0.643843 -5.16064,-2.449178 l -0.29156,-0.738171 -9.06098,1.582127 c -6.10992,1.066847 -9.10452,1.692779 -9.19464,1.921872 -0.0756,0.192182 0.0998,0.297561 0.40382,0.242624 0.29562,-0.05342 0.71906,0.02887 0.94098,0.182868 0.27451,0.190485 1.54559,0.05552 3.97624,-0.422188 l 3.57275,-0.702178 0.34234,0.866754 c 0.18829,0.476715 0.2937,0.990414 0.23422,1.141555 -0.0595,0.151139 -2.25662,0.654415 -4.88258,1.118392 -3.78912,0.669494 -4.87768,0.771972 -5.27458,0.496556 -0.27504,-0.190872 -0.52707,-0.496304 -0.56003,-0.678739 -0.033,-0.182435 -0.699,0.579008 -1.48007,1.692097 l -1.42013,2.023798 1.07429,6.389089 1.07428,6.389093 -29.64446,5.432646 c -16.30445,2.987956 -29.747582,5.361094 -29.873627,5.27362 z m 57.264356,-17.395777 -1.05895,-5.860435 -3.15026,-2.150333 -3.15025,-2.150333 -6.15372,1.055554 -6.15371,1.055553 0.92747,5.132805 c 0.88036,4.872053 0.90168,5.172572 0.41975,5.915557 l -0.50773,0.782752 -13.73655,2.482129 c -13.70571,2.476557 -13.73831,2.480954 -14.5193,1.974401 -0.67625,-0.438643 -0.83343,-0.788204 -1.15522,-2.569015 l -0.37246,-2.061286 -4.9291,0.810529 -4.929099,0.810529 0.996388,5.514191 0.996388,5.51419 28.767653,-5.198177 28.76765,-5.198178 -1.05895,-5.860433 z M 87.502833,49.110784 c 0.441815,-0.636697 -3.275119,-20.944891 -3.897807,-21.296441 -0.326236,-0.184182 -3.740702,0.360854 -12.115518,1.933945 -6.835405,1.283934 -11.372485,2.243456 -10.963458,2.318601 0.383791,0.07051 0.983214,0.52644 1.332052,1.01318 0.546032,0.761893 0.602513,1.019233 0.40609,1.850199 -0.127668,0.540099 -0.606303,1.237629 -1.086725,1.583721 -0.775954,0.55899 -0.956783,0.591665 -1.879294,0.339579 -0.571162,-0.156076 -1.263639,-0.641991 -1.57225,-1.103256 -0.474809,-0.709678 -0.51196,-0.970511 -0.267092,-1.875316 0.156437,-0.578041 0.560297,-1.20439 0.897467,-1.391887 0.555218,-0.308752 0.52058,-0.335928 -0.367258,-0.288145 -1.871723,0.100737 -1.875918,-0.162737 0.17842,11.206337 1.380044,7.637415 1.970241,10.388962 2.27354,10.599426 0.589664,0.409178 26.652655,-4.300279 27.061833,-4.889943 z M 66.771604,47.414842 c -0.128104,-0.211224 -0.244707,-0.693978 -0.259117,-1.072787 -0.02541,-0.668081 0.06885,-0.707992 3.14205,-1.330339 1.807982,-0.366131 3.428207,-0.845252 3.773722,-1.115939 0.492535,-0.385866 0.666102,-0.40691 0.930532,-0.11282 0.238966,0.265774 0.902115,0.244474 2.503829,-0.08042 1.737923,-0.352523 2.194178,-0.356664 2.254927,-0.02047 0.04189,0.231813 -0.05395,0.444987 -0.212963,0.473721 -0.159017,0.02873 -0.233743,0.358719 -0.166058,0.7333 l 0.123064,0.681057 -5.317903,1.014646 -5.317903,1.014645 -0.246048,-0.63792 -0.246049,-0.63792 0.07817,0.65764 c 0.08692,0.731203 -0.668738,1.046179 -1.040257,0.433604 z M 65.677918,43.09576 c -0.116599,-0.192253 -0.223788,-0.659485 -0.238198,-1.038294 -0.02541,-0.66803 0.06298,-0.705478 2.939163,-1.24514 1.869805,-0.350834 3.068732,-0.705355 3.245145,-0.959585 0.367733,-0.529939 1.014283,-0.63464 1.096576,-0.177578 0.04818,0.267607 0.696623,0.223855 2.49768,-0.168524 2.398394,-0.522515 2.437082,-0.520068 2.750937,0.174016 0.654534,1.447489 0.47474,1.556823 -3.760917,2.287059 -3.731323,0.643288 -3.91687,0.647103 -4.136791,0.08506 -0.218489,-0.558386 -0.226209,-0.554595 -0.151169,0.07422 0.07481,0.626884 -0.03184,0.680353 -1.975675,0.990487 -1.385146,0.220997 -2.123841,0.213918 -2.266752,-0.02172 z m -1.271447,-3.979188 c -1.142389,-0.792725 -0.604673,-2.382896 0.897568,-2.654344 0.470685,-0.08505 0.9475,-0.0033 1.059592,0.181739 0.258299,0.426331 9.252059,-1.265569 9.322334,-1.753711 0.05642,-0.391893 0.846828,-0.555793 0.913046,-0.18933 0.02691,0.148942 0.479141,0.235168 1.004951,0.191613 0.878927,-0.07281 0.970762,0.0024 1.138868,0.932737 l 0.182851,1.011927 -4.388083,0.827336 c -4.250389,0.801375 -4.395321,0.808825 -4.618787,0.237468 l -0.230705,-0.589867 0.07068,0.616149 c 0.0658,0.573603 -0.09899,0.64809 -2.386492,1.078698 -1.810598,0.340834 -2.591012,0.36967 -2.96582,0.109585 z m 72.247129,1.112904 c 0.40754,-0.587308 -3.25778,-20.871848 -3.84509,-21.279391 -0.58966,-0.409178 -26.65265,4.30028 -27.06183,4.889944 -0.40754,0.587307 3.25778,20.871848 3.84508,21.279391 0.58967,0.409178 26.65266,-4.30028 27.06184,-4.889944 z m -26.94721,-4.827419 c -1.10835,-0.769097 -0.59654,-2.376896 0.83921,-2.636329 0.43389,-0.0784 0.97046,-0.01655 1.19238,0.137441 0.27451,0.190485 1.54559,0.05552 3.97624,-0.422189 l 3.57275,-0.702178 0.34234,0.866755 c 0.18829,0.476714 0.29369,0.990413 0.23422,1.141555 -0.0595,0.151138 -2.25662,0.654415 -4.88258,1.118391 -3.78912,0.669495 -4.87768,0.771973 -5.27458,0.496557 z m 10.67863,-2.921454 c -0.19261,-1.065925 -0.1518,-1.465383 0.1554,-1.520891 0.22914,-0.04141 0.51841,0.03793 0.64282,0.176293 0.14229,0.158251 0.41518,0.08125 0.73563,-0.207565 0.41192,-0.371256 0.57134,-0.390716 0.83285,-0.101667 0.40704,0.449888 4.2129,-0.279333 4.95682,-0.949749 0.40597,-0.365859 0.56687,-0.381094 0.83966,-0.0795 0.25288,0.279581 0.8835,0.262322 2.51623,-0.06886 1.73792,-0.352523 2.19417,-0.356664 2.25492,-0.02047 0.0419,0.231812 -0.0539,0.444986 -0.21296,0.47372 -0.15902,0.02873 -0.2337,0.358943 -0.16597,0.733798 l 0.12316,0.681555 -5.46369,1.040762 c -4.97368,0.947423 -5.49901,0.999309 -5.85762,0.578557 -0.37015,-0.434293 -0.38895,-0.431555 -0.31131,0.04535 0.0455,0.279154 -0.11252,0.542816 -0.35105,0.585917 -0.32767,0.05921 -0.49753,-0.275007 -0.69489,-1.367247 z m -13.411,-4.333016 c -0.49803,-0.345589 -0.35185,-0.942136 0.36632,-1.494939 0.62468,-0.480844 0.69687,-0.709811 0.45269,-1.435731 -0.34531,-1.026526 0.0206,-1.81008 0.92116,-1.972816 0.92438,-0.16703 1.53326,0.4477 1.51313,1.527682 -0.0143,0.76743 0.10477,0.937887 0.77381,1.107837 0.53817,0.136708 0.7979,0.396802 0.81325,0.814393 0.0204,0.553815 -0.20244,0.662538 -2.28877,1.116916 -1.27124,0.276858 -2.41945,0.428354 -2.55159,0.336658 z m 3.85418,-1.562944 c -0.35086,-0.177693 -0.75195,-0.302475 -0.8913,-0.277295 -0.13936,0.02518 -0.31198,-0.514627 -0.38362,-1.199572 -0.11305,-1.081015 -0.20653,-1.231569 -0.70848,-1.140869 -0.4997,0.09029 -0.53756,0.269489 -0.27869,1.319247 0.16476,0.668118 0.19196,1.234203 0.0605,1.257966 -0.13151,0.02376 -0.45714,0.27986 -0.72363,0.569104 -0.44088,0.478536 -0.30225,0.492963 1.53934,0.160198 1.84159,-0.332766 1.9664,-0.394798 1.38593,-0.688779 z m 41.2238,2.709672 -3.23382,-2.254001 2.30488,-3.321559 2.30489,-3.321558 3.31615,2.231219 3.31615,2.23122 -3.34074,-2.378099 -3.34074,-2.3781 -2.42491,3.494523 -2.42491,3.494523 3.23387,2.254037 c 1.77863,1.239721 3.29893,2.242283 3.37844,2.227916 0.0795,-0.01437 -1.31066,-1.040421 -3.08926,-2.280121 z m 7.63331,-2.87923 c 0.12611,0.06433 0.14989,0.0429 0.0529,-0.04761 -0.097,-0.09051 -0.063,-0.365364 0.0755,-0.610762 0.13854,-0.245405 0.20073,-0.436946 0.13819,-0.425645 -0.0625,0.0113 -1.0645,1.435009 -2.22657,3.163795 -2.08779,3.105942 -2.09006,3.111559 -0.19106,0.473255 1.057,-1.468496 2.025,-2.61736 2.1511,-2.553032 z m -3.37436,3.305901 0.79795,-1.189153 -0.73534,0.132872 c -0.48372,0.08741 -0.87499,-0.07175 -1.14347,-0.465144 l -0.40814,-0.598017 -0.0892,0.687885 c -0.0652,0.503052 -0.31245,0.728224 -0.92003,0.838011 -1.16672,0.21082 -1.35084,-0.158158 -0.78145,-1.56601 l 0.49406,-1.221575 -0.84768,-0.89021 c -1.18462,-1.244053 -1.18817,-1.57509 -0.0192,-1.786322 0.7752,-0.140073 1.06344,-0.0451 1.31676,0.433835 l 0.3243,0.613164 0.17304,-0.703032 c 0.1196,-0.485883 0.42204,-0.748025 0.97917,-0.848696 1.14155,-0.206272 1.32308,0.170172 0.75702,1.569791 l -0.49378,1.220892 0.91313,0.994014 0.91314,0.994015 0.98044,-1.412897 0.98043,-1.412898 -2.98321,-2.070105 -2.98322,-2.070105 -2.06923,2.981951 -2.06922,2.981951 2.89138,2.017556 c 1.59026,1.109655 2.96631,2.004016 3.05789,1.987467 0.0916,-0.01655 0.52558,-0.565206 0.96445,-1.21924 z M 41.501827,50.153388 c 1.676461,-1.29044 1.905172,-3.904489 0.48181,-5.506831 -1.895282,-2.133605 -5.35535,-1.508387 -6.384096,1.153576 -1.378585,3.567197 2.861091,6.694188 5.902286,4.353255 z M 181.50144,24.5537 c -0.36107,-0.180723 -0.94511,-0.574741 -1.29786,-0.875596 l -0.64136,-0.547008 0.42563,0.579544 c 0.2341,0.318749 0.75025,0.729306 1.14701,0.912349 0.92287,0.42576 1.23703,0.366381 0.36658,-0.06929 z m 5.39644,-2.023602 0.29131,-0.777159 -0.42546,0.739778 c -0.23401,0.406878 -0.64714,1.000063 -0.91807,1.318188 -0.46988,0.551722 -0.46369,0.553446 0.13415,0.03738 0.34471,-0.297566 0.75785,-0.89075 0.91807,-1.318188 z m -1.63257,0.787118 c 0.82502,-0.635054 1.20831,-1.814108 0.98731,-3.037136 -0.44889,-2.48425 -3.11738,-3.478578 -5.29085,-1.971465 -1.86398,1.292512 -1.28362,4.886079 0.90937,5.630717 1.00454,0.341099 2.49857,0.06726 3.39417,-0.622117 z m -31.08091,4.548812 c 0.11274,-0.34879 0.36426,-0.662946 0.55894,-0.698123 0.19468,-0.03518 0.56349,0.166886 0.81957,0.449032 0.25609,0.282145 0.60522,0.487764 0.77586,0.456931 0.17064,-0.03083 -0.0701,-0.479043 -0.5349,-0.996015 l -0.84515,-0.939952 0.43838,-1.225763 c 0.44209,-1.23612 0.068,-1.671228 -0.40886,-0.475545 -0.14115,0.353923 -0.41592,0.672279 -0.6106,0.707456 -0.19468,0.03518 -0.54024,-0.171086 -0.76791,-0.458365 -0.22768,-0.287279 -0.5501,-0.497725 -0.71649,-0.467659 -0.16639,0.03007 0.0702,0.469226 0.5258,0.975912 l 0.82833,0.921245 -0.43142,1.246253 c -0.23729,0.685438 -0.29758,1.222065 -0.13398,1.192504 0.1636,-0.02956 0.38969,-0.339121 0.50243,-0.687911 z M 51.760454,44.66371 c -0.603337,0.04487 -1.644332,0.232082 -2.313322,0.416036 -0.66899,0.183952 -0.175351,0.147244 1.096976,-0.08158 1.272326,-0.228828 1.819683,-0.379326 1.216346,-0.334461 z m 128.485566,-26.693743 0.5441,-0.657454 -0.62607,0.544868 c -0.34433,0.299677 -0.75542,0.894277 -0.91354,1.321334 -0.2742,0.740637 -0.27042,0.745832 0.082,0.112585 0.20319,-0.365134 0.61428,-0.959734 0.91354,-1.321333 z m 5.81034,-0.09568 c -0.29237,-0.304605 -0.88367,-0.701583 -1.31401,-0.882174 -0.55756,-0.233983 -0.43672,-0.07494 0.42045,0.553387 1.38792,1.017386 1.64545,1.112143 0.89356,0.328787 z M 61.076676,35.619984 c 0.313052,0.05944 0.359381,-0.07644 0.167223,-0.49046 -0.188221,-0.405528 -0.129378,-0.59733 0.201604,-0.657137 0.585833,-0.105857 0.528672,-0.571486 -0.08445,-0.687902 -0.277653,-0.05272 -0.420258,-0.288702 -0.361491,-0.598202 0.07665,-0.403679 -0.01942,-0.449592 -0.45698,-0.218392 -0.388219,0.205128 -0.641198,0.149456 -0.845263,-0.186014 -0.272549,-0.448058 -0.303285,-0.44387 -0.479294,0.06531 -0.103439,0.299237 -0.382928,0.507068 -0.621088,0.461846 -0.313053,-0.05944 -0.359381,0.07644 -0.167223,0.490461 0.18822,0.405528 0.129371,0.597331 -0.201604,0.657136 -0.585834,0.105858 -0.528672,0.571486 0.08445,0.687902 0.28524,0.05416 0.420572,0.287048 0.358073,0.616199 -0.07543,0.397274 0.0068,0.464046 0.330185,0.267948 0.236859,-0.143652 0.628375,-0.09488 0.870036,0.108383 0.390771,0.328678 0.45783,0.315969 0.606094,-0.114865 0.09169,-0.266438 0.361569,-0.447434 0.599729,-0.402213 z M 59.163806,35.0549 c -0.423424,-0.69816 -0.131975,-1.391094 0.596658,-1.418583 0.490102,-0.01849 0.703402,0.167701 0.79915,0.697584 0.09575,0.529882 -0.03891,0.778946 -0.504485,0.933144 -0.380942,0.126166 -0.737632,0.04127 -0.891323,-0.212145 z m 98.366544,0.748001 c -0.1339,-0.22078 -0.24066,-0.64489 -0.23724,-0.942466 0.005,-0.450083 0.2972,-0.593627 1.73699,-0.85379 1.73033,-0.312662 1.73081,-0.312521 1.8875,0.554625 0.15419,0.853343 0.13003,0.873639 -1.49354,1.255209 -1.256,0.295183 -1.70842,0.29194 -1.89371,-0.01358 z m 20.62995,-4.129068 c -0.0541,-0.299302 -0.33498,-0.762219 -0.62423,-1.028705 -0.91113,-0.839445 -0.74996,-1.121541 0.8009,-1.401774 0.97295,-0.175806 1.44134,-0.146857 1.39693,0.08633 -0.0464,0.243696 0.53728,0.225944 1.91143,-0.05813 l 1.97824,-0.40896 0.20513,1.135228 0.20513,1.135229 -1.95703,0.277801 c -1.73587,0.246407 -2.01,0.206727 -2.4257,-0.351121 l -0.46866,-0.628923 0.0266,0.705744 c 0.0326,0.863127 -0.90327,1.342549 -1.04878,0.537279 z m 6.59932,-1.440139 c -0.84995,-1.411237 -0.82342,-1.429871 2.92098,-2.051887 2.61591,-0.43455 3.46228,-0.66746 3.41304,-0.939217 -0.0762,-0.420845 0.66616,-0.624931 0.98468,-0.270682 0.11931,0.132688 0.2279,0.78483 0.24132,1.449205 0.0218,1.079002 -0.0621,1.223582 -0.78589,1.354371 -0.61045,0.110304 -0.87021,-0.0084 -1.05315,-0.481466 -0.23334,-0.603311 -0.24003,-0.60348 -0.17083,-0.0043 0.0611,0.528664 -0.11317,0.659664 -1.14487,0.860827 -0.66928,0.1305 -1.40848,0.129102 -1.64265,-0.0031 -0.30303,-0.171081 -0.40887,-0.146824 -0.36713,0.08415 0.0323,0.17857 -0.39969,0.407342 -0.96044,0.508667 -0.82789,0.149596 -1.09713,0.05456 -1.43506,-0.506534 z m -24.70774,2.3718 c -0.7385,-1.065024 -0.289,-2.164724 0.97844,-2.393744 0.56496,-0.102086 1.1189,-0.03424 1.23098,0.150769 0.24307,0.401208 7.99091,-1.006348 8.19758,-1.489258 0.0693,-0.161897 0.67975,-0.414696 1.35658,-0.561774 1.36878,-0.297438 1.94189,0.155619 1.52361,1.204441 -0.13085,0.32808 -0.20232,0.793432 -0.15883,1.034116 0.0435,0.240683 -0.11608,0.47287 -0.35461,0.515971 -0.29098,0.05258 -0.48626,-0.212654 -0.59349,-0.806066 -0.0936,-0.518152 -0.26657,-0.788441 -0.41759,-0.652651 -0.14178,0.127478 -0.12122,0.533759 0.0457,0.902848 0.30301,0.670094 0.30014,0.671615 -1.97446,1.046054 -1.25285,0.20624 -2.46387,0.275256 -2.69116,0.153366 -0.25683,-0.137732 -0.39426,-0.116509 -0.36307,0.05607 0.0288,0.159235 -1.31135,0.534841 -3.14163,0.880526 -3.10931,0.587257 -3.20333,0.586205 -3.63802,-0.04067 z m 1.68291,-1.364015 c -0.63004,-0.112487 -1.0635,0.334605 -0.70786,0.730128 0.17118,0.190392 0.39887,0.13549 0.74647,-0.179992 0.46332,-0.420531 0.46048,-0.461026 -0.0386,-0.550136 z m 2.84457,-8.612596 c -0.067,-0.357371 -0.24616,-0.913969 -0.39852,-1.236828 -0.26656,-0.564835 -0.18432,-0.604339 2.17622,-1.045411 2.37603,-0.443966 2.46299,-0.436844 2.76282,0.226217 0.4724,1.044697 0.21405,1.284034 -1.66039,1.538178 -1.17253,0.158978 -1.74979,0.358119 -1.79968,0.620849 -0.12749,0.671429 -0.95032,0.592984 -1.08045,-0.103005 z m 3.9812,-1.699272 c -0.36017,-0.593862 -0.73982,-0.393366 -0.44754,0.236353 0.13984,0.301303 0.35165,0.460257 0.47068,0.353233 0.11903,-0.107025 0.10861,-0.372338 -0.0231,-0.589586 z"
     style="fill:#000000" /></g><g
   id="g3756"
   transform="matrix(1.3873449,0,0,1.3873449,-311.37791,111.2507)"><g
     transform="matrix(0.1650937,0,0,0.1650937,-178.39008,-189.45241)"
     id="g3752"
     style="fill:#b3b3b3;overflow:inherit"><g
       id="g3761"
       transform="matrix(-0.18845005,-1.1333023,1.1333023,-0.18845005,1759.42,4114.2728)"><path
         id="path3742"
         d="m 2443.834,1412.302 -63.269,107.387 36.144,0.319 c -4.54,45.865 -24.607,88.44 -57.581,121.412 -37.774,37.775 -87.998,58.579 -141.42,58.579 -53.422,0 -103.646,-20.804 -141.421,-58.578 -9.764,-9.764 -25.592,-9.764 -35.355,0 -9.763,9.763 -9.763,25.593 0,35.355 47.219,47.219 109.999,73.223 176.776,73.223 66.777,0 129.558,-26.005 176.775,-73.224 42.307,-42.305 67.63,-97.256 72.398,-156.324 l 38.325,0.338 -61.372,-108.487 z"
         inkscape:connector-curvature="0"
         style="fill:#b3b3b3" /><path
         id="path3744"
         d="m 2018.381,1483.539 c 3.808,-47.211 23.99,-91.043 57.905,-124.959 37.774,-37.775 87.999,-58.579 141.421,-58.579 53.422,0 103.646,20.804 141.422,58.579 9.764,9.763 25.592,9.763 35.355,0 9.763,-9.763 9.763,-25.592 0,-35.355 -47.219,-47.219 -110,-73.224 -176.777,-73.224 -66.777,0 -129.558,26.005 -176.776,73.224 -43.485,43.485 -68.921,100.009 -72.719,160.758 l -38.325,0.339 63.282,107.385 61.359,-108.488 -36.147,0.32 z"
         inkscape:connector-curvature="0"
         style="fill:#b3b3b3" /></g></g></g><text
   transform="scale(1,-1)"
   xml:space="preserve"
   style="font-size:17.06075287px;font-style:normal;font-weight:normal;line-height:125%;letter-spacing:0px;word-spacing:0px;fill:#000000;fill-opacity:1;stroke:none;font-family:Sans"
   x="-12.666277"
   y="-140.50734"
   id="text3122"
   sodipodi:linespacing="125%"><tspan
     style="font-style:normal;font-variant:normal;font-weight:normal;font-stretch:normal;font-family:Droid Sans Mono;-inkscape-font-specification:Droid Sans Mono"
     sodipodi:role="line"
     id="tspan3124"
     x="-12.666277"
     y="-140.50734" /></text>





<path
   style="fill:#000000"
   inkscape:connector-curvature="0"
   id="path116-3"
   d="m 229.5617,133.31336 c 0,0 -6.14971,9.09725 -7.08887,18.8647 -0.93915,9.76635 -0.49272,20.98662 0.44643,23.05343 0.93916,2.0657 4.8468,3.37633 4.8468,3.37633 l 2.36002,25.34955 h 5.44645 v -22.53538 h 1.50243 v 22.53428 h 4.50729 l 3.00597,-25.84226 c 0,0 5.06946,-1.84194 5.82012,-3.71915 0.75177,-1.87832 -0.57429,-18.01042 -1.22024,-23.46348 -1.50243,-12.6709 -6.10342,-17.44164 -6.10342,-17.44164 v 32.11539 l -13.52188,0.37479 v -32.66655 z" /><polygon
   transform="matrix(1.1022964,0,0,1.1022964,182.99739,98.432285)"
   style="fill:#000000"
   id="polygon128-0"
   points="41.562,99.82 47.695,99.82 47.695,97.095 42.887,97.095 " /><polygon
   transform="matrix(1.1022964,0,0,1.1022964,182.99739,98.432285)"
   style="fill:#000000"
   id="polygon130-3"
   points="53.829,99.82 49.058,99.82 49.058,97.095 52.502,97.095 " />

<g
   id="g3242"
   transform="matrix(0.18067767,0,0,0.18067767,226.96802,138.54162)">
	<path
   id="path3244"
   d="m 82.822,75.221 c -0.209,-1.529 -0.461,-3.039 -0.818,-4.525 -0.367,-1.482 -0.771,-2.953 -1.313,-4.396 -0.52,-1.451 -1.135,-2.879 -1.912,-4.305 -0.381,-0.717 -0.822,-1.424 -1.355,-2.15 -0.266,-0.365 -0.561,-0.734 -0.91,-1.117 -0.18,-0.191 -0.371,-0.387 -0.594,-0.584 -0.113,-0.1 -0.234,-0.199 -0.365,-0.301 -0.131,-0.1 -0.262,-0.197 -0.482,-0.344 L 75.003,57.454 74.974,57.438 74.913,57.409 74.898,57.4 c 0.053,0.037 -0.092,-0.059 -0.086,-0.053 l -0.049,-0.025 -0.096,-0.047 c -0.127,-0.064 -0.256,-0.125 -0.389,-0.18 -0.264,-0.115 -0.539,-0.211 -0.816,-0.291 -0.557,-0.16 -1.129,-0.256 -1.684,-0.26 -1.115,-0.018 -2.123,0.23 -2.977,0.592 -0.533,0.234 -1.016,0.506 -1.463,0.797 v -2.5 c 0,-5.593 -9.498,-8.064 -21.218,-8.064 -11.718,0 -20.435,3.342 -21.218,8.064 v 39.75 c 0,0.424 0.017,0.826 0.041,1.219 0.03,0.484 0.081,0.938 0.148,1.373 1.373,3.512 10.261,6.225 21.031,6.225 10.771,0 19.659,-2.713 21.028,-6.225 0.068,-0.436 0.119,-0.889 0.148,-1.373 0.025,-0.393 0.041,-0.795 0.041,-1.219 V 93.93 c 0.777,0.271 1.57,0.484 2.363,0.641 0.428,0.082 0.809,0.148 1.273,0.203 l 0.604,0.072 0.266,0.031 0.428,0.021 c 1.059,0.039 2.219,-0.111 3.355,-0.514 1.131,-0.398 2.217,-1.045 3.066,-1.84 0.859,-0.787 1.525,-1.672 2.049,-2.551 1.043,-1.77 1.527,-3.529 1.885,-5.199 0.32,-1.682 0.434,-3.307 0.467,-4.898 0.001,-1.587 -0.099,-3.144 -0.273,-4.675 z M 64.438,54.916 c -0.111,0.301 -0.273,0.572 -0.463,0.822 -0.082,0.109 -0.17,0.219 -0.266,0.32 -1.945,1.988 -8.6,3.465 -16.572,3.516 -0.145,0.002 -0.288,0.004 -0.434,0.004 -0.542,0 -1.079,-0.008 -1.608,-0.021 -7.676,-0.188 -13.924,-1.699 -15.556,-3.678 -0.063,-0.08 -0.125,-0.164 -0.182,-0.252 -0.005,-0.008 -0.011,-0.014 -0.015,-0.021 -0.011,-0.02 -0.021,-0.037 -0.032,-0.057 -0.109,-0.174 -0.204,-0.357 -0.277,-0.551 -0.321,-0.885 -0.128,-1.848 0.303,-2.605 -0.267,0.693 -0.377,1.463 -0.174,2.145 0.607,-2.46 8.225,-4.406 17.541,-4.406 9.391,0 17.061,1.977 17.559,4.464 0.266,-0.715 0.16,-1.544 -0.127,-2.285 0.431,0.757 0.625,1.721 0.303,2.605 z m 13.683,29.088 c -0.234,1.357 -0.605,2.699 -1.24,3.885 -0.629,1.186 -1.574,2.195 -2.791,2.684 -0.604,0.25 -1.262,0.369 -1.926,0.393 -0.68,0.01 -1.381,-0.02 -2.063,-0.09 -0.938,-0.09 -1.865,-0.277 -2.762,-0.553 V 60.455 c 0.682,-0.381 1.391,-0.691 2.127,-0.885 0.65,-0.174 1.318,-0.248 1.963,-0.166 0.645,0.078 1.266,0.326 1.787,0.699 0.471,0.363 0.879,0.947 1.223,1.525 0.348,0.588 0.646,1.213 0.922,1.852 1.078,2.563 1.793,5.295 2.313,8.043 0.508,2.752 0.803,5.551 0.773,8.336 -0.006,1.393 -0.095,2.784 -0.326,4.145 z"
   inkscape:connector-curvature="0" />
	<path
   id="path3246"
   d="m 32.456,45.153 c 1.078,-2.23 1.236,-4.616 1.001,-6.887 -0.271,-2.281 -0.968,-4.502 -1.93,-6.627 -1.024,-2.263 -1.804,-4.855 -1.638,-7.491 0.117,-2.597 1.32,-5.313 3.515,-6.597 -1.498,1.987 -1.91,4.354 -1.737,6.588 0.2,2.263 0.931,4.431 1.942,6.58 1.003,2.327 1.697,4.874 1.617,7.479 -0.061,2.558 -0.888,5.261 -2.77,6.955 z"
   inkscape:connector-curvature="0" />
	<path
   id="path3248"
   d="m 43.032,43.553 c 1.719,-3.08 2.091,-6.567 1.817,-9.884 C 44.537,30.33 43.54,27.077 42.153,23.988 40.689,20.77 39.581,17.147 39.739,13.451 39.844,9.809 41.397,5.992 44.39,4 c -2.296,2.695 -3.058,6.163 -2.875,9.442 0.208,3.324 1.266,6.522 2.718,9.626 1.43,3.291 2.423,6.87 2.384,10.533 -0.022,3.604 -1.062,7.408 -3.585,9.952 z"
   inkscape:connector-curvature="0" />
	<path
   id="path3250"
   d="m 55.363,45.438 c 1.107,-2.271 1.277,-4.708 1.039,-7.03 -0.271,-2.332 -0.984,-4.602 -1.965,-6.772 -1.044,-2.308 -1.841,-4.949 -1.675,-7.635 0.116,-2.646 1.335,-5.416 3.568,-6.733 -1.535,2.021 -1.964,4.44 -1.791,6.724 0.201,2.313 0.947,4.53 1.979,6.726 1.023,2.372 1.732,4.969 1.654,7.624 -0.061,2.606 -0.897,5.361 -2.809,7.096 z"
   inkscape:connector-curvature="0" />
</g><g
   id="g4163"
   transform="matrix(1.0033215,0,0,1.0033215,-85.969483,116.52603)"><path
   inkscape:connector-curvature="0"
   d="M 232.5555,5.1258179 H 202.34153 V 58.887317 h 42.47159 L 244.81365,16.800126 232.5555,5.1258179 z m 0.96824,5.3766871 5.64442,5.375611 -5.64442,0 V 10.502505 z M 205.56723,55.661627 V 8.3515078 h 24.73082 V 19.103808 l 11.28991,0 -5.3e-4,36.557819 h -36.0202 z"
   id="path3311" /><text
   sodipodi:linespacing="125%"
   id="text3320"
   y="32.212448"
   x="209.84309"
   style="font-size:8.02513409px;font-style:normal;font-weight:normal;line-height:125%;letter-spacing:0px;word-spacing:0px;fill:#000000;fill-opacity:1;stroke:none;font-family:Sans"
   xml:space="preserve"><tspan
     style="font-style:normal;font-variant:normal;font-weight:normal;font-stretch:normal;font-family:VolkswagenTS-Regular;-inkscape-font-specification:VolkswagenTS-Regular"
     y="32.212448"
     x="209.84309"
     id="tspan3322"
     sodipodi:role="line">BPMN</tspan><tspan
     style="font-style:normal;font-variant:normal;font-weight:normal;font-stretch:normal;font-family:VolkswagenTS-Regular;-inkscape-font-specification:VolkswagenTS-Regular"
     id="tspan3324"
     y="42.243866"
     x="209.84309"
     sodipodi:role="line">2.0 XML</tspan></text>







</g>

<rect
   style="opacity:0.86000001;fill:#b3b3b3"
   id="rect3366"
   width="203.86249"
   height="47.527466"
   x="33.48811"
   y="22.638636"
   rx="20"
   ry="20" /><text
   xml:space="preserve"
   style="font-size:19.84412766px;font-style:normal;font-weight:normal;line-height:125%;letter-spacing:0px;word-spacing:0px;fill:#000000;fill-opacity:1;stroke:#000000;stroke-width:1;stroke-miterlimit:4;stroke-opacity:1;stroke-dasharray:none;font-family:Sans"
   x="108.50951"
   y="51.335728"
   id="text3360"
   sodipodi:linespacing="125%"><tspan
     sodipodi:role="line"
     x="108.50951"
     y="51.335728"
     id="tspan3364"
     style="font-style:normal;font-variant:normal;font-weight:normal;font-stretch:normal;stroke:#000000;stroke-width:1;stroke-miterlimit:4;stroke-opacity:1;stroke-dasharray:none;font-family:VolkswagenTS-Regular;-inkscape-font-specification:VolkswagenTS-Regular">BPMN</tspan></text>








<text
   xml:space="preserve"
   style="font-size:8.57951832px;font-style:normal;font-weight:normal;line-height:125%;letter-spacing:0px;word-spacing:0px;fill:#333333;fill-opacity:1;stroke:none;font-family:Sans"
   x="99.860069"
   y="61.669128"
   id="text3639"
   sodipodi:linespacing="125%"><tspan
     sodipodi:role="line"
     id="tspan3641"
     x="99.860069"
     y="61.669128"
     style="font-style:normal;font-variant:normal;font-weight:normal;font-stretch:normal;fill:#333333;font-family:VolkswagenTS-Regular;-inkscape-font-specification:VolkswagenTS-Regular">for Business and IT</tspan></text>


<path
   style="fill:#000000;stroke:#010101;stroke-width:2.21020246;stroke-miterlimit:10"
   inkscape:connector-curvature="0"
   id="path114-0"
   d="M 47.946094,128.14386"
   stroke-miterlimit="10" /><path
   style="fill:#000000"
   inkscape:connector-curvature="0"
   id="path116-1"
   d="m 34.535691,133.55885 c 0,0 -6.16536,9.12041 -7.106906,18.91271 -0.941546,9.7912 -0.49398,21.04001 0.447566,23.11208 0.941546,2.07095 4.85913,3.38492 4.85913,3.38492 l 2.366021,25.41397 h 5.460305 v -22.59265 h 1.506253 v 22.59154 h 4.518759 l 3.013611,-25.90795 c 0,0 5.082361,-1.84662 5.834934,-3.72861 0.753679,-1.88309 -0.575757,-18.05625 -1.223347,-23.52318 -1.506252,-12.70314 -6.118945,-17.48601 -6.118945,-17.48601 v 32.19712 l -13.556276,0.37573 v -32.74967 z" /><polygon
   style="fill:#000000"
   id="polygon124-1"
   points="46.828,31.671 48.933,31.671 49.624,32.805 48.709,36.805 50.038,51.674 47.623,57.565 45.949,51.624 46.828,36.653 45.949,33.113 "
   transform="matrix(1.1051012,0,0,1.1051012,-12.147105,98.589031)" /><path
   style="fill:#000000"
   inkscape:connector-curvature="0"
   id="path126"
   d="m 58.704519,111.4252 c 0,0 0,0 -3.570582,-5.48683 -3.570582,-5.48572 -12.488749,-7.302499 -12.488749,-7.302499 l -2.066539,1.928399 c -0.413308,0.0597 -0.8233,0.1293 -1.228872,0.21991 -0.48293,-0.23428 -1.452103,-0.44977 -3.272205,-0.57575 -5.707848,-0.392309 -11.017859,11.60908 -11.017859,11.60908 l 2.236725,1.02664 c -0.119351,0.6929 -0.201129,1.39574 -0.201129,2.10964 0,8.43855 5.662539,14.56302 13.463448,14.56302 8.343514,0 15.661495,-6.80521 15.661495,-14.56302 0,-0.96144 -0.08178,-1.88751 -0.224336,-2.78265 l 2.708603,-0.74594 z m -18.144657,14.77631 c -5.880243,0 -10.148144,-4.72983 -10.148144,-11.24772 0,-5.88577 5.883559,-11.24661 12.345086,-11.24661 5.881348,0 10.149249,4.72983 10.149249,11.24661 0,5.88687 -5.885769,11.24772 -12.346191,11.24772 z" /><polygon
   style="fill:#000000"
   id="polygon128-4"
   points="41.562,99.82 47.695,99.82 47.695,97.095 42.887,97.095 "
   transform="matrix(1.1051012,0,0,1.1051012,-12.147105,98.589031)" /><polygon
   style="fill:#000000"
   id="polygon130-4"
   points="53.829,99.82 49.058,99.82 49.058,97.095 52.502,97.095 "
   transform="matrix(1.1051012,0,0,1.1051012,-12.147105,98.589031)" /><text
   transform="scale(-1,-1)"
   xml:space="preserve"
   style="font-size:18.30989075px;font-style:normal;font-weight:normal;line-height:125%;letter-spacing:0px;word-spacing:0px;fill:#000000;fill-opacity:1;stroke:none;font-family:Sans"
   x="-45.990906"
   y="-107.98391"
   id="text3122-0"
   sodipodi:linespacing="125%"><tspan
     style="font-style:normal;font-variant:normal;font-weight:normal;font-stretch:normal;font-family:VolkswagenTS-Regular;-inkscape-font-specification:VolkswagenTS-Regular"
     sodipodi:role="line"
     id="tspan3124-5"
     x="-45.990906"
     y="-107.98391">$</tspan></text>

<path
   style="fill:#000000;stroke:#010101;stroke-width:2.21020246;stroke-miterlimit:10"
   inkscape:connector-curvature="0"
   id="path114-0-5"
   d="M 242.78627,129.00784"
   stroke-miterlimit="10" /><path
   style="fill:#000000"
   inkscape:connector-curvature="0"
   id="path126-7"
   d="m 253.54469,112.28918 c 0,0 0,0 -3.57058,-5.48683 -3.57058,-5.48572 -12.48875,-7.302503 -12.48875,-7.302503 l -2.06654,1.928403 c -0.4133,0.0597 -0.8233,0.1293 -1.22887,0.21991 -0.48293,-0.23428 -1.4521,-0.44977 -3.2722,-0.57575 -5.70785,-0.39231 -11.01786,11.60908 -11.01786,11.60908 l 2.23672,1.02664 c -0.11935,0.6929 -0.20113,1.39574 -0.20113,2.10964 0,8.43855 5.66254,14.56302 13.46345,14.56302 8.34352,0 15.6615,-6.80521 15.6615,-14.56302 0,-0.96144 -0.0818,-1.88751 -0.22434,-2.78265 l 2.7086,-0.74594 z m -18.14465,14.77631 c -5.88025,0 -10.14815,-4.72983 -10.14815,-11.24772 0,-5.88577 5.88356,-11.24661 12.34509,-11.24661 5.88135,0 10.14925,4.72983 10.14925,11.24661 0,5.88687 -5.88577,11.24772 -12.34619,11.24772 z" /><text
   xml:space="preserve"
   style="font-size:11.05132294px;font-style:normal;font-weight:normal;line-height:125%;letter-spacing:0px;word-spacing:0px;fill:#000000;fill-opacity:1;stroke:none;font-family:Sans"
   x="226.36267"
   y="118.94936"
   id="text3439"
   sodipodi:linespacing="125%"><tspan
     sodipodi:role="line"
     id="tspan3441"
     x="226.36267"
     y="118.94936"
     style="font-style:normal;font-variant:normal;font-weight:bold;font-stretch:normal;font-family:Courier New;-inkscape-font-specification:Courier New Bold">&lt;/&gt;</tspan></text>

<g
   id="g4962"
   transform="matrix(0.23131382,0,0,0.08742424,29.747045,21.125754)"
   style="display:none"><rect
     y="402.5"
     x="639.88263"
     height="16"
     width="16"
     id="rect3816"
     style="fill:none;stroke:#000000;stroke-width:2.5;stroke-miterlimit:4;stroke-opacity:1;stroke-dasharray:none" /><rect
     y="418.5"
     x="639.88263"
     height="15.999992"
     width="16"
     id="rect3818"
     style="fill:none;stroke:#000000;stroke-width:2.5;stroke-miterlimit:4;stroke-opacity:1;stroke-dasharray:none" /><rect
     ry="0"
     y="402.62427"
     x="655.88263"
     height="31.875721"
     width="32"
     id="rect3820"
     style="fill:none;stroke:#000000;stroke-width:2.5;stroke-miterlimit:4;stroke-opacity:1;stroke-dasharray:none" /><rect
     y="354.5"
     x="639.88263"
     height="48"
     width="48"
     id="rect3822"
     style="fill:none;stroke:#000000;stroke-width:2.5;stroke-miterlimit:4;stroke-opacity:1;stroke-dasharray:none" /><rect
     y="354.5"
     x="559.88263"
     height="80"
     width="80"
     id="rect3824"
     style="fill:none;stroke:#000000;stroke-width:2.5;stroke-miterlimit:4;stroke-opacity:1;stroke-dasharray:none" /><rect
     y="434.09052"
     x="559.88263"
     height="128.40947"
     width="128"
     id="rect3826"
     style="fill:none;stroke:#000000;stroke-width:2.5;stroke-miterlimit:4;stroke-opacity:1;stroke-dasharray:none" /><rect
     y="354.60815"
     x="687.85284"
     height="207.78374"
     width="208.14717"
     id="rect3828"
     style="fill:none;stroke:#000000;stroke-width:2.5;stroke-miterlimit:4;stroke-opacity:1;stroke-dasharray:none" /><path
     transform="translate(255.8826,648.3125)"
     sodipodi:open="true"
     sodipodi:end="3.1415927"
     sodipodi:start="1.5707963"
     d="m 400,-213.81247 a 16,16 0 0 1 -16,-16"
     sodipodi:ry="16"
     sodipodi:rx="16"
     sodipodi:cy="-229.81247"
     sodipodi:cx="400"
     id="path4723"
     style="fill:none;stroke:#000000;stroke-width:5;stroke-miterlimit:4;stroke-opacity:1;stroke-dasharray:none"
     sodipodi:type="arc" /><path
     transform="translate(255.8826,648.3125)"
     sodipodi:open="true"
     sodipodi:end="1.5707963"
     sodipodi:start="0"
     d="m 432,-245.81247 a 32,32 0 0 1 -32,32"
     sodipodi:ry="32"
     sodipodi:rx="32"
     sodipodi:cy="-245.81247"
     sodipodi:cx="400"
     id="path4727"
     style="fill:none;stroke:#000000;stroke-width:5;stroke-miterlimit:4;stroke-opacity:1;stroke-dasharray:none"
     sodipodi:type="arc" /><path
     transform="translate(255.8826,648.3125)"
     sodipodi:open="true"
     sodipodi:end="6.2831853"
     sodipodi:start="4.712389"
     d="m 384,-293.81247 a 48,48 0 0 1 48,48"
     sodipodi:ry="48"
     sodipodi:rx="48"
     sodipodi:cy="-245.81247"
     sodipodi:cx="384"
     id="path4729"
     style="fill:none;stroke:#000000;stroke-width:5;stroke-miterlimit:4;stroke-opacity:1;stroke-dasharray:none"
     sodipodi:type="arc" /><path
     transform="translate(255.8826,648.3125)"
     sodipodi:open="true"
     sodipodi:end="4.712389"
     sodipodi:start="3.1415927"
     d="m 304,-213.81247 a 80,80 0 0 1 80,-80"
     sodipodi:ry="80"
     sodipodi:rx="80"
     sodipodi:cy="-213.81247"
     sodipodi:cx="384"
     id="path4731"
     style="fill:none;stroke:#000000;stroke-width:5;stroke-miterlimit:4;stroke-opacity:1;stroke-dasharray:none"
     sodipodi:type="arc" /><path
     transform="translate(255.8826,648.3125)"
     sodipodi:open="true"
     sodipodi:end="3.1415927"
     sodipodi:start="1.5707963"
     d="M 432,-85.812469 A 128,128 0 0 1 304,-213.81248"
     sodipodi:ry="128"
     sodipodi:rx="128"
     sodipodi:cy="-213.81247"
     sodipodi:cx="432"
     id="path4735"
     style="fill:none;stroke:#000000;stroke-width:5;stroke-miterlimit:4;stroke-opacity:1;stroke-dasharray:none"
     sodipodi:type="arc" /><path
     transform="translate(255.8826,648.3125)"
     sodipodi:open="true"
     sodipodi:end="1.5707963"
     sodipodi:start="0"
     d="M 640,-293.81247 A 208,208 0 0 1 432.00001,-85.812469"
     sodipodi:ry="208"
     sodipodi:rx="208"
     sodipodi:cy="-293.81247"
     sodipodi:cx="432"
     id="path4737"
     style="fill:none;stroke:#000000;stroke-width:5;stroke-miterlimit:4;stroke-opacity:1;stroke-dasharray:none"
     sodipodi:type="arc" /><rect
     y="18.5"
     x="560"
     height="336"
     width="336"
     id="rect2783"
     style="fill:none;stroke:#000000;stroke-width:2.5;stroke-miterlimit:4;stroke-opacity:1;stroke-dasharray:none" /><rect
     y="18.5"
     x="16"
     height="544"
     width="544"
     id="rect2785"
     style="fill:none;stroke:#000000;stroke-width:2.5;stroke-miterlimit:4;stroke-opacity:1;stroke-dasharray:none" /><path
     sodipodi:open="true"
     sodipodi:end="4.712389"
     sodipodi:start="3.1415927"
     d="M 16,562.49997 A 544,544 0 0 1 560.00001,18.5"
     sodipodi:ry="544"
     sodipodi:rx="544"
     sodipodi:cy="562.5"
     sodipodi:cx="560"
     id="path2795"
     style="fill:none;stroke:#000000;stroke-width:5;stroke-miterlimit:4;stroke-opacity:1;stroke-dasharray:none"
     sodipodi:type="arc" /><path
     sodipodi:open="true"
     sodipodi:end="6.2831853"
     sodipodi:start="4.712389"
     d="M 560.00001,18.5 A 336,336 0 0 1 896,354.5"
     sodipodi:ry="336"
     sodipodi:rx="336"
     sodipodi:cy="354.5"
     sodipodi:cx="560"
     id="path2797"
     style="fill:none;stroke:#000000;stroke-width:5;stroke-miterlimit:4;stroke-opacity:1;stroke-dasharray:none"
     sodipodi:type="arc" /></g></svg>