<svg xmlns="http://www.w3.org/2000/svg" xmlns:xlink="http://www.w3.org/1999/xlink" width="44cm" height="28cm" viewBox="178 -242 873 546"><rect width="230" height="90" x="500" y="-80" style="fill:none;fill-opacity:0;stroke-width:2;stroke:#000"/><text x="615" y="-38.919" font-size="14.111" style="fill:#000;text-anchor:middle;font-family:sans-serif;font-style:normal;font-weight:700"><tspan x="615" y="-38.919">Executions</tspan> <tspan x="615" y="-21.281">(ACT_RU_EXECUTION)</tspan></text><g><rect width="230" height="90" x="180" y="-80" style="fill:none;fill-opacity:0;stroke-width:2;stroke:#000"/><text x="295" y="-38.919" font-size="14.111" style="fill:#000;text-anchor:middle;font-family:sans-serif;font-style:normal;font-weight:700"><tspan x="295" y="-38.919">Process Definitions</tspan> <tspan x="295" y="-21.281">(ACT_RE_PROCDEF)</tspan></text></g><g><rect width="230" height="90" x="820" y="-80" style="fill:none;fill-opacity:0;stroke-width:2;stroke:#000"/><text x="935" y="-38.919" font-size="14.111" style="fill:#000;text-anchor:middle;font-family:sans-serif;font-style:normal;font-weight:700"><tspan x="935" y="-38.919">Variables</tspan> <tspan x="935" y="-21.281">(ACT_RU_VARIABLE)</tspan></text></g><g><rect width="230" height="90" x="500" y="-240" style="fill:none;fill-opacity:0;stroke-width:2;stroke:#000"/><text x="615" y="-198.919" font-size="14.111" style="fill:#000;text-anchor:middle;font-family:sans-serif;font-style:normal;font-weight:700"><tspan x="615" y="-198.919">Event Subscriptions</tspan> <tspan x="615" y="-181.281">(ACT_RU_EVENT_SUBSCR)</tspan></text></g><line x1="500" x2="730" y1="10" y2="10" style="fill:none;fill-opacity:0;stroke-width:2;stroke:#000"/><rect width="230" height="90" x="500" y="140" style="fill:none;fill-opacity:0;stroke-width:2;stroke:#000"/><text x="615" y="181.081" font-size="14.111" style="fill:#000;text-anchor:middle;font-family:sans-serif;font-style:normal;font-weight:700"><tspan x="615" y="181.081">Tasks</tspan> <tspan x="615" y="198.719">(ACT_RU_TASK)</tspan></text><line x1="500" x2="730" y1="230" y2="230" style="fill:none;fill-opacity:0;stroke-width:2;stroke:#000"/><line x1="500" x2="730" y1="140" y2="140" style="fill:none;fill-opacity:0;stroke-width:2;stroke:#000"/><g><line x1="615" x2="615" y1="-80" y2="-145.528" style="fill:none;fill-opacity:0;stroke-width:2;stroke:#000"/><polyline points="620 -137.764 615 -147.764 610 -137.764" style="fill:none;fill-opacity:0;stroke-width:2;stroke:#000"/></g><text x="626.202" y="-132.265" font-size="12.8" style="fill:#000;text-anchor:start;font-family:sans-serif;font-style:normal;font-weight:400"><tspan x="626.202" y="-132.265">*</tspan></text><text x="626.982" y="-87.111" font-size="12.8" style="fill:#000;text-anchor:start;font-family:sans-serif;font-style:normal;font-weight:400"><tspan x="626.982" y="-87.111">1</tspan></text><g><line x1="730" x2="815.528" y1="-35" y2="-35" style="fill:none;fill-opacity:0;stroke-width:2;stroke:#000"/><polyline points="807.764 -30 817.764 -35 807.764 -40" style="fill:none;fill-opacity:0;stroke-width:2;stroke:#000"/></g><text x="735.072" y="-43.723" font-size="12.8" style="fill:#000;text-anchor:start;font-family:sans-serif;font-style:normal;font-weight:400"><tspan x="735.072" y="-43.723">0..1</tspan></text><text x="802.682" y="-43.178" font-size="12.8" style="fill:#000;text-anchor:start;font-family:sans-serif;font-style:normal;font-weight:400"><tspan x="802.682" y="-43.178">*</tspan></text><g><polyline points="730 185 935 185 935 14.472" style="fill:none;fill-opacity:0;stroke-width:2;stroke:#000"/><polyline points="940 22.236 935 12.236 930 22.236" style="fill:none;fill-opacity:0;stroke-width:2;stroke:#000"/></g><text x="735.616" y="177.922" font-size="12.8" style="fill:#000;text-anchor:start;font-family:sans-serif;font-style:normal;font-weight:400"><tspan x="735.616" y="177.922">0..1</tspan></text><text x="917.186" y="34.52" font-size="12.8" style="fill:#000;text-anchor:start;font-family:sans-serif;font-style:normal;font-weight:400"><tspan x="917.186" y="34.52">*</tspan></text><g><polyline points="576.666 230 576.666 303.806 653.334 303.806 653.334 234.472" style="fill:none;fill-opacity:0;stroke-width:2;stroke:#000"/><polyline points="658.334 242.236 653.334 232.236 648.334 242.236" style="fill:none;fill-opacity:0;stroke-width:2;stroke:#000"/></g><text x="582.946" y="249.622" font-size="12.8" style="fill:#000;text-anchor:start;font-family:sans-serif;font-style:normal;font-weight:400"><tspan x="582.946" y="249.622">0..1</tspan></text><text x="668.006" y="249.622" font-size="12.8" style="fill:#000;text-anchor:start;font-family:sans-serif;font-style:normal;font-weight:400"><tspan x="668.006" y="249.622">*</tspan></text><g><polyline points="615 10 615 80.526 672.5 80.526 672.5 14.472" style="fill:none;fill-opacity:0;stroke-width:2;stroke:#000"/><polyline points="677.5 22.236 672.5 12.236 667.5 22.236" style="fill:none;fill-opacity:0;stroke-width:2;stroke:#000"/></g><text x="621.114" y="29.068" font-size="12.8" style="fill:#000;text-anchor:start;font-family:sans-serif;font-style:normal;font-weight:400"><tspan x="621.114" y="29.068">0..1</tspan></text><text x="684.362" y="28.523" font-size="12.8" style="fill:#000;text-anchor:start;font-family:sans-serif;font-style:normal;font-weight:400"><tspan x="684.362" y="28.523">*</tspan></text><g><line x1="557.5" x2="557.5" y1="10" y2="135.528" style="fill:none;fill-opacity:0;stroke-width:2;stroke:#000"/><polyline points="552.5 127.764 557.5 137.764 562.5 127.764" style="fill:none;fill-opacity:0;stroke-width:2;stroke:#000"/></g><text x="530.056" y="29.068" font-size="12.8" style="fill:#000;text-anchor:start;font-family:sans-serif;font-style:normal;font-weight:400"><tspan x="530.056" y="29.068">0..1</tspan></text><text x="540.962" y="127.213" font-size="12.8" style="fill:#000;text-anchor:start;font-family:sans-serif;font-style:normal;font-weight:400"><tspan x="540.962" y="127.213">*</tspan></text><g><polyline points="295 10 295 185 495.528 185" style="fill:none;fill-opacity:0;stroke-width:2;stroke:#000"/><polyline points="487.764 190 497.764 185 487.764 180" style="fill:none;fill-opacity:0;stroke-width:2;stroke:#000"/></g><text x="305.958" y="29.613" font-size="12.8" style="fill:#000;text-anchor:start;font-family:sans-serif;font-style:normal;font-weight:400"><tspan x="305.958" y="29.613">0..1</tspan></text><text x="480.984" y="174.105" font-size="12.8" style="fill:#000;text-anchor:start;font-family:sans-serif;font-style:normal;font-weight:400"><tspan x="480.984" y="174.105">*</tspan></text><text x="481.528" y="-43.996" font-size="12.8" style="fill:#000;text-anchor:start;font-family:sans-serif;font-style:normal;font-weight:400"><tspan x="481.528" y="-43.996">*</tspan></text><g><line x1="410" x2="495.528" y1="-35" y2="-35" style="fill:none;fill-opacity:0;stroke-width:2;stroke:#000"/><polyline points="487.764 -30 497.764 -35 487.764 -40" style="fill:none;fill-opacity:0;stroke-width:2;stroke:#000"/></g><text x="416.644" y="-46.722" font-size="12.8" style="fill:#000;text-anchor:start;font-family:sans-serif;font-style:normal;font-weight:400"><tspan x="416.644" y="-46.722">1</tspan></text></svg>