<svg xmlns="http://www.w3.org/2000/svg" xmlns:svg="http://www.w3.org/2000/svg" id="svg2" width="744.094" height="1052.362" version="1.1"><defs id="defs4"><marker style="overflow:visible" id="TriangleOutL" orient="auto" refX="0" refY="0"><path style="fill-rule:evenodd;stroke:#000;stroke-width:1pt" id="path3903" d="M 5.77,0.0 L -2.88,5.0 L -2.88,-5.0 L 5.77,0.0 z" transform="scale(0.8)"/></marker><marker style="overflow:visible" id="Arrow1Send" orient="auto" refX="0" refY="0"><path style="fill-rule:evenodd;stroke:#000;stroke-width:1pt" id="path3776" d="M 0.0,0.0 L 5.0,-5.0 L -12.5,0.0 L 5.0,5.0 L 0.0,0.0 z" transform="scale(0.2) rotate(180) translate(6,0)"/></marker><marker style="overflow:visible" id="Arrow2Lend" orient="auto" refX="0" refY="0"><path style="fill-rule:evenodd;stroke-width:.625;stroke-linejoin:round" id="path3782" d="M 8.7185878,4.0337352 L -2.2072895,0.016013256 L 8.7185884,-4.0017078 C 6.9730900,-1.6296469 6.9831476,1.6157441 8.7185878,4.0337352 z" transform="scale(1.1) rotate(180) translate(1,0)"/></marker><marker style="overflow:visible" id="Arrow2Lend-3" orient="auto" refX="0" refY="0"><path style="fill-rule:evenodd;stroke-width:.625;stroke-linejoin:round" id="path3782-0" d="M 8.7185878,4.0337352 -2.2072895,0.01601326 8.7185884,-4.0017078 c -1.7454984,2.3720609 -1.7354408,5.6174519 -6e-7,8.035443 z" transform="matrix(-1.1,0,0,-1.1,-1.1,0)"/></marker><marker style="overflow:visible" id="Arrow2Lend-3-2" orient="auto" refX="0" refY="0"><path style="fill-rule:evenodd;stroke-width:.625;stroke-linejoin:round" id="path3782-0-9" d="M 8.7185878,4.0337352 -2.2072895,0.01601326 8.7185884,-4.0017078 c -1.7454984,2.3720609 -1.7354408,5.6174519 -6e-7,8.035443 z" transform="matrix(-1.1,0,0,-1.1,-1.1,0)"/></marker><marker style="overflow:visible" id="marker5157" orient="auto" refX="0" refY="0"><path style="fill-rule:evenodd;stroke-width:.625;stroke-linejoin:round" id="path5159" d="M 8.7185878,4.0337352 -2.2072895,0.01601326 8.7185884,-4.0017078 c -1.7454984,2.3720609 -1.7354408,5.6174519 -6e-7,8.035443 z" transform="matrix(-1.1,0,0,-1.1,-1.1,0)"/></marker><marker style="overflow:visible" id="marker5161" orient="auto" refX="0" refY="0"><path style="fill-rule:evenodd;stroke-width:.625;stroke-linejoin:round" id="path5163" d="M 8.7185878,4.0337352 -2.2072895,0.01601326 8.7185884,-4.0017078 c -1.7454984,2.3720609 -1.7354408,5.6174519 -6e-7,8.035443 z" transform="matrix(-1.1,0,0,-1.1,-1.1,0)"/></marker><marker style="overflow:visible" id="Arrow2Lend-3-9" orient="auto" refX="0" refY="0"><path style="fill-rule:evenodd;stroke-width:.625;stroke-linejoin:round" id="path3782-0-2" d="M 8.7185878,4.0337352 -2.2072895,0.01601326 8.7185884,-4.0017078 c -1.7454984,2.3720609 -1.7354408,5.6174519 -6e-7,8.035443 z" transform="matrix(-1.1,0,0,-1.1,-1.1,0)"/></marker><marker style="overflow:visible" id="Arrow2Lend-3-3" orient="auto" refX="0" refY="0"><path style="fill-rule:evenodd;stroke-width:.625;stroke-linejoin:round" id="path3782-0-7" d="M 8.7185878,4.0337352 -2.2072895,0.01601326 8.7185884,-4.0017078 c -1.7454984,2.3720609 -1.7354408,5.6174519 -6e-7,8.035443 z" transform="matrix(-1.1,0,0,-1.1,-1.1,0)"/></marker><marker style="overflow:visible" id="Arrow2Lend-3-91" orient="auto" refX="0" refY="0"><path style="fill-rule:evenodd;stroke-width:.625;stroke-linejoin:round" id="path3782-0-0" d="M 8.7185878,4.0337352 -2.2072895,0.01601326 8.7185884,-4.0017078 c -1.7454984,2.3720609 -1.7354408,5.6174519 -6e-7,8.035443 z" transform="matrix(-1.1,0,0,-1.1,-1.1,0)"/></marker><marker style="overflow:visible" id="marker5378" orient="auto" refX="0" refY="0"><path style="fill-rule:evenodd;stroke-width:.625;stroke-linejoin:round" id="path5380" d="M 8.7185878,4.0337352 -2.2072895,0.01601326 8.7185884,-4.0017078 c -1.7454984,2.3720609 -1.7354408,5.6174519 -6e-7,8.035443 z" transform="matrix(-1.1,0,0,-1.1,-1.1,0)"/></marker><marker style="overflow:visible" id="Arrow2Lend-3-0" orient="auto" refX="0" refY="0"><path style="fill-rule:evenodd;stroke-width:.625;stroke-linejoin:round" id="path3782-0-6" d="M 8.7185878,4.0337352 -2.2072895,0.01601326 8.7185884,-4.0017078 c -1.7454984,2.3720609 -1.7354408,5.6174519 -6e-7,8.035443 z" transform="matrix(-1.1,0,0,-1.1,-1.1,0)"/></marker><marker style="overflow:visible" id="marker5449" orient="auto" refX="0" refY="0"><path style="fill-rule:evenodd;stroke-width:.625;stroke-linejoin:round" id="path5451" d="M 8.7185878,4.0337352 -2.2072895,0.01601326 8.7185884,-4.0017078 c -1.7454984,2.3720609 -1.7354408,5.6174519 -6e-7,8.035443 z" transform="matrix(-1.1,0,0,-1.1,-1.1,0)"/></marker><marker style="overflow:visible" id="marker5449-0" orient="auto" refX="0" refY="0"><path style="fill-rule:evenodd;stroke-width:.625;stroke-linejoin:round" id="path5451-4" d="M 8.7185878,4.0337352 -2.2072895,0.01601326 8.7185884,-4.0017078 c -1.7454984,2.3720609 -1.7354408,5.6174519 -6e-7,8.035443 z" transform="matrix(-1.1,0,0,-1.1,-1.1,0)"/></marker><marker style="overflow:visible" id="marker6384" orient="auto" refX="0" refY="0"><path style="fill-rule:evenodd;stroke-width:.625;stroke-linejoin:round" id="path6386" d="M 8.7185878,4.0337352 -2.2072895,0.01601326 8.7185884,-4.0017078 c -1.7454984,2.3720609 -1.7354408,5.6174519 -6e-7,8.035443 z" transform="matrix(-1.1,0,0,-1.1,-1.1,0)"/></marker><marker style="overflow:visible" id="Arrow2Lend-3-31" orient="auto" refX="0" refY="0"><path style="fill-rule:evenodd;stroke-width:.625;stroke-linejoin:round" id="path3782-0-5" d="M 8.7185878,4.0337352 -2.2072895,0.01601326 8.7185884,-4.0017078 c -1.7454984,2.3720609 -1.7354408,5.6174519 -6e-7,8.035443 z" transform="matrix(-1.1,0,0,-1.1,-1.1,0)"/></marker><marker style="overflow:visible" id="marker6390" orient="auto" refX="0" refY="0"><path style="fill-rule:evenodd;stroke-width:.625;stroke-linejoin:round" id="path6392" d="M 8.7185878,4.0337352 -2.2072895,0.01601326 8.7185884,-4.0017078 c -1.7454984,2.3720609 -1.7354408,5.6174519 -6e-7,8.035443 z" transform="matrix(-1.1,0,0,-1.1,-1.1,0)"/></marker><marker style="overflow:visible" id="marker6394" orient="auto" refX="0" refY="0"><path style="fill-rule:evenodd;stroke-width:.625;stroke-linejoin:round" id="path6396" d="M 8.7185878,4.0337352 -2.2072895,0.01601326 8.7185884,-4.0017078 c -1.7454984,2.3720609 -1.7354408,5.6174519 -6e-7,8.035443 z" transform="matrix(-1.1,0,0,-1.1,-1.1,0)"/></marker><marker style="overflow:visible" id="marker6398" orient="auto" refX="0" refY="0"><path style="fill-rule:evenodd;stroke-width:.625;stroke-linejoin:round" id="path6400" d="M 8.7185878,4.0337352 -2.2072895,0.01601326 8.7185884,-4.0017078 c -1.7454984,2.3720609 -1.7354408,5.6174519 -6e-7,8.035443 z" transform="matrix(-1.1,0,0,-1.1,-1.1,0)"/></marker><marker style="overflow:visible" id="marker6402" orient="auto" refX="0" refY="0"><path style="fill-rule:evenodd;stroke-width:.625;stroke-linejoin:round" id="path6404" d="M 8.7185878,4.0337352 -2.2072895,0.01601326 8.7185884,-4.0017078 c -1.7454984,2.3720609 -1.7354408,5.6174519 -6e-7,8.035443 z" transform="matrix(-1.1,0,0,-1.1,-1.1,0)"/></marker><marker style="overflow:visible" id="marker6406" orient="auto" refX="0" refY="0"><path style="fill-rule:evenodd;stroke-width:.625;stroke-linejoin:round" id="path6408" d="M 8.7185878,4.0337352 -2.2072895,0.01601326 8.7185884,-4.0017078 c -1.7454984,2.3720609 -1.7354408,5.6174519 -6e-7,8.035443 z" transform="matrix(-1.1,0,0,-1.1,-1.1,0)"/></marker><marker style="overflow:visible" id="marker5449-1" orient="auto" refX="0" refY="0"><path style="fill-rule:evenodd;stroke-width:.625;stroke-linejoin:round" id="path5451-9" d="M 8.7185878,4.0337352 -2.2072895,0.01601326 8.7185884,-4.0017078 c -1.7454984,2.3720609 -1.7354408,5.6174519 -6e-7,8.035443 z" transform="matrix(-1.1,0,0,-1.1,-1.1,0)"/></marker><marker style="overflow:visible" id="marker5449-8" orient="auto" refX="0" refY="0"><path style="fill-rule:evenodd;stroke-width:.625;stroke-linejoin:round" id="path5451-7" d="M 8.7185878,4.0337352 -2.2072895,0.01601326 8.7185884,-4.0017078 c -1.7454984,2.3720609 -1.7354408,5.6174519 -6e-7,8.035443 z" transform="matrix(-1.1,0,0,-1.1,-1.1,0)"/></marker><marker style="overflow:visible" id="marker5449-4" orient="auto" refX="0" refY="0"><path style="fill-rule:evenodd;stroke-width:.625;stroke-linejoin:round" id="path5451-2" d="M 8.7185878,4.0337352 -2.2072895,0.01601326 8.7185884,-4.0017078 c -1.7454984,2.3720609 -1.7354408,5.6174519 -6e-7,8.035443 z" transform="matrix(-1.1,0,0,-1.1,-1.1,0)"/></marker><marker style="overflow:visible" id="Arrow2Lend-3-6" orient="auto" refX="0" refY="0"><path style="fill-rule:evenodd;stroke-width:.625;stroke-linejoin:round" id="path3782-0-3" d="M 8.7185878,4.0337352 -2.2072895,0.01601326 8.7185884,-4.0017078 c -1.7454984,2.3720609 -1.7354408,5.6174519 -6e-7,8.035443 z" transform="matrix(-1.1,0,0,-1.1,-1.1,0)"/></marker><marker style="overflow:visible" id="marker5449-06" orient="auto" refX="0" refY="0"><path style="fill-rule:evenodd;stroke-width:.625;stroke-linejoin:round" id="path5451-8" d="M 8.7185878,4.0337352 -2.2072895,0.01601326 8.7185884,-4.0017078 c -1.7454984,2.3720609 -1.7354408,5.6174519 -6e-7,8.035443 z" transform="matrix(-1.1,0,0,-1.1,-1.1,0)"/></marker><marker style="overflow:visible" id="marker5449-3" orient="auto" refX="0" refY="0"><path style="fill-rule:evenodd;stroke-width:.625;stroke-linejoin:round" id="path5451-83" d="M 8.7185878,4.0337352 -2.2072895,0.01601326 8.7185884,-4.0017078 c -1.7454984,2.3720609 -1.7354408,5.6174519 -6e-7,8.035443 z" transform="matrix(-1.1,0,0,-1.1,-1.1,0)"/></marker><marker style="overflow:visible" id="Arrow2Lend-3-8" orient="auto" refX="0" refY="0"><path style="fill-rule:evenodd;stroke-width:.625;stroke-linejoin:round" id="path3782-0-67" d="M 8.7185878,4.0337352 -2.2072895,0.01601326 8.7185884,-4.0017078 c -1.7454984,2.3720609 -1.7354408,5.6174519 -6e-7,8.035443 z" transform="matrix(-1.1,0,0,-1.1,-1.1,0)"/></marker><marker style="overflow:visible" id="marker6771" orient="auto" refX="0" refY="0"><path style="fill-rule:evenodd;stroke-width:.625;stroke-linejoin:round" id="path6773" d="M 8.7185878,4.0337352 -2.2072895,0.01601326 8.7185884,-4.0017078 c -1.7454984,2.3720609 -1.7354408,5.6174519 -6e-7,8.035443 z" transform="matrix(-1.1,0,0,-1.1,-1.1,0)"/></marker><marker style="overflow:visible" id="marker6775" orient="auto" refX="0" refY="0"><path style="fill-rule:evenodd;stroke-width:.625;stroke-linejoin:round" id="path6777" d="M 8.7185878,4.0337352 -2.2072895,0.01601326 8.7185884,-4.0017078 c -1.7454984,2.3720609 -1.7354408,5.6174519 -6e-7,8.035443 z" transform="matrix(-1.1,0,0,-1.1,-1.1,0)"/></marker><marker style="overflow:visible" id="marker6779" orient="auto" refX="0" refY="0"><path style="fill-rule:evenodd;stroke-width:.625;stroke-linejoin:round" id="path6781" d="M 8.7185878,4.0337352 -2.2072895,0.01601326 8.7185884,-4.0017078 c -1.7454984,2.3720609 -1.7354408,5.6174519 -6e-7,8.035443 z" transform="matrix(-1.1,0,0,-1.1,-1.1,0)"/></marker><marker style="overflow:visible" id="marker6783" orient="auto" refX="0" refY="0"><path style="fill-rule:evenodd;stroke-width:.625;stroke-linejoin:round" id="path6785" d="M 8.7185878,4.0337352 -2.2072895,0.01601326 8.7185884,-4.0017078 c -1.7454984,2.3720609 -1.7354408,5.6174519 -6e-7,8.035443 z" transform="matrix(-1.1,0,0,-1.1,-1.1,0)"/></marker><marker style="overflow:visible" id="marker6787" orient="auto" refX="0" refY="0"><path style="fill-rule:evenodd;stroke-width:.625;stroke-linejoin:round" id="path6789" d="M 8.7185878,4.0337352 -2.2072895,0.01601326 8.7185884,-4.0017078 c -1.7454984,2.3720609 -1.7354408,5.6174519 -6e-7,8.035443 z" transform="matrix(-1.1,0,0,-1.1,-1.1,0)"/></marker><marker style="overflow:visible" id="marker5449-9" orient="auto" refX="0" refY="0"><path style="fill-rule:evenodd;stroke-width:.625;stroke-linejoin:round" id="path5451-20" d="M 8.7185878,4.0337352 -2.2072895,0.01601326 8.7185884,-4.0017078 c -1.7454984,2.3720609 -1.7354408,5.6174519 -6e-7,8.035443 z" transform="matrix(-1.1,0,0,-1.1,-1.1,0)"/></marker><marker style="overflow:visible" id="Arrow2Lend-3-21" orient="auto" refX="0" refY="0"><path style="fill-rule:evenodd;stroke-width:.625;stroke-linejoin:round" id="path3782-0-8" d="M 8.7185878,4.0337352 -2.2072895,0.01601326 8.7185884,-4.0017078 c -1.7454984,2.3720609 -1.7354408,5.6174519 -6e-7,8.035443 z" transform="matrix(-1.1,0,0,-1.1,-1.1,0)"/></marker><marker style="overflow:visible" id="marker6998" orient="auto" refX="0" refY="0"><path style="fill-rule:evenodd;stroke-width:.625;stroke-linejoin:round" id="path7000" d="M 8.7185878,4.0337352 -2.2072895,0.01601326 8.7185884,-4.0017078 c -1.7454984,2.3720609 -1.7354408,5.6174519 -6e-7,8.035443 z" transform="matrix(-1.1,0,0,-1.1,-1.1,0)"/></marker><marker style="overflow:visible" id="marker7002" orient="auto" refX="0" refY="0"><path style="fill-rule:evenodd;stroke-width:.625;stroke-linejoin:round" id="path7004" d="M 8.7185878,4.0337352 -2.2072895,0.01601326 8.7185884,-4.0017078 c -1.7454984,2.3720609 -1.7354408,5.6174519 -6e-7,8.035443 z" transform="matrix(-1.1,0,0,-1.1,-1.1,0)"/></marker><marker style="overflow:visible" id="marker7006" orient="auto" refX="0" refY="0"><path style="fill-rule:evenodd;stroke-width:.625;stroke-linejoin:round" id="path7008" d="M 8.7185878,4.0337352 -2.2072895,0.01601326 8.7185884,-4.0017078 c -1.7454984,2.3720609 -1.7354408,5.6174519 -6e-7,8.035443 z" transform="matrix(-1.1,0,0,-1.1,-1.1,0)"/></marker><marker style="overflow:visible" id="marker7010" orient="auto" refX="0" refY="0"><path style="fill-rule:evenodd;stroke-width:.625;stroke-linejoin:round" id="path7012" d="M 8.7185878,4.0337352 -2.2072895,0.01601326 8.7185884,-4.0017078 c -1.7454984,2.3720609 -1.7354408,5.6174519 -6e-7,8.035443 z" transform="matrix(-1.1,0,0,-1.1,-1.1,0)"/></marker><marker style="overflow:visible" id="marker7014" orient="auto" refX="0" refY="0"><path style="fill-rule:evenodd;stroke-width:.625;stroke-linejoin:round" id="path7016" d="M 8.7185878,4.0337352 -2.2072895,0.01601326 8.7185884,-4.0017078 c -1.7454984,2.3720609 -1.7354408,5.6174519 -6e-7,8.035443 z" transform="matrix(-1.1,0,0,-1.1,-1.1,0)"/></marker><marker style="overflow:visible" id="Arrow2Lend-3-96" orient="auto" refX="0" refY="0"><path style="fill-rule:evenodd;stroke-width:.625;stroke-linejoin:round" id="path3782-0-25" d="M 8.7185878,4.0337352 -2.2072895,0.01601326 8.7185884,-4.0017078 c -1.7454984,2.3720609 -1.7354408,5.6174519 -6e-7,8.035443 z" transform="matrix(-1.1,0,0,-1.1,-1.1,0)"/></marker><marker style="overflow:visible" id="marker5449-6" orient="auto" refX="0" refY="0"><path style="fill-rule:evenodd;stroke-width:.625;stroke-linejoin:round" id="path5451-1" d="M 8.7185878,4.0337352 -2.2072895,0.01601326 8.7185884,-4.0017078 c -1.7454984,2.3720609 -1.7354408,5.6174519 -6e-7,8.035443 z" transform="matrix(-1.1,0,0,-1.1,-1.1,0)"/></marker><marker style="overflow:visible" id="marker5449-67" orient="auto" refX="0" refY="0"><path style="fill-rule:evenodd;stroke-width:.625;stroke-linejoin:round" id="path5451-48" d="M 8.7185878,4.0337352 -2.2072895,0.01601326 8.7185884,-4.0017078 c -1.7454984,2.3720609 -1.7354408,5.6174519 -6e-7,8.035443 z" transform="matrix(-1.1,0,0,-1.1,-1.1,0)"/></marker><marker style="overflow:visible" id="Arrow2Lend-3-1" orient="auto" refX="0" refY="0"><path style="fill-rule:evenodd;stroke-width:.625;stroke-linejoin:round" id="path3782-0-74" d="M 8.7185878,4.0337352 -2.2072895,0.01601326 8.7185884,-4.0017078 c -1.7454984,2.3720609 -1.7354408,5.6174519 -6e-7,8.035443 z" transform="matrix(-1.1,0,0,-1.1,-1.1,0)"/></marker><marker style="overflow:visible" id="marker7571" orient="auto" refX="0" refY="0"><path style="fill-rule:evenodd;stroke-width:.625;stroke-linejoin:round" id="path7573" d="M 8.7185878,4.0337352 -2.2072895,0.01601326 8.7185884,-4.0017078 c -1.7454984,2.3720609 -1.7354408,5.6174519 -6e-7,8.035443 z" transform="matrix(-1.1,0,0,-1.1,-1.1,0)"/></marker><marker style="overflow:visible" id="marker7575" orient="auto" refX="0" refY="0"><path style="fill-rule:evenodd;stroke-width:.625;stroke-linejoin:round" id="path7577" d="M 8.7185878,4.0337352 -2.2072895,0.01601326 8.7185884,-4.0017078 c -1.7454984,2.3720609 -1.7354408,5.6174519 -6e-7,8.035443 z" transform="matrix(-1.1,0,0,-1.1,-1.1,0)"/></marker><marker style="overflow:visible" id="marker7579" orient="auto" refX="0" refY="0"><path style="fill-rule:evenodd;stroke-width:.625;stroke-linejoin:round" id="path7581" d="M 8.7185878,4.0337352 -2.2072895,0.01601326 8.7185884,-4.0017078 c -1.7454984,2.3720609 -1.7354408,5.6174519 -6e-7,8.035443 z" transform="matrix(-1.1,0,0,-1.1,-1.1,0)"/></marker><marker style="overflow:visible" id="Arrow2Lend-3-5" orient="auto" refX="0" refY="0"><path style="fill-rule:evenodd;stroke-width:.625;stroke-linejoin:round" id="path3782-0-39" d="M 8.7185878,4.0337352 -2.2072895,0.01601326 8.7185884,-4.0017078 c -1.7454984,2.3720609 -1.7354408,5.6174519 -6e-7,8.035443 z" transform="matrix(-1.1,0,0,-1.1,-1.1,0)"/></marker><marker style="overflow:visible" id="marker8130" orient="auto" refX="0" refY="0"><path style="fill-rule:evenodd;stroke-width:.625;stroke-linejoin:round" id="path8132" d="M 8.7185878,4.0337352 -2.2072895,0.01601326 8.7185884,-4.0017078 c -1.7454984,2.3720609 -1.7354408,5.6174519 -6e-7,8.035443 z" transform="matrix(-1.1,0,0,-1.1,-1.1,0)"/></marker><marker style="overflow:visible" id="marker8130-8" orient="auto" refX="0" refY="0"><path style="fill-rule:evenodd;stroke-width:.625;stroke-linejoin:round" id="path8132-5" d="M 8.7185878,4.0337352 -2.2072895,0.01601326 8.7185884,-4.0017078 c -1.7454984,2.3720609 -1.7354408,5.6174519 -6e-7,8.035443 z" transform="matrix(-1.1,0,0,-1.1,-1.1,0)"/></marker><marker style="overflow:visible" id="TriangleOutL-4" orient="auto" refX="0" refY="0"><path style="fill-rule:evenodd;stroke:#000;stroke-width:1pt" id="path3903-2" d="m 5.77,0 -8.65,5 0,-10 8.65,5 z" transform="scale(0.8,0.8)"/></marker><marker style="overflow:visible" id="TriangleOutL-1" orient="auto" refX="0" refY="0"><path style="fill-rule:evenodd;stroke:#000;stroke-width:1pt" id="path3903-4" d="m 5.77,0 -8.65,5 0,-10 8.65,5 z" transform="scale(0.8,0.8)"/></marker><marker style="overflow:visible" id="Arrow2Lend-3-95" orient="auto" refX="0" refY="0"><path style="fill-rule:evenodd;stroke-width:.625;stroke-linejoin:round" id="path3782-0-20" d="M 8.7185878,4.0337352 -2.2072895,0.01601326 8.7185884,-4.0017078 c -1.7454984,2.3720609 -1.7354408,5.6174519 -6e-7,8.035443 z" transform="matrix(-1.1,0,0,-1.1,-1.1,0)"/></marker><marker style="overflow:visible" id="marker10010" orient="auto" refX="0" refY="0"><path style="fill-rule:evenodd;stroke-width:.625;stroke-linejoin:round" id="path10012" d="M 8.7185878,4.0337352 -2.2072895,0.01601326 8.7185884,-4.0017078 c -1.7454984,2.3720609 -1.7354408,5.6174519 -6e-7,8.035443 z" transform="matrix(-1.1,0,0,-1.1,-1.1,0)"/></marker></defs><metadata id="metadata7"/><g id="layer1"><text id="text4556" x="37.26" y="176.442" xml:space="preserve" style="font-size:40px;font-style:normal;font-weight:400;line-height:125%;letter-spacing:0;word-spacing:0;fill:#000;fill-opacity:1;stroke:none;font-family:Sans"><tspan style="font-size:14px" id="tspan4558" x="37.26" y="176.442">1</tspan></text><text id="text4556-4" x="80.286" y="176.626" xml:space="preserve" style="font-size:40px;font-style:normal;font-weight:400;line-height:125%;letter-spacing:0;word-spacing:0;fill:#000;fill-opacity:1;stroke:none;font-family:Sans"><tspan style="font-size:14px" id="tspan4558-3" x="80.286" y="176.626">2</tspan></text><text id="text4556-4-9" x="145.519" y="176.626" xml:space="preserve" style="font-size:40px;font-style:normal;font-weight:400;line-height:125%;letter-spacing:0;word-spacing:0;fill:#000;fill-opacity:1;stroke:none;font-family:Sans"><tspan style="font-size:14px" id="tspan4558-3-9" x="145.519" y="176.626">3</tspan></text><text id="text4556-4-2" x="213.473" y="176.442" xml:space="preserve" style="font-size:40px;font-style:normal;font-weight:400;line-height:125%;letter-spacing:0;word-spacing:0;fill:#000;fill-opacity:1;stroke:none;font-family:Sans"><tspan style="font-size:14px" id="tspan4558-3-94" x="213.473" y="176.442">4</tspan></text><text id="text5081" x="40.9" y="191.451" xml:space="preserve" style="font-size:40px;font-style:normal;font-weight:400;line-height:125%;letter-spacing:0;word-spacing:0;fill:#000;fill-opacity:1;stroke:none;font-family:Sans"><tspan style="font-size:10px;font-style:normal;font-variant:normal;font-weight:400;font-stretch:normal;text-align:center;text-anchor:middle;font-family:Droid Sans;-inkscape-font-specification:Droid Sans" id="tspan5083" x="40.9" y="191.451">Invoke</tspan><tspan style="font-size:10px;font-style:normal;font-variant:normal;font-weight:400;font-stretch:normal;text-align:center;text-anchor:middle;font-family:Droid Sans;-inkscape-font-specification:Droid Sans" id="tspan5085" x="40.9" y="203.951">TAKE</tspan><tspan style="font-size:10px;font-style:normal;font-variant:normal;font-weight:400;font-stretch:normal;text-align:center;text-anchor:middle;font-family:Droid Sans;-inkscape-font-specification:Droid Sans" id="tspan5087" x="40.9" y="216.451">Listeners</tspan></text><text id="text5081-9" x="218.967" y="191.451" xml:space="preserve" style="font-size:40px;font-style:normal;font-weight:400;line-height:125%;letter-spacing:0;word-spacing:0;fill:#000;fill-opacity:1;stroke:none;font-family:Sans"><tspan style="font-size:10px;font-style:normal;font-variant:normal;font-weight:400;font-stretch:normal;text-align:center;text-anchor:middle;font-family:Droid Sans;-inkscape-font-specification:Droid Sans" id="tspan5083-3" x="218.967" y="191.451">Invoke</tspan><tspan style="font-size:10px;font-style:normal;font-variant:normal;font-weight:400;font-stretch:normal;text-align:center;text-anchor:middle;font-family:Droid Sans;-inkscape-font-specification:Droid Sans" id="tspan5085-9" x="218.967" y="203.951">End</tspan><tspan style="font-size:10px;font-style:normal;font-variant:normal;font-weight:400;font-stretch:normal;text-align:center;text-anchor:middle;font-family:Droid Sans;-inkscape-font-specification:Droid Sans" id="tspan5087-9" x="218.967" y="216.451">Listeners</tspan></text><text id="text5081-9-7" x="149.193" y="191.451" xml:space="preserve" style="font-size:40px;font-style:normal;font-weight:400;line-height:125%;letter-spacing:0;word-spacing:0;fill:#000;fill-opacity:1;stroke:none;font-family:Sans"><tspan style="font-size:10px;font-style:normal;font-variant:normal;font-weight:400;font-stretch:normal;text-align:center;text-anchor:middle;font-family:Droid Sans;-inkscape-font-specification:Droid Sans" id="tspan5083-3-5" x="149.193" y="191.451">Invoke</tspan><tspan style="font-size:10px;font-style:normal;font-variant:normal;font-weight:400;font-stretch:normal;text-align:center;text-anchor:middle;font-family:Droid Sans;-inkscape-font-specification:Droid Sans" id="tspan5087-9-9" x="149.193" y="203.951">Behavior</tspan></text><text id="text5311" x="429.748" y="197.846" xml:space="preserve" style="font-size:40px;font-style:normal;font-weight:400;line-height:125%;letter-spacing:0;word-spacing:0;fill:#000;fill-opacity:1;stroke:none;font-family:Sans"><tspan style="font-size:10px;text-align:center;text-anchor:middle" id="tspan5313" x="429.748" y="197.846">Asynchronous</tspan><tspan style="font-size:10px;text-align:center;text-anchor:middle" id="tspan5315" x="429.748" y="210.346">Continuation</tspan><tspan style="font-size:10px;text-align:center;text-anchor:middle" id="tspan5317" x="429.748" y="222.846">BEFORE</tspan></text><rect id="rect2985-1-6" width="131.148" height="91.712" x="86.632" y="48.529" ry="9.875" style="fill:#fff;fill-opacity:1;stroke:#000;stroke-width:.8374716;stroke-opacity:1"/><path id="path4440-8-6" d="m 86.532788,27.5195 0,132.85818" style="fill:none;stroke:#000;stroke-width:1.05499995;stroke-linecap:butt;stroke-linejoin:miter;stroke-miterlimit:4;stroke-opacity:1;stroke-dasharray:1.055,2.11;stroke-dashoffset:0;marker-start:none;marker-end:url(#marker5449)"/><path id="path4440-6-4-9" d="m 149.92701,27.5195 0,132.85818" style="fill:none;stroke:#000;stroke-width:1.05499995;stroke-linecap:butt;stroke-linejoin:miter;stroke-miterlimit:4;stroke-opacity:1;stroke-dasharray:1.055,2.11;stroke-dashoffset:0;marker-start:none;marker-end:url(#marker5449)"/><path id="path4440-60-3-1" d="m 217.85715,27.5195 0,132.85818" style="fill:none;stroke:#000;stroke-width:1.05499995;stroke-linecap:butt;stroke-linejoin:miter;stroke-miterlimit:4;stroke-opacity:1;stroke-dasharray:1.055,2.11;stroke-dashoffset:0;marker-start:none;marker-end:url(#marker5449)"/><path id="path4669-5-3" d="m 15.717112,94.40579 69.64359,0" style="fill:none;stroke:#000;stroke-width:1.15940344;stroke-linecap:butt;stroke-linejoin:miter;stroke-miterlimit:4;stroke-opacity:1;stroke-dasharray:none;marker-end:url(#Arrow2Lend-3)"/><text id="text5081-2" x="86.354" y="191.451" xml:space="preserve" style="font-size:40px;font-style:normal;font-weight:400;line-height:125%;letter-spacing:0;word-spacing:0;fill:#000;fill-opacity:1;stroke:none;font-family:Sans"><tspan style="font-size:10px;font-style:normal;font-variant:normal;font-weight:400;font-stretch:normal;text-align:center;text-anchor:middle;font-family:Droid Sans;-inkscape-font-specification:Droid Sans" id="tspan5083-7" x="86.354" y="191.451">Invoke</tspan><tspan style="font-size:10px;font-style:normal;font-variant:normal;font-weight:400;font-stretch:normal;text-align:center;text-anchor:middle;font-family:Droid Sans;-inkscape-font-specification:Droid Sans" id="tspan5085-0" x="86.354" y="203.951">START</tspan><tspan style="font-size:10px;font-style:normal;font-variant:normal;font-weight:400;font-stretch:normal;text-align:center;text-anchor:middle;font-family:Droid Sans;-inkscape-font-specification:Droid Sans" id="tspan5087-7" x="86.354" y="216.451">Listeners</tspan></text><path id="path5346-6-9" d="m 312.09677,346.71701 a 4.8387098,4.8387098 0 1 1 -9.67742,0 4.8387098,4.8387098 0 1 1 9.67742,0 z" transform="translate(122.27426,-255.83805)" style="fill:#000;fill-opacity:1;stroke:none"/><text id="text4556-4-2-3" x="262.796" y="176.442" xml:space="preserve" style="font-size:40px;font-style:normal;font-weight:400;line-height:125%;letter-spacing:0;word-spacing:0;fill:#000;fill-opacity:1;stroke:none;font-family:Sans"><tspan style="font-size:14px" id="tspan4558-3-94-6" x="262.796" y="176.442">5</tspan></text><text id="text5081-9-2" x="266.29" y="191.451" xml:space="preserve" style="font-size:40px;font-style:normal;font-weight:400;line-height:125%;letter-spacing:0;word-spacing:0;fill:#000;fill-opacity:1;stroke:none;font-family:Sans"><tspan style="font-size:10px;font-style:normal;font-variant:normal;font-weight:400;font-stretch:normal;text-align:center;text-anchor:middle;font-family:Droid Sans;-inkscape-font-specification:Droid Sans" id="tspan5083-3-4" x="266.29" y="191.451">Invoke</tspan><tspan style="font-size:10px;font-style:normal;font-variant:normal;font-weight:400;font-stretch:normal;text-align:center;text-anchor:middle;font-family:Droid Sans;-inkscape-font-specification:Droid Sans" id="tspan5085-9-6" x="266.29" y="203.951">TAKE</tspan><tspan style="font-size:10px;font-style:normal;font-variant:normal;font-weight:400;font-stretch:normal;text-align:center;text-anchor:middle;font-family:Droid Sans;-inkscape-font-specification:Droid Sans" id="tspan5087-9-3" x="266.29" y="216.451">Listeners</tspan></text><path id="path4440-60-3-1-9" d="m 267.17977,27.5195 0,132.85818" style="fill:none;stroke:#000;stroke-width:1.05499995;stroke-linecap:butt;stroke-linejoin:miter;stroke-miterlimit:4;stroke-opacity:1;stroke-dasharray:1.055,2.11;stroke-dashoffset:0;marker-start:none;marker-end:url(#marker5449)"/><path id="path4669-5-3-9" d="m 217.53691,94.40579 69.64359,0" style="fill:none;stroke:#000;stroke-width:1.15940344;stroke-linecap:butt;stroke-linejoin:miter;stroke-miterlimit:4;stroke-opacity:1;stroke-dasharray:none;marker-end:url(#Arrow2Lend-3)"/><path id="path4440-60-3-1-9-9" d="m 39.400768,27.5195 0,132.85818" style="fill:none;stroke:#000;stroke-width:1.05499995;stroke-linecap:butt;stroke-linejoin:miter;stroke-miterlimit:4;stroke-opacity:1;stroke-dasharray:1.055,2.11;stroke-dashoffset:0;marker-start:none;marker-end:url(#marker5449)"/><rect id="rect2985-1-6-4" width="131.148" height="91.712" x="453.252" y="45.735" ry="9.875" style="fill:#fff;fill-opacity:1;stroke:#000;stroke-width:.8374716;stroke-opacity:1"/><path id="path4440-8-6-3" d="m 453.14096,33.11516 0,123.21966" style="fill:none;stroke:#000;stroke-width:1.01609755;stroke-linecap:butt;stroke-linejoin:miter;stroke-miterlimit:4;stroke-opacity:1;stroke-dasharray:1.01609755,2.03219509;stroke-dashoffset:0;marker-start:none;marker-end:none"/><path id="path4440-6-4-9-4" d="m 516.54601,33.11516 0,123.21966" style="fill:none;stroke:#000;stroke-width:1.01609755;stroke-linecap:butt;stroke-linejoin:miter;stroke-miterlimit:4;stroke-opacity:1;stroke-dasharray:1.01609755,2.03219509;stroke-dashoffset:0;marker-start:none;marker-end:none"/><path id="path4440-60-3-1-8" d="m 584.48775,33.11516 0,123.21966" style="fill:none;stroke:#000;stroke-width:1.01609755;stroke-linecap:butt;stroke-linejoin:miter;stroke-miterlimit:4;stroke-opacity:1;stroke-dasharray:1.01609755,2.03219509;stroke-dashoffset:0;marker-start:none;marker-end:none"/><path id="path4669-5-3-4" d="m 382.33669,91.61127 69.64359,0" style="fill:none;stroke:#000;stroke-width:1.15940344;stroke-linecap:butt;stroke-linejoin:miter;stroke-miterlimit:4;stroke-opacity:1;stroke-dasharray:none;marker-end:url(#Arrow2Lend-3)"/><path id="path4440-60-3-1-9-2" d="m 633.81879,33.11516 0,123.21966" style="fill:none;stroke:#000;stroke-width:1.01609755;stroke-linecap:butt;stroke-linejoin:miter;stroke-miterlimit:4;stroke-opacity:1;stroke-dasharray:1.01609755,2.03219509;stroke-dashoffset:0;marker-start:none;marker-end:none"/><path id="path4669-5-3-9-6" d="m 584.15648,91.61127 69.64359,0" style="fill:none;stroke:#000;stroke-width:1.15940344;stroke-linecap:butt;stroke-linejoin:miter;stroke-miterlimit:4;stroke-opacity:1;stroke-dasharray:none;marker-end:url(#Arrow2Lend-3)"/><path id="path4440-60-3-1-9-9-9" d="m 406.00089,33.11516 0,123.21966" style="fill:none;stroke:#000;stroke-width:1.01609755;stroke-linecap:butt;stroke-linejoin:miter;stroke-miterlimit:4;stroke-opacity:1;stroke-dasharray:1.01609755,2.03219509;stroke-dashoffset:0;marker-start:none;marker-end:none"/><path id="path6878" d="m 428.90223,92.17546 0,90.4177" style="fill:none;stroke:#000;stroke-width:.90829307px;stroke-linecap:butt;stroke-linejoin:miter;stroke-opacity:1"/><text id="text5311-2" x="609.885" y="198.033" xml:space="preserve" style="font-size:40px;font-style:normal;font-weight:400;line-height:125%;letter-spacing:0;word-spacing:0;fill:#000;fill-opacity:1;stroke:none;font-family:Sans"><tspan style="font-size:10px;text-align:center;text-anchor:middle" id="tspan5313-4" x="609.885" y="198.033">Asynchronous</tspan><tspan style="font-size:10px;text-align:center;text-anchor:middle" id="tspan5315-5" x="609.885" y="210.533">Continuation</tspan><tspan style="font-size:10px;text-align:center;text-anchor:middle" id="tspan5317-6" x="609.885" y="223.033">AFTER</tspan></text><path id="path5346-6-9-9" d="m 312.09677,346.71701 a 4.8387098,4.8387098 0 1 1 -9.67742,0 4.8387098,4.8387098 0 1 1 9.67742,0 z" transform="translate(302.41083,-255.65111)" style="fill:#000;fill-opacity:1;stroke:none"/><path id="path6878-9" d="m 609.16982,92.31814 0,90.4177" style="fill:none;stroke:#000;stroke-width:.90829307px;stroke-linecap:butt;stroke-linejoin:miter;stroke-opacity:1"/><text id="text4556-4-9-4" x="204.978" y="517.186" xml:space="preserve" style="font-size:40px;font-style:normal;font-weight:400;line-height:125%;letter-spacing:0;word-spacing:0;fill:#000;fill-opacity:1;stroke:none;font-family:Sans"><tspan style="font-size:14px" id="tspan4558-3-9-2" x="204.978" y="517.186">1</tspan></text><text id="text4556-4-2-6" x="272.932" y="517.002" xml:space="preserve" style="font-size:40px;font-style:normal;font-weight:400;line-height:125%;letter-spacing:0;word-spacing:0;fill:#000;fill-opacity:1;stroke:none;font-family:Sans"><tspan style="font-size:14px" id="tspan4558-3-94-7" x="272.932" y="517.002">2</tspan></text><text id="text5081-9-6" x="278.425" y="532.01" xml:space="preserve" style="font-size:40px;font-style:normal;font-weight:400;line-height:125%;letter-spacing:0;word-spacing:0;fill:#000;fill-opacity:1;stroke:none;font-family:Sans"><tspan style="font-size:10px;font-style:normal;font-variant:normal;font-weight:400;font-stretch:normal;text-align:center;text-anchor:middle;font-family:Droid Sans;-inkscape-font-specification:Droid Sans" id="tspan5083-3-7" x="278.425" y="532.01">Invoke</tspan><tspan style="font-size:10px;font-style:normal;font-variant:normal;font-weight:400;font-stretch:normal;text-align:center;text-anchor:middle;font-family:Droid Sans;-inkscape-font-specification:Droid Sans" id="tspan5085-9-2" x="278.425" y="544.51">End</tspan><tspan style="font-size:10px;font-style:normal;font-variant:normal;font-weight:400;font-stretch:normal;text-align:center;text-anchor:middle;font-family:Droid Sans;-inkscape-font-specification:Droid Sans" id="tspan5087-9-7" x="278.425" y="557.01">Listeners</tspan></text><text id="text5081-9-7-0" x="208.651" y="532.01" xml:space="preserve" style="font-size:40px;font-style:normal;font-weight:400;line-height:125%;letter-spacing:0;word-spacing:0;fill:#000;fill-opacity:1;stroke:none;font-family:Sans"><tspan style="font-size:10px;font-style:normal;font-variant:normal;font-weight:400;font-stretch:normal;text-align:center;text-anchor:middle;font-family:Droid Sans;-inkscape-font-specification:Droid Sans" id="tspan5083-3-5-6" x="208.651" y="532.01">Invoke</tspan><tspan style="font-size:10px;font-style:normal;font-variant:normal;font-weight:400;font-stretch:normal;text-align:center;text-anchor:middle;font-family:Droid Sans;-inkscape-font-specification:Droid Sans" id="tspan5087-9-9-2" x="208.651" y="544.51">Behavior</tspan></text><rect id="rect2985-1-6-8" width="131.148" height="91.712" x="146.897" y="330.873" ry="9.875" style="fill:#fff;fill-opacity:1;stroke:#000;stroke-width:.8374716;stroke-opacity:1"/><path id="path4440-6-4-9-1" d="m 210.28698,314.26476 0,188.76597" style="fill:none;stroke:#000;stroke-width:.95120406;stroke-linecap:butt;stroke-linejoin:miter;stroke-miterlimit:4;stroke-opacity:1;stroke-dasharray:.95120404,1.90240809;stroke-dashoffset:0;marker-start:none;marker-end:url(#marker5449)"/><path id="path4440-60-3-1-80" d="m 278.00606,314.26476 0,188.76597" style="fill:none;stroke:#000;stroke-width:.95120406;stroke-linecap:butt;stroke-linejoin:miter;stroke-miterlimit:4;stroke-opacity:1;stroke-dasharray:.95120404,1.90240809;stroke-dashoffset:0;marker-start:none;marker-end:url(#marker5449)"/><path id="path4669-5-3-1" d="m 75.98185,376.74939 69.64359,0" style="fill:none;stroke:#000;stroke-width:1.15940344;stroke-linecap:butt;stroke-linejoin:miter;stroke-miterlimit:4;stroke-opacity:1;stroke-dasharray:none;marker-end:url(#Arrow2Lend-3)"/><rect id="rect2985-1-6-8-6" width="306.615" height="167.985" x="27.741" y="295.467" ry="18.088" style="fill:none;stroke:#000;stroke-width:.78994167;stroke-miterlimit:4;stroke-opacity:1;stroke-dasharray:none"/><path id="path4669-5-3-1-4" d="m 334.85949,376.25358 69.64359,0" style="fill:none;stroke:#000;stroke-width:1.15940344;stroke-linecap:butt;stroke-linejoin:miter;stroke-miterlimit:4;stroke-opacity:1;stroke-dasharray:none;marker-end:url(#Arrow2Lend-3)"/><text id="text4556-4-2-64" x="329.312" y="518.227" xml:space="preserve" style="font-size:40px;font-style:normal;font-weight:400;line-height:125%;letter-spacing:0;word-spacing:0;fill:#000;fill-opacity:1;stroke:none;font-family:Sans"><tspan style="font-size:14px" id="tspan4558-3-94-9" x="329.312" y="518.227">3</tspan></text><text id="text5081-9-9" x="334.806" y="533.236" xml:space="preserve" style="font-size:40px;font-style:normal;font-weight:400;line-height:125%;letter-spacing:0;word-spacing:0;fill:#000;fill-opacity:1;stroke:none;font-family:Sans"><tspan style="font-size:10px;font-style:normal;font-variant:normal;font-weight:400;font-stretch:normal;text-align:center;text-anchor:middle;font-family:Droid Sans;-inkscape-font-specification:Droid Sans" id="tspan5083-3-49" x="334.806" y="533.236">Invoke</tspan><tspan style="font-size:10px;font-style:normal;font-variant:normal;font-weight:400;font-stretch:normal;text-align:center;text-anchor:middle;font-family:Droid Sans;-inkscape-font-specification:Droid Sans" id="tspan5085-9-3" x="334.806" y="545.736">End</tspan><tspan style="font-size:10px;font-style:normal;font-variant:normal;font-weight:400;font-stretch:normal;text-align:center;text-anchor:middle;font-family:Droid Sans;-inkscape-font-specification:Droid Sans" id="tspan5087-9-93" x="334.806" y="558.236">Listeners</tspan></text><path id="path4440-60-3-1-5" d="m 333.71965,275.30189 0,227.80612" style="fill:none;stroke:#000;stroke-width:.95120406;stroke-linecap:butt;stroke-linejoin:miter;stroke-miterlimit:4;stroke-opacity:1;stroke-dasharray:.95120404,1.90240809;stroke-dashoffset:0;marker-start:none;marker-end:url(#marker5449)"/><text id="text7524" x="36.29" y="308.491" xml:space="preserve" style="font-size:40px;font-style:normal;font-weight:400;line-height:125%;letter-spacing:0;word-spacing:0;fill:#000;fill-opacity:1;stroke:none;font-family:Sans"><tspan style="font-size:10px" id="tspan7526" x="36.29" y="308.491">embedded subprocess</tspan></text><text id="text7549" x="211.994" y="368.201" xml:space="preserve" style="font-size:40px;font-style:normal;font-weight:400;line-height:125%;letter-spacing:0;word-spacing:0;fill:#000;fill-opacity:1;stroke:none;font-family:Sans"><tspan style="font-size:10px;text-align:center;text-anchor:middle" id="tspan7551" x="211.994" y="368.201">Activity without</tspan><tspan style="font-size:10px;text-align:center;text-anchor:middle" id="tspan7553" x="211.994" y="380.701">outgoing Sequence</tspan><tspan style="font-size:10px;text-align:center;text-anchor:middle" id="tspan7555" x="211.994" y="393.201">Flow</tspan></text><rect id="rect2985-1-6-8-66" width="131.148" height="91.712" x="153.453" y="670.978" ry="9.875" style="fill:#fff;fill-opacity:1;stroke:#000;stroke-width:.8374716;stroke-opacity:1"/><path id="path4440-6-4-9-1-0" d="m 216.82284,651.92269 0,172.76209" style="fill:none;stroke:#000;stroke-width:1;stroke-linecap:butt;stroke-linejoin:miter;stroke-miterlimit:4;stroke-opacity:1;stroke-dasharray:1,2;stroke-dashoffset:0;marker-start:none;marker-end:none"/><path id="path4440-60-3-1-80-5" d="m 284.56445,651.92269 0,172.76209" style="fill:none;stroke:#000;stroke-width:1;stroke-linecap:butt;stroke-linejoin:miter;stroke-miterlimit:4;stroke-opacity:1;stroke-dasharray:1,2;stroke-dashoffset:0;marker-start:none;marker-end:none"/><path id="path4669-5-3-1-6" d="m 82.538226,716.85402 69.643604,0" style="fill:none;stroke:#000;stroke-width:1.15940344;stroke-linecap:butt;stroke-linejoin:miter;stroke-miterlimit:4;stroke-opacity:1;stroke-dasharray:none;marker-end:url(#Arrow2Lend-3)"/><rect id="rect2985-1-6-8-6-3" width="306.615" height="167.985" x="34.297" y="635.571" ry="18.088" style="fill:none;stroke:#000;stroke-width:.78994167;stroke-miterlimit:4;stroke-opacity:1;stroke-dasharray:none"/><path id="path4669-5-3-1-4-8" d="m 341.41588,716.35821 69.64359,0" style="fill:none;stroke:#000;stroke-width:1.15940344;stroke-linecap:butt;stroke-linejoin:miter;stroke-miterlimit:4;stroke-opacity:1;stroke-dasharray:none;marker-end:url(#Arrow2Lend-3)"/><path id="path4440-60-3-1-5-4" d="m 340.80723,616.19244 0,208.49234" style="fill:none;stroke:#000;stroke-width:1;stroke-linecap:butt;stroke-linejoin:miter;stroke-miterlimit:4;stroke-opacity:1;stroke-dasharray:1,2;stroke-dashoffset:0;marker-start:none;marker-end:none"/><text id="text7524-4" x="42.847" y="648.596" xml:space="preserve" style="font-size:40px;font-style:normal;font-weight:400;line-height:125%;letter-spacing:0;word-spacing:0;fill:#000;fill-opacity:1;stroke:none;font-family:Sans"><tspan style="font-size:10px" id="tspan7526-7" x="42.847" y="648.596">embedded subprocess</tspan></text><text id="text7549-5" x="218.55" y="708.305" xml:space="preserve" style="font-size:40px;font-style:normal;font-weight:400;line-height:125%;letter-spacing:0;word-spacing:0;fill:#000;fill-opacity:1;stroke:none;font-family:Sans"><tspan style="font-size:10px;text-align:center;text-anchor:middle" id="tspan7551-4" x="218.55" y="708.305">Activity without</tspan><tspan style="font-size:10px;text-align:center;text-anchor:middle" id="tspan7553-3" x="218.55" y="720.805">outgoing Sequence</tspan><tspan style="font-size:10px;text-align:center;text-anchor:middle" id="tspan7555-7" x="218.55" y="733.305">Flow</tspan></text><text id="text5311-2-1" x="307.885" y="856.894" xml:space="preserve" style="font-size:40px;font-style:normal;font-weight:400;line-height:125%;letter-spacing:0;word-spacing:0;fill:#000;fill-opacity:1;stroke:none;font-family:Sans"><tspan style="font-size:10px;text-align:center;text-anchor:middle" id="tspan5313-4-8" x="307.885" y="856.894">Asynchronous</tspan><tspan style="font-size:10px;text-align:center;text-anchor:middle" id="tspan5315-5-4" x="307.885" y="869.394">Continuation</tspan><tspan style="font-size:10px;text-align:center;text-anchor:middle" id="tspan5317-6-3" x="307.885" y="881.894">AFTER</tspan></text><path id="path5346-6-9-9-8" d="m 312.09677,346.71701 a 4.8387098,4.8387098 0 1 1 -9.67742,0 4.8387098,4.8387098 0 1 1 9.67742,0 z" transform="translate(0.79791839,368.17772)" style="fill:#000;fill-opacity:1;stroke:none"/><path id="path6878-9-4" d="m 307.55691,717.8152 0,127.08124" style="fill:none;stroke:#000;stroke-width:1.07681227px;stroke-linecap:butt;stroke-linejoin:miter;stroke-opacity:1"/><text id="text8093" x="410.484" y="376.556" xml:space="preserve" style="font-size:40px;font-style:normal;font-weight:400;line-height:125%;letter-spacing:0;word-spacing:0;fill:#000;fill-opacity:1;stroke:none;font-family:Sans"><tspan style="font-size:14px" id="tspan8095" x="410.484" y="376.556">...</tspan></text><text id="text8093-0" x="416.712" y="716.134" xml:space="preserve" style="font-size:40px;font-style:normal;font-weight:400;line-height:125%;letter-spacing:0;word-spacing:0;fill:#000;fill-opacity:1;stroke:none;font-family:Sans"><tspan style="font-size:14px" id="tspan8095-0" x="416.712" y="716.134">...</tspan></text><rect id="rect2985-1-6-4-5" width="131.148" height="91.712" x="1051.851" y="65.942" ry="9.875" style="fill:#fff;fill-opacity:1;stroke:#000;stroke-width:.8374716;stroke-opacity:1"/><path id="path4669-5-3-4-4" d="m 980.93639,111.81784 69.64351,0" style="fill:none;stroke:#000;stroke-width:1.15940344;stroke-linecap:butt;stroke-linejoin:miter;stroke-miterlimit:4;stroke-opacity:1;stroke-dasharray:none;marker-end:url(#Arrow2Lend-3)"/><path id="path4669-5-3-9-6-1" d="m 1182.7561,111.81784 69.6436,0" style="fill:none;stroke:#000;stroke-width:1.15940344;stroke-linecap:butt;stroke-linejoin:miter;stroke-miterlimit:4;stroke-opacity:1;stroke-dasharray:none;marker-end:url(#Arrow2Lend-3)"/><rect id="rect2985-1-6-4-5-2" width="131.148" height="91.712" x="848.398" y="65.942" ry="9.875" style="fill:#fff;fill-opacity:1;stroke:#000;stroke-width:.8374716;stroke-opacity:1"/><rect id="rect2985-1-6-4-5-2-5" width="131.148" height="91.712" x="1252.909" y="65.942" ry="9.875" style="fill:#fff;fill-opacity:1;stroke:#000;stroke-width:.8374716;stroke-opacity:1"/><text id="text8287" x="1112.96" y="220.6" xml:space="preserve" style="font-size:40px;font-style:normal;font-weight:400;line-height:125%;letter-spacing:0;word-spacing:0;fill:#000;fill-opacity:1;stroke:none;font-family:Sans"><tspan style="font-size:12px;text-align:center;text-anchor:middle" id="tspan8289" x="1112.96" y="220.6">Async Continuations</tspan><tspan style="font-size:12px;text-align:center;text-anchor:middle" id="tspan8291" x="1114.87" y="235.6">create transaction </tspan><tspan style="font-size:12px;text-align:center;text-anchor:middle" id="tspan8293" x="1112.96" y="250.6">boundaries</tspan></text><path id="path8849" d="m 1049.4899,226.48789 c -22.2546,0.1245 -18.999,-11.35793 -18.999,-44.08019" style="fill:none;stroke:#000;stroke-width:.84019864px;stroke-linecap:butt;stroke-linejoin:miter;stroke-opacity:1;marker-end:url(#marker8130)"/><path id="path8849-9" d="m 1177.0371,226.94264 c 22.2546,0.1245 18.9989,-11.35793 18.9989,-44.08019" style="fill:none;stroke:#000;stroke-width:.84019864px;stroke-linecap:butt;stroke-linejoin:miter;stroke-opacity:1;marker-end:url(#marker8130)"/><path id="path9171" d="m 850.45772,32.916744 173.45148,0" style="fill:none;stroke:#000;stroke-width:.98017579px;stroke-linecap:butt;stroke-linejoin:miter;stroke-opacity:1;marker-end:url(#TriangleOutL)"/><path id="path9733" d="m 1030.479,26.089434 0,13.65462" style="fill:none;stroke:#000;stroke-width:1px;stroke-linecap:butt;stroke-linejoin:miter;stroke-opacity:1"/><path id="path9171-6" d="m 1030.8538,32.916744 159.7612,0" style="fill:none;stroke:#000;stroke-width:.94293064px;stroke-linecap:butt;stroke-linejoin:miter;stroke-opacity:1;marker-end:url(#TriangleOutL)"/><path id="path9733-3" d="m 1196.645,26.089434 0,13.65462" style="fill:none;stroke:#000;stroke-width:1px;stroke-linecap:butt;stroke-linejoin:miter;stroke-opacity:1"/><path id="path9171-6-8" d="m 1197.075,32.916744 159.7613,0" style="fill:none;stroke:#000;stroke-width:.94293064px;stroke-linecap:butt;stroke-linejoin:miter;stroke-opacity:1;marker-end:url(#TriangleOutL)"/><text id="text9786" x="900.254" y="27.311" xml:space="preserve" style="font-size:40px;font-style:normal;font-weight:400;line-height:125%;letter-spacing:0;word-spacing:0;fill:#000;fill-opacity:1;stroke:none;font-family:Sans"><tspan style="font-size:12px" id="tspan9788" x="900.254" y="27.311">Transaction 1</tspan></text><text id="text9786-7" x="1073.825" y="27.311" xml:space="preserve" style="font-size:40px;font-style:normal;font-weight:400;line-height:125%;letter-spacing:0;word-spacing:0;fill:#000;fill-opacity:1;stroke:none;font-family:Sans"><tspan style="font-size:12px" id="tspan9788-8" x="1073.825" y="27.311">Transaction 2</tspan></text><text id="text9786-7-6" x="1245.835" y="27.311" xml:space="preserve" style="font-size:40px;font-style:normal;font-weight:400;line-height:125%;letter-spacing:0;word-spacing:0;fill:#000;fill-opacity:1;stroke:none;font-family:Sans"><tspan style="font-size:12px" id="tspan9788-8-1" x="1245.835" y="27.311">Transaction 3</tspan></text><path id="path5346-6-9-8" d="m 312.09677,346.71701 a 4.8387098,4.8387098 0 1 1 -9.67742,0 4.8387098,4.8387098 0 1 1 9.67742,0 z" transform="translate(723.03324,-235.35644)" style="fill:#000;fill-opacity:1;stroke:none"/><path id="path9733-4" d="m 1030.479,45.059734 0,129.797926" style="fill:none;stroke:#000;stroke-width:1;stroke-linecap:butt;stroke-linejoin:miter;stroke-miterlimit:4;stroke-opacity:1;stroke-dasharray:1,2;stroke-dashoffset:0"/><path id="path5346-6-9-8-7" d="m 312.09677,346.71701 a 4.8387098,4.8387098 0 1 1 -9.67742,0 4.8387098,4.8387098 0 1 1 9.67742,0 z" transform="translate(889.11335,-235.02266)" style="fill:#000;fill-opacity:1;stroke:none"/><path id="path9733-4-1" d="m 1196.5591,45.393504 0,129.797936" style="fill:none;stroke:#000;stroke-width:1;stroke-linecap:butt;stroke-linejoin:miter;stroke-miterlimit:4;stroke-opacity:1;stroke-dasharray:1,2;stroke-dashoffset:0"/><text id="text8093-8" x="830.931" y="33.785" xml:space="preserve" style="font-size:40px;font-style:normal;font-weight:400;line-height:125%;letter-spacing:0;word-spacing:0;fill:#000;fill-opacity:1;stroke:none;font-family:Sans"><tspan style="font-size:14px" id="tspan8095-8" x="830.931" y="33.785">...</tspan></text><text id="text8093-8-8" x="1365.294" y="33.785" xml:space="preserve" style="font-size:40px;font-style:normal;font-weight:400;line-height:125%;letter-spacing:0;word-spacing:0;fill:#000;fill-opacity:1;stroke:none;font-family:Sans"><tspan style="font-size:14px" id="tspan8095-8-0" x="1365.294" y="33.785">...</tspan></text><text id="text8093-8-8-3" x="1390.294" y="111.503" xml:space="preserve" style="font-size:40px;font-style:normal;font-weight:400;line-height:125%;letter-spacing:0;word-spacing:0;fill:#000;fill-opacity:1;stroke:none;font-family:Sans"><tspan style="font-size:14px" id="tspan8095-8-0-3" x="1390.294" y="111.503">...</tspan></text><text id="text8093-8-8-3-8" x="830.446" y="110.806" xml:space="preserve" style="font-size:40px;font-style:normal;font-weight:400;line-height:125%;letter-spacing:0;word-spacing:0;fill:#000;fill-opacity:1;stroke:none;font-family:Sans"><tspan style="font-size:14px" id="tspan8095-8-0-3-1" x="830.446" y="110.806">...</tspan></text></g></svg>