<svg xmlns="http://www.w3.org/2000/svg" xmlns:svg="http://www.w3.org/2000/svg" id="svg2" width="744.094" height="1052.362" version="1.1"><defs id="defs4"><marker id="TriangleOutL" orient="auto" refX="0" refY="0" style="overflow:visible"><path id="path4436" d="M 5.77,0.0 L -2.88,5.0 L -2.88,-5.0 L 5.77,0.0 z" transform="scale(0.8)" style="fill-rule:evenodd;stroke:#000;stroke-width:1pt"/></marker><marker id="TriangleOutM" orient="auto" refX="0" refY="0" style="overflow:visible"><path id="path4439" d="M 5.77,0.0 L -2.88,5.0 L -2.88,-5.0 L 5.77,0.0 z" transform="scale(0.4)" style="fill-rule:evenodd;stroke:#000;stroke-width:1pt"/></marker><marker id="Arrow2Mend" orient="auto" refX="0" refY="0" style="overflow:visible"><path id="path4321" d="M 8.7185878,4.0337352 L -2.2072895,0.016013256 L 8.7185884,-4.0017078 C 6.9730900,-1.6296469 6.9831476,1.6157441 8.7185878,4.0337352 z" transform="scale(0.6) rotate(180) translate(0,0)" style="fill-rule:evenodd;stroke-width:.625;stroke-linejoin:round"/></marker><marker id="Arrow2Lend" orient="auto" refX="0" refY="0" style="overflow:visible"><path id="path3899" d="M 8.7185878,4.0337352 L -2.2072895,0.016013256 L 8.7185884,-4.0017078 C 6.9730900,-1.6296469 6.9831476,1.6157441 8.7185878,4.0337352 z" transform="scale(1.1) rotate(180) translate(1,0)" style="fill-rule:evenodd;stroke-width:.625;stroke-linejoin:round"/></marker><marker id="Arrow2Lend-4" orient="auto" refX="0" refY="0" style="overflow:visible"><path id="path3899-2" d="M 8.7185878,4.0337352 -2.2072895,0.01601326 8.7185884,-4.0017078 c -1.7454984,2.3720609 -1.7354408,5.6174519 -6e-7,8.035443 z" transform="matrix(-1.1,0,0,-1.1,-1.1,0)" style="fill-rule:evenodd;stroke-width:.625;stroke-linejoin:round"/></marker><marker id="Arrow2Lend-2" orient="auto" refX="0" refY="0" style="overflow:visible"><path id="path3899-21" d="M 8.7185878,4.0337352 -2.2072895,0.01601326 8.7185884,-4.0017078 c -1.7454984,2.3720609 -1.7354408,5.6174519 -6e-7,8.035443 z" transform="matrix(-1.1,0,0,-1.1,-1.1,0)" style="fill-rule:evenodd;stroke-width:.625;stroke-linejoin:round"/></marker></defs><metadata id="metadata7"/><g id="layer1"><rect style="fill:#686868;fill-opacity:1;stroke:none" id="rect7137" width="235" height="174" x="243" y="234.362" rx=".183"/><rect style="fill:#fff;stroke:none;stroke-width:1.25;stroke-miterlimit:4;stroke-opacity:1;stroke-dasharray:none;fill-opacity:1" id="rect2985-1" width="202.363" height="44.966" x="259.9" y="247.457" rx=".086"/><rect style="fill:#fff;stroke:none;stroke-width:1.25;stroke-miterlimit:4;stroke-opacity:1;stroke-dasharray:none;fill-opacity:1" id="rect2985-1-7" width="96.919" height="45.404" x="259.621" y="299.438" rx=".041"/><rect style="fill:#fff;stroke:none;stroke-width:1.25;stroke-miterlimit:4;stroke-opacity:1;stroke-dasharray:none;fill-opacity:1" id="rect2985-1-7-7" width="96.919" height="45.404" x="365.266" y="299.438" rx=".041"/><rect style="fill:#fff;stroke:none;stroke-width:1.25;stroke-miterlimit:4;stroke-opacity:1;stroke-dasharray:none;fill-opacity:1" id="rect2985-1-4" width="202.363" height="44.966" x="258.949" y="351.827" rx=".086"/><text style="font-size:40px;font-style:normal;font-weight:400;text-align:center;line-height:125%;letter-spacing:0;word-spacing:0;text-anchor:middle;fill:#000;fill-opacity:1;stroke:none;font-family:Sans" id="text4318" x="413.663" y="316.206" xml:space="preserve"><tspan style="font-size:16px;text-align:center;text-anchor:middle" id="tspan4480" x="413.663" y="316.206">BPMN 2.0</tspan><tspan style="font-size:16px;text-align:center;text-anchor:middle" id="tspan3067" x="413.663" y="336.206">Core Engine</tspan></text><text style="font-size:40px;font-style:normal;font-weight:400;text-align:center;line-height:125%;letter-spacing:0;word-spacing:0;text-anchor:middle;fill:#000;fill-opacity:1;stroke:none;font-family:Sans" id="text4318-4" x="361.481" y="274.36" xml:space="preserve"><tspan style="font-size:16px;text-align:center;text-anchor:middle" id="tspan4391" x="361.481" y="274.36">Public Api</tspan></text><text style="font-size:40px;font-style:normal;font-weight:400;text-align:center;line-height:125%;letter-spacing:0;word-spacing:0;text-anchor:middle;fill:#000;fill-opacity:1;stroke:none;font-family:Sans" id="text4318-4-1" x="307.346" y="318.397" xml:space="preserve"><tspan style="font-size:16px;text-align:center;text-anchor:middle" id="tspan4391-2" x="309.565" y="318.397">Job </tspan><tspan style="font-size:16px;text-align:center;text-anchor:middle" id="tspan3110" x="307.346" y="338.397">Executor</tspan></text><text style="font-size:40px;font-style:normal;font-weight:400;text-align:center;line-height:125%;letter-spacing:0;word-spacing:0;text-anchor:middle;fill:#000;fill-opacity:1;stroke:none;font-family:Sans" id="text4318-4-0" x="359.412" y="368.353" xml:space="preserve"><tspan style="font-size:16px;text-align:center;text-anchor:middle" id="tspan4391-9" x="359.412" y="368.353">Persistence Layer</tspan><tspan style="font-size:16px;text-align:center;text-anchor:middle" id="tspan3108" x="359.412" y="388.353">(MyBatis ORM)</tspan></text><text style="font-size:40px;font-style:normal;font-variant:normal;font-weight:300;font-stretch:normal;line-height:125%;letter-spacing:0;word-spacing:0;fill:#000;fill-opacity:1;stroke:none;font-family:Folks-Light;-inkscape-font-specification:Folks-Light Light" id="text5506" x="494.471" y="262.506" xml:space="preserve"><tspan id="tspan5508" x="494.471" y="262.506" style="font-size:12px;font-family:Arial;-inkscape-font-specification:Arial">Command </tspan><tspan style="font-size:12px;font-family:Arial;-inkscape-font-specification:Arial" id="tspan5708" x="494.471" y="277.506">Pattern</tspan></text><path style="fill:none;stroke:#000;stroke-width:1.14999998;stroke-linecap:butt;stroke-linejoin:miter;stroke-miterlimit:4;stroke-opacity:1;stroke-dasharray:3.45,1.15;stroke-dashoffset:0;marker-end:url(#TriangleOutM)" id="path5510" d="m 434.10492,218.32584 0,64.27544"/><rect style="fill:#393939;fill-opacity:1;stroke:none" id="rect5512" width="12.053" height="16.993" x="428.078" y="254.832" rx=".199"/><path style="fill:none;stroke:#000;stroke-width:1.30882716px;stroke-linecap:butt;stroke-linejoin:miter;stroke-opacity:1" id="path5706" d="m 444.18853,264.01048 45.86061,0"/><text style="font-size:40px;font-style:normal;font-variant:normal;font-weight:300;font-stretch:normal;line-height:125%;letter-spacing:0;word-spacing:0;fill:#000;fill-opacity:1;stroke:none;font-family:Folks-Light;-inkscape-font-specification:Folks-Light Light" id="text5506-8" x="414.998" y="215.16" xml:space="preserve"><tspan style="font-size:12px;font-family:Arial;-inkscape-font-specification:Arial" id="tspan5708-2" x="414.998" y="215.16">Thread</tspan></text><text style="font-size:40px;font-style:normal;font-variant:normal;font-weight:300;font-stretch:normal;line-height:125%;letter-spacing:0;word-spacing:0;fill:#000;fill-opacity:1;stroke:none;font-family:Folks-Light;-inkscape-font-specification:Folks-Light Light" id="text5506-4" x="214.727" y="318.16" xml:space="preserve"><tspan style="font-size:12px;text-align:end;text-anchor:end;font-family:Arial;-inkscape-font-specification:Arial" id="tspan5708-5" x="218.055" y="318.16">Asynchronous </tspan><tspan style="font-size:12px;text-align:end;text-anchor:end;font-family:Arial;-inkscape-font-specification:Arial" id="tspan5958" x="214.727" y="333.16">Background Work</tspan></text><path style="fill:none;stroke:#000;stroke-width:1.39096773px;stroke-linecap:butt;stroke-linejoin:miter;stroke-opacity:1" id="path5706-1" d="m 218.16063,321.36218 51.79755,0"/><g style="fill:none;stroke:none" id="g3040-4-80-9-9"><path id="path3044-7-1-0-0" d="m 310.85256,486.52723 38.41212,34.27211 60.88251,-20.50107 -42.27935,-30.30586 z" style="fill:#a00;fill-rule:evenodd;stroke:none"/><path id="path3042-5-5-4-6" d="m 310.85256,486.52723 0,-9.26657 57.01528,-16.01188 0,8.74363 z" style="fill:#353564;fill-rule:evenodd;stroke:none"/><path id="path3052-1-1-8-4" d="m 367.86784,469.99241 42.27935,30.30586 0,-9.70571 -42.27935,-29.34378 z" style="fill:#e9e9ff;fill-rule:evenodd;stroke:none"/><path id="path3050-5-2-8-1" d="m 310.85256,477.26066 38.41212,33.18435 60.88251,-19.85245 -42.27935,-29.34378 z" style="fill:#f9cc09;fill-opacity:1;fill-rule:evenodd;stroke:#000;stroke-opacity:1"/><path id="path3048-1-9-3-7" d="m 349.26468,520.79934 0,-10.35433 60.88251,-19.85245 0,9.70571 z" style="fill:#fad844;fill-opacity:1;fill-rule:evenodd;stroke:#000;stroke-opacity:1"/><path id="path3046-1-0-1-7" d="m 310.85256,486.52723 38.41212,34.27211 0,-10.35433 -38.41212,-33.18435 z" style="fill:#b59405;fill-opacity:1;fill-rule:evenodd;stroke:#000;stroke-opacity:1"/></g><g style="fill:none;stroke:none" id="g3040-4-80-9-9-9"><path id="path3044-7-1-0-0-8" d="m 311.57376,474.18163 37.88514,32.12378 60.69108,-19.55134 -41.66887,-28.39606 z" style="fill:#a00;fill-rule:evenodd;stroke:none"/><path id="path3042-5-5-4-6-9" d="m 311.57376,474.18163 0,-9.74351 56.90735,-15.27217 0,9.19206 z" style="fill:#353564;fill-rule:evenodd;stroke:none"/><path id="path3052-1-1-8-4-6" d="m 368.48111,458.35801 41.66887,28.39606 0,-10.18707 -41.66887,-27.40105 z" style="fill:#e9e9ff;fill-rule:evenodd;stroke:none"/><path id="path3050-5-2-8-1-2" d="m 311.57376,464.43812 37.88514,30.9985 60.69108,-18.86962 -41.66887,-27.40105 z" style="fill:#f9cc09;fill-opacity:1;fill-rule:evenodd;stroke:#000;stroke-opacity:1"/><path id="path3048-1-9-3-7-2" d="m 349.4589,506.30541 0,-10.86879 60.69108,-18.86962 0,10.18707 z" style="fill:#fad844;fill-opacity:1;fill-rule:evenodd;stroke:#000;stroke-opacity:1"/><path id="path3046-1-0-1-7-9" d="m 311.57376,474.18163 37.88514,32.12378 0,-10.86879 -37.88514,-30.9985 z" style="fill:#b59405;fill-opacity:1;fill-rule:evenodd;stroke:#000;stroke-opacity:1"/></g><g style="fill:none;stroke:none" id="g3040-4-80-9-9-0"><path id="path3044-7-1-0-0-1" d="m 311.20961,459.82687 38.15446,30.8384 61.78337,-18.78658 -42.01895,-27.2314 z" style="fill:#a00;fill-rule:evenodd;stroke:none"/><path id="path3042-5-5-4-6-90" d="m 311.20961,459.82687 0,-7.13089 57.91888,-14.77097 0,6.72228 z" style="fill:#353564;fill-rule:evenodd;stroke:none"/><path id="path3052-1-1-8-4-7" d="m 369.12849,444.64729 42.01895,27.2314 0,-7.4521 -42.01895,-26.50158 z" style="fill:#e9e9ff;fill-rule:evenodd;stroke:none"/><path id="path3050-5-2-8-1-9" d="m 311.20961,452.69598 38.15446,30.01169 61.78337,-18.28108 -42.01895,-26.50158 z" style="fill:#f9cc09;fill-opacity:1;fill-rule:evenodd;stroke:#000;stroke-opacity:1"/><path id="path3048-1-9-3-7-5" d="m 349.36407,490.66527 0,-7.9576 61.78337,-18.28108 0,7.4521 z" style="fill:#fad844;fill-opacity:1;fill-rule:evenodd;stroke:#000;stroke-opacity:1"/><path id="path3046-1-0-1-7-4" d="m 311.20961,459.82687 38.15446,30.8384 0,-7.9576 -38.15446,-30.01169 z" style="fill:#b59405;fill-opacity:1;fill-rule:evenodd;stroke:#000;stroke-opacity:1"/></g><text style="font-size:40px;font-style:normal;font-variant:normal;font-weight:300;font-stretch:normal;line-height:125%;letter-spacing:0;word-spacing:0;fill:#000;fill-opacity:1;stroke:none;font-family:Folks-Light;-inkscape-font-specification:Folks-Light Light" id="text7125" x="421" y="472.362" xml:space="preserve"><tspan id="tspan7127" x="421" y="472.362" style="font-size:16px;font-style:normal;font-variant:normal;font-weight:400;font-stretch:normal;font-family:Sans;-inkscape-font-specification:Sans">Relational</tspan><tspan id="tspan7129" x="421" y="492.362" style="font-size:16px;font-style:normal;font-variant:normal;font-weight:400;font-stretch:normal;font-family:Sans;-inkscape-font-specification:Sans">Database</tspan></text><path style="fill:none;stroke:#000;stroke-width:1px;stroke-linecap:butt;stroke-linejoin:miter;stroke-opacity:1" id="path7131" d="m 361,399.36218 0,50"/><text style="font-size:40px;font-style:normal;font-variant:normal;font-weight:300;font-stretch:normal;line-height:125%;letter-spacing:0;word-spacing:0;fill:#000;fill-opacity:1;stroke:none;font-family:Folks-Light;-inkscape-font-specification:Folks-Light Light" id="text7133" x="368" y="428.362" xml:space="preserve"><tspan id="tspan7135" x="368" y="428.362" style="font-size:16px;font-style:normal;font-variant:normal;font-weight:400;font-stretch:normal;font-family:Sans;-inkscape-font-specification:Sans">JDBC</tspan></text><text style="font-size:40px;font-style:normal;font-variant:normal;font-weight:300;font-stretch:normal;line-height:125%;letter-spacing:0;word-spacing:0;fill:#000;fill-opacity:1;stroke:none;font-family:Folks-Light;-inkscape-font-specification:Folks-Light Light" id="text7139" x="221.782" y="223.729" xml:space="preserve"><tspan id="tspan7141" x="221.782" y="223.729" style="font-size:16px;font-style:normal;font-variant:normal;font-weight:700;font-stretch:normal;font-family:Verdana;-inkscape-font-specification:Verdana Bold">Process Engine</tspan></text></g></svg>