<svg xmlns="http://www.w3.org/2000/svg" xmlns:svg="http://www.w3.org/2000/svg" id="svg2" width="744.094" height="1052.362" version="1.1"><defs id="defs4"><marker style="overflow:visible" id="Arrow2Lend" orient="auto" refX="0" refY="0"><path style="fill-rule:evenodd;stroke-width:.625;stroke-linejoin:round" id="path3899" d="M 8.7185878,4.0337352 L -2.2072895,0.016013256 L 8.7185884,-4.0017078 C 6.9730900,-1.6296469 6.9831476,1.6157441 8.7185878,4.0337352 z" transform="scale(1.1) rotate(180) translate(1,0)"/></marker><marker style="overflow:visible" id="Arrow2Lend-4" orient="auto" refX="0" refY="0"><path style="fill-rule:evenodd;stroke-width:.625;stroke-linejoin:round" id="path3899-2" d="M 8.7185878,4.0337352 -2.2072895,0.01601326 8.7185884,-4.0017078 c -1.7454984,2.3720609 -1.7354408,5.6174519 -6e-7,8.035443 z" transform="matrix(-1.1,0,0,-1.1,-1.1,0)"/></marker><marker style="overflow:visible" id="Arrow2Lend-2" orient="auto" refX="0" refY="0"><path style="fill-rule:evenodd;stroke-width:.625;stroke-linejoin:round" id="path3899-21" d="M 8.7185878,4.0337352 -2.2072895,0.01601326 8.7185884,-4.0017078 c -1.7454984,2.3720609 -1.7354408,5.6174519 -6e-7,8.035443 z" transform="matrix(-1.1,0,0,-1.1,-1.1,0)"/></marker><marker style="overflow:visible" id="Arrow2Lend-1" orient="auto" refX="0" refY="0"><path style="fill-rule:evenodd;stroke-width:.625;stroke-linejoin:round" id="path3899-7" d="M 8.7185878,4.0337352 -2.2072895,0.01601326 8.7185884,-4.0017078 c -1.7454984,2.3720609 -1.7354408,5.6174519 -6e-7,8.035443 z" transform="matrix(-1.1,0,0,-1.1,-1.1,0)"/></marker><marker style="overflow:visible" id="Arrow2Lend-0" orient="auto" refX="0" refY="0"><path style="fill-rule:evenodd;stroke-width:.625;stroke-linejoin:round" id="path3899-9" d="M 8.7185878,4.0337352 -2.2072895,0.01601326 8.7185884,-4.0017078 c -1.7454984,2.3720609 -1.7354408,5.6174519 -6e-7,8.035443 z" transform="matrix(-1.1,0,0,-1.1,-1.1,0)"/></marker><marker style="overflow:visible" id="Arrow2Lend-27" orient="auto" refX="0" refY="0"><path style="fill-rule:evenodd;stroke-width:.625;stroke-linejoin:round" id="path3899-6" d="M 8.7185878,4.0337352 -2.2072895,0.01601326 8.7185884,-4.0017078 c -1.7454984,2.3720609 -1.7354408,5.6174519 -6e-7,8.035443 z" transform="matrix(-1.1,0,0,-1.1,-1.1,0)"/></marker><marker style="overflow:visible" id="Arrow2Lend-27-4" orient="auto" refX="0" refY="0"><path style="fill-rule:evenodd;stroke-width:.625;stroke-linejoin:round" id="path3899-6-2" d="M 8.7185878,4.0337352 -2.2072895,0.01601326 8.7185884,-4.0017078 c -1.7454984,2.3720609 -1.7354408,5.6174519 -6e-7,8.035443 z" transform="matrix(-1.1,0,0,-1.1,-1.1,0)"/></marker><marker style="overflow:visible" id="Arrow2Lend-22" orient="auto" refX="0" refY="0"><path style="fill-rule:evenodd;stroke-width:.625;stroke-linejoin:round" id="path3899-1" d="M 8.7185878,4.0337352 -2.2072895,0.01601326 8.7185884,-4.0017078 c -1.7454984,2.3720609 -1.7354408,5.6174519 -6e-7,8.035443 z" transform="matrix(-1.1,0,0,-1.1,-1.1,0)"/></marker><marker style="overflow:visible" id="Arrow2Lend-8" orient="auto" refX="0" refY="0"><path style="fill-rule:evenodd;stroke-width:.625;stroke-linejoin:round" id="path3899-5" d="M 8.7185878,4.0337352 -2.2072895,0.01601326 8.7185884,-4.0017078 c -1.7454984,2.3720609 -1.7354408,5.6174519 -6e-7,8.035443 z" transform="matrix(-1.1,0,0,-1.1,-1.1,0)"/></marker></defs><metadata id="metadata7"/><g id="layer1"><rect id="rect2985" width="345.789" height="203.514" x="114.509" y="461.137" rx=".148" style="fill:none;stroke:#000;stroke-width:1.05925369;stroke-miterlimit:4;stroke-opacity:1;stroke-dasharray:none"/><rect id="rect2985-1" width="96.702" height="77.776" x="234.998" y="574.229" rx=".041" style="fill:none;stroke:#000;stroke-width:1.25;stroke-miterlimit:4;stroke-opacity:1;stroke-dasharray:none"/><rect id="rect2985-1-7" width="96.702" height="77.776" x="343.998" y="574.229" rx=".041" style="fill:none;stroke:#000;stroke-width:1.25;stroke-miterlimit:4;stroke-opacity:1;stroke-dasharray:none"/><rect id="rect2985-1-7-0" width="126.396" height="30.436" x="277.137" y="479.517" rx=".054" style="fill:none;stroke:#000;stroke-width:1.25;stroke-miterlimit:4;stroke-opacity:1;stroke-dasharray:none"/><text id="text4318" x="341.7" y="499.262" xml:space="preserve" style="font-size:40px;font-style:normal;font-weight:400;text-align:center;line-height:125%;letter-spacing:0;word-spacing:0;text-anchor:middle;fill:#000;fill-opacity:1;stroke:none;font-family:Sans"><tspan id="tspan4480" x="341.7" y="499.262" style="font-size:14px;text-align:center;text-anchor:middle">Process Engine</tspan></text><text id="text4318-4" x="284.563" y="646.065" xml:space="preserve" style="font-size:40px;font-style:normal;font-weight:400;text-align:center;line-height:125%;letter-spacing:0;word-spacing:0;text-anchor:middle;fill:#000;fill-opacity:1;stroke:none;font-family:Sans"><tspan id="tspan4391" x="284.563" y="646.065" style="font-size:14px;text-align:center;text-anchor:middle">invoice.war</tspan></text><text id="text4476" x="114.17" y="679.016" xml:space="preserve" style="font-size:40px;font-style:normal;font-weight:400;line-height:125%;letter-spacing:0;word-spacing:0;fill:#000;fill-opacity:1;stroke:none;font-family:Sans"><tspan id="tspan3121" x="114.17" y="679.016" style="font-size:14px">Runtime Container (Tomcat, JBoss, ...)</tspan></text><path id="path3872-6-4" d="m 321.18712,513.00877 -26.9301,46.10593" style="fill:none;stroke:#000;stroke-width:1.25;stroke-linecap:butt;stroke-linejoin:miter;stroke-opacity:1;marker-end:url(#Arrow2Lend);stroke-miterlimit:4;stroke-dasharray:2.5,1.25;stroke-dashoffset:0"/><path id="path3872-6-4-4" d="m 351.54789,512.61877 25.61749,44.21249" style="fill:none;stroke:#000;stroke-width:1.25;stroke-linecap:butt;stroke-linejoin:miter;stroke-opacity:1;marker-end:url(#Arrow2Lend);stroke-miterlimit:4;stroke-dasharray:2.5,1.25;stroke-dashoffset:0"/><text id="text4318-5-8" x="290.114" y="531.176" xml:space="preserve" style="font-size:40px;font-style:normal;font-weight:400;text-align:end;line-height:125%;letter-spacing:0;word-spacing:0;text-anchor:end;fill:#000;fill-opacity:1;stroke:none;font-family:Sans"><tspan id="tspan3149" x="290.114" y="531.176" style="font-size:12px;text-align:end;text-anchor:end">Events are dispatched</tspan><tspan id="tspan4006" x="290.114" y="546.176" style="font-size:12px;text-align:end;text-anchor:end">to correct Process Application</tspan></text><rect id="rect3982" width="23.529" height="22.876" x="276.856" y="561.97" rx=".041" style="fill:#000;fill-opacity:1;stroke:none"/><rect id="rect3982-5" width="23.529" height="22.876" x="368.667" y="559.879" rx=".041" style="fill:#000;fill-opacity:1;stroke:none"/><text id="text4014" x="394.771" y="560.205" xml:space="preserve" style="font-size:40px;font-style:normal;font-weight:400;line-height:125%;letter-spacing:0;word-spacing:0;fill:#000;fill-opacity:1;stroke:none;font-family:Sans"><tspan style="font-size:8px" id="tspan4016" x="394.771" y="560.205">Process </tspan><tspan id="tspan4018" x="394.771" y="570.205" style="font-size:8px">Application</tspan></text><text id="text4014-1" x="304.227" y="560.542" xml:space="preserve" style="font-size:40px;font-style:normal;font-weight:400;line-height:125%;letter-spacing:0;word-spacing:0;fill:#000;fill-opacity:1;stroke:none;font-family:Sans"><tspan style="font-size:8px" id="tspan4016-7" x="304.227" y="560.542">Process </tspan><tspan id="tspan4018-1" x="304.227" y="570.542" style="font-size:8px">Application</tspan></text><text id="text4048" x="210.119" y="594.689" xml:space="preserve" style="font-size:40px;font-style:normal;font-weight:400;line-height:125%;letter-spacing:0;word-spacing:0;fill:#000;fill-opacity:1;stroke:none;font-family:Sans"><tspan id="tspan4088" x="214.002" y="594.689" style="font-size:14px;text-align:end;text-anchor:end">EventListener </tspan><tspan id="tspan4411" x="210.119" y="612.189" style="font-size:14px;text-align:end;text-anchor:end">Java Class</tspan></text><rect id="rect3982-1" width="23.529" height="22.876" x="276.856" y="605.173" rx=".041" style="fill:red;fill-opacity:1;stroke:none"/><rect id="rect3982-1-5" width="23.529" height="22.876" x="368.667" y="603.983" rx=".041" style="fill:red;fill-opacity:1;stroke:none"/><path id="path3872-6-4-6" d="m 287.60456,584.50024 -0.28404,19.31038" style="fill:none;stroke:#000;stroke-width:.77217436;stroke-linecap:butt;stroke-linejoin:miter;stroke-miterlimit:4;stroke-opacity:1;stroke-dasharray:1.54434865,.77217433;stroke-dashoffset:0;marker-end:url(#Arrow2Lend)"/><path id="path3872-6-4-6-7" d="m 380.58039,582.91014 -0.28404,19.31038" style="fill:none;stroke:#000;stroke-width:.77217436;stroke-linecap:butt;stroke-linejoin:miter;stroke-miterlimit:4;stroke-opacity:1;stroke-dasharray:1.54434865,.77217433;stroke-dashoffset:0;marker-end:url(#Arrow2Lend)"/><text id="text4318-4-6" x="392.481" y="645.524" xml:space="preserve" style="font-size:40px;font-style:normal;font-weight:400;text-align:center;line-height:125%;letter-spacing:0;word-spacing:0;text-anchor:middle;fill:#000;fill-opacity:1;stroke:none;font-family:Sans"><tspan id="tspan4391-1" x="392.481" y="645.524" style="font-size:14px;text-align:center;text-anchor:middle">shipment.ear</tspan></text><path id="path4415" d="m 212.56593,599.41177 62.44984,17.35181" style="fill:none;stroke:#000;stroke-width:1.29524994px;stroke-linecap:butt;stroke-linejoin:miter;stroke-opacity:1"/></g></svg>