<svg xmlns="http://www.w3.org/2000/svg" xmlns:svg="http://www.w3.org/2000/svg" id="svg2" width="744.094" height="1052.362" version="1.1"><defs id="defs4"><marker id="Arrow1Send" orient="auto" refX="0" refY="0" style="overflow:visible"><path id="path4339" d="M 0.0,0.0 L 5.0,-5.0 L -12.5,0.0 L 5.0,5.0 L 0.0,0.0 z" transform="scale(0.2) rotate(180) translate(6,0)" style="fill-rule:evenodd;stroke:#000;stroke-width:1pt"/></marker><marker id="TriangleOutL" orient="auto" refX="0" refY="0" style="overflow:visible"><path id="path4436" d="M 5.77,0.0 L -2.88,5.0 L -2.88,-5.0 L 5.77,0.0 z" transform="scale(0.8)" style="fill-rule:evenodd;stroke:#000;stroke-width:1pt"/></marker><marker id="TriangleOutM" orient="auto" refX="0" refY="0" style="overflow:visible"><path id="path4439" d="M 5.77,0.0 L -2.88,5.0 L -2.88,-5.0 L 5.77,0.0 z" transform="scale(0.4)" style="fill-rule:evenodd;stroke:#000;stroke-width:1pt"/></marker><marker id="Arrow2Mend" orient="auto" refX="0" refY="0" style="overflow:visible"><path id="path4321" d="M 8.7185878,4.0337352 L -2.2072895,0.016013256 L 8.7185884,-4.0017078 C 6.9730900,-1.6296469 6.9831476,1.6157441 8.7185878,4.0337352 z" transform="scale(0.6) rotate(180) translate(0,0)" style="fill-rule:evenodd;stroke-width:.625;stroke-linejoin:round"/></marker><marker id="Arrow2Lend" orient="auto" refX="0" refY="0" style="overflow:visible"><path id="path3899" d="M 8.7185878,4.0337352 L -2.2072895,0.016013256 L 8.7185884,-4.0017078 C 6.9730900,-1.6296469 6.9831476,1.6157441 8.7185878,4.0337352 z" transform="scale(1.1) rotate(180) translate(1,0)" style="fill-rule:evenodd;stroke-width:.625;stroke-linejoin:round"/></marker><marker id="Arrow2Lend-4" orient="auto" refX="0" refY="0" style="overflow:visible"><path id="path3899-2" d="M 8.7185878,4.0337352 -2.2072895,0.01601326 8.7185884,-4.0017078 c -1.7454984,2.3720609 -1.7354408,5.6174519 -6e-7,8.035443 z" transform="matrix(-1.1,0,0,-1.1,-1.1,0)" style="fill-rule:evenodd;stroke-width:.625;stroke-linejoin:round"/></marker><marker id="Arrow2Lend-2" orient="auto" refX="0" refY="0" style="overflow:visible"><path id="path3899-21" d="M 8.7185878,4.0337352 -2.2072895,0.01601326 8.7185884,-4.0017078 c -1.7454984,2.3720609 -1.7354408,5.6174519 -6e-7,8.035443 z" transform="matrix(-1.1,0,0,-1.1,-1.1,0)" style="fill-rule:evenodd;stroke-width:.625;stroke-linejoin:round"/></marker><marker id="TriangleOutM-2" orient="auto" refX="0" refY="0" style="overflow:visible"><path id="path4439-4" d="m 5.77,0 -8.65,5 0,-10 8.65,5 z" transform="scale(0.4,0.4)" style="fill-rule:evenodd;stroke:#000;stroke-width:1pt"/></marker><marker id="TriangleOutM-5" orient="auto" refX="0" refY="0" style="overflow:visible"><path id="path4439-1" d="m 5.77,0 -8.65,5 0,-10 8.65,5 z" transform="scale(0.4,0.4)" style="fill-rule:evenodd;stroke:#000;stroke-width:1pt"/></marker><marker id="TriangleOutM-8" orient="auto" refX="0" refY="0" style="overflow:visible"><path id="path4439-7" d="m 5.77,0 -8.65,5 0,-10 8.65,5 z" transform="scale(0.4,0.4)" style="fill-rule:evenodd;stroke:#000;stroke-width:1pt"/></marker><marker id="TriangleOutM-7" orient="auto" refX="0" refY="0" style="overflow:visible"><path id="path4439-9" d="m 5.77,0 -8.65,5 0,-10 8.65,5 z" transform="scale(0.4,0.4)" style="fill-rule:evenodd;stroke:#000;stroke-width:1pt"/></marker><marker id="TriangleOutM-86" orient="auto" refX="0" refY="0" style="overflow:visible"><path id="path4439-5" d="m 5.77,0 -8.65,5 0,-10 8.65,5 z" transform="scale(0.4,0.4)" style="fill-rule:evenodd;stroke:#000;stroke-width:1pt"/></marker><marker id="TriangleOutM-865" orient="auto" refX="0" refY="0" style="overflow:visible"><path id="path4439-0" d="m 5.77,0 -8.65,5 0,-10 8.65,5 z" transform="scale(0.4,0.4)" style="fill-rule:evenodd;stroke:#000;stroke-width:1pt"/></marker><marker id="TriangleOutM-0" orient="auto" refX="0" refY="0" style="overflow:visible"><path id="path4439-06" d="m 5.77,0 -8.65,5 0,-10 8.65,5 z" transform="scale(0.4,0.4)" style="fill-rule:evenodd;stroke:#000;stroke-width:1pt"/></marker><marker id="TriangleOutM-3" orient="auto" refX="0" refY="0" style="overflow:visible"><path id="path4439-8" d="m 5.77,0 -8.65,5 0,-10 8.65,5 z" transform="scale(0.4,0.4)" style="fill-rule:evenodd;stroke:#000;stroke-width:1pt"/></marker><marker id="TriangleOutM-6" orient="auto" refX="0" refY="0" style="overflow:visible"><path id="path4439-18" d="m 5.77,0 -8.65,5 0,-10 8.65,5 z" transform="scale(0.4,0.4)" style="fill-rule:evenodd;stroke:#000;stroke-width:1pt"/></marker><marker id="TriangleOutM-36" orient="auto" refX="0" refY="0" style="overflow:visible"><path id="path4439-15" d="m 5.77,0 -8.65,5 0,-10 8.65,5 z" transform="scale(0.4,0.4)" style="fill-rule:evenodd;stroke:#000;stroke-width:1pt"/></marker><marker id="TriangleOutM-6-6" orient="auto" refX="0" refY="0" style="overflow:visible"><path id="path4439-18-0" d="m 5.77,0 -8.65,5 0,-10 8.65,5 z" transform="scale(0.4,0.4)" style="fill-rule:evenodd;stroke:#000;stroke-width:1pt"/></marker><marker id="TriangleOutM-6-4" orient="auto" refX="0" refY="0" style="overflow:visible"><path id="path4439-18-1" d="m 5.77,0 -8.65,5 0,-10 8.65,5 z" transform="scale(0.4,0.4)" style="fill-rule:evenodd;stroke:#000;stroke-width:1pt"/></marker><marker id="TriangleOutM-6-1" orient="auto" refX="0" refY="0" style="overflow:visible"><path id="path4439-18-7" d="m 5.77,0 -8.65,5 0,-10 8.65,5 z" transform="scale(0.4,0.4)" style="fill-rule:evenodd;stroke:#000;stroke-width:1pt"/></marker><marker id="TriangleOutM-6-7" orient="auto" refX="0" refY="0" style="overflow:visible"><path id="path4439-18-73" d="m 5.77,0 -8.65,5 0,-10 8.65,5 z" transform="scale(0.4,0.4)" style="fill-rule:evenodd;stroke:#000;stroke-width:1pt"/></marker><marker id="TriangleOutM-6-3" orient="auto" refX="0" refY="0" style="overflow:visible"><path id="path4439-18-5" d="m 5.77,0 -8.65,5 0,-10 8.65,5 z" transform="scale(0.4,0.4)" style="fill-rule:evenodd;stroke:#000;stroke-width:1pt"/></marker><marker id="TriangleOutM-6-66" orient="auto" refX="0" refY="0" style="overflow:visible"><path id="path4439-18-03" d="m 5.77,0 -8.65,5 0,-10 8.65,5 z" transform="scale(0.4,0.4)" style="fill-rule:evenodd;stroke:#000;stroke-width:1pt"/></marker><marker id="TriangleOutM-6-0" orient="auto" refX="0" refY="0" style="overflow:visible"><path id="path4439-18-12" d="m 5.77,0 -8.65,5 0,-10 8.65,5 z" transform="scale(0.4,0.4)" style="fill-rule:evenodd;stroke:#000;stroke-width:1pt"/></marker><marker id="TriangleOutM-6-09" orient="auto" refX="0" refY="0" style="overflow:visible"><path id="path4439-18-4" d="m 5.77,0 -8.65,5 0,-10 8.65,5 z" transform="scale(0.4,0.4)" style="fill-rule:evenodd;stroke:#000;stroke-width:1pt"/></marker><marker id="TriangleOutM-6-8" orient="auto" refX="0" refY="0" style="overflow:visible"><path id="path4439-18-3" d="m 5.77,0 -8.65,5 0,-10 8.65,5 z" transform="scale(0.4,0.4)" style="fill-rule:evenodd;stroke:#000;stroke-width:1pt"/></marker><marker id="TriangleOutM-6-2" orient="auto" refX="0" refY="0" style="overflow:visible"><path id="path4439-18-01" d="m 5.77,0 -8.65,5 0,-10 8.65,5 z" transform="scale(0.4,0.4)" style="fill-rule:evenodd;stroke:#000;stroke-width:1pt"/></marker></defs><metadata id="metadata7"/><g id="layer1"><rect style="fill:#1e1e1e;fill-opacity:1;stroke:none" id="rect7485-8-1" width="120.896" height="46.269" x="471.97" y="274.75" rx=".044"/><rect style="fill:none;stroke:#1a1a1a;stroke-opacity:1" id="rect7485-8" width="107.463" height="46.269" x="266.451" y="275.228" rx=".039"/><rect style="fill:#1e1e1e;fill-opacity:1;stroke:none" id="rect7485" width="107.463" height="43.284" x="266.451" y="426.541" rx=".039"/><text style="font-size:40px;font-style:normal;font-weight:400;text-align:center;line-height:125%;letter-spacing:0;word-spacing:0;text-anchor:middle;fill:#fff9f9;fill-opacity:1;stroke:none;font-family:Sans" id="text4318-4-7-4" x="320.12" y="292.429" xml:space="preserve"><tspan style="font-size:16px;text-align:center;text-anchor:middle;fill:#000;fill-opacity:1" id="tspan4391-4-8" x="320.12" y="292.429">BPMN 2.0</tspan><tspan style="font-size:16px;text-align:center;text-anchor:middle;fill:#000;fill-opacity:1" id="tspan3064-0-8" x="320.12" y="312.429">Core Engine</tspan></text><g style="fill:none;stroke:none" id="g3040-4-80-9-9-4"><path id="path3044-7-1-0-0-2" d="m 229.04862,569.98503 27.37539,24.4249 43.38948,-14.61062 -30.13147,-21.59825 z" style="fill:#a00;fill-rule:evenodd;stroke:none"/><path id="path3042-5-5-4-6-3" d="m 229.04862,569.98503 0,-6.60407 40.6334,-11.41127 0,6.23137 z" style="fill:#353564;fill-rule:evenodd;stroke:none"/><path id="path3052-1-1-8-4-2" d="m 269.68202,558.20106 30.13147,21.59825 0,-6.91702 -30.13147,-20.9126 z" style="fill:#e9e9ff;fill-rule:evenodd;stroke:none"/><path id="path3050-5-2-8-1-21" d="m 229.04862,563.38096 27.37539,23.64968 43.38948,-14.14835 -30.13147,-20.9126 z" style="fill:#2a69b7;fill-opacity:1;fill-rule:evenodd;stroke:#000;stroke-width:.71267569;stroke-opacity:1"/><path id="path3048-1-9-3-7-6" d="m 256.42401,594.40993 0,-7.37929 43.38948,-14.14835 0,6.91702 z" style="fill:#3688ec;fill-opacity:1;fill-rule:evenodd;stroke:#000;stroke-width:.71267569;stroke-opacity:1"/><path id="path3046-1-0-1-7-8" d="m 229.04862,569.98503 27.37539,24.4249 0,-7.37929 -27.37539,-23.64968 z" style="fill:#1c487d;fill-opacity:1;fill-rule:evenodd;stroke:#000;stroke-width:.71267569;stroke-opacity:1"/></g><g style="fill:none;stroke:none" id="g3040-4-80-9-9-9-5"><path id="path3044-7-1-0-0-8-7" d="m 229.56261,561.18661 26.99981,22.89383 43.25305,-13.93376 -29.69638,-20.23718 z" style="fill:#a00;fill-rule:evenodd;stroke:none"/><path id="path3042-5-5-4-6-9-6" d="m 229.56261,561.18661 0,-6.94396 40.55648,-10.88411 0,6.55096 z" style="fill:#353564;fill-rule:evenodd;stroke:none"/><path id="path3052-1-1-8-4-6-1" d="m 270.11909,549.9095 29.69638,20.23718 0,-7.26008 -29.69638,-19.52806 z" style="fill:#e9e9ff;fill-rule:evenodd;stroke:none"/><path id="path3050-5-2-8-1-2-8" d="m 229.56261,554.24265 26.99981,22.09187 43.25305,-13.44792 -29.69638,-19.52806 z" style="fill:#2a69b7;fill-opacity:1;fill-rule:evenodd;stroke:#000;stroke-width:.71267569;stroke-opacity:1"/><path id="path3048-1-9-3-7-2-9" d="m 256.56242,584.08044 0,-7.74592 43.25305,-13.44792 0,7.26008 z" style="fill:#3688ec;fill-opacity:1;fill-rule:evenodd;stroke:#000;stroke-width:.71267569;stroke-opacity:1"/><path id="path3046-1-0-1-7-9-2" d="m 229.56261,561.18661 26.99981,22.89383 0,-7.74592 -26.99981,-22.09187 z" style="fill:#1c487d;fill-opacity:1;fill-rule:evenodd;stroke:#000;stroke-width:.71267569;stroke-opacity:1"/></g><g style="fill:none;stroke:none" id="g3040-4-80-9-9-0-7"><path id="path3044-7-1-0-0-1-9" d="m 229.30308,550.95633 27.19176,21.97777 44.0315,-13.38873 -29.94589,-19.40716 z" style="fill:#a00;fill-rule:evenodd;stroke:none"/><path id="path3042-5-5-4-6-90-5" d="m 229.30308,550.95633 0,-5.08202 41.27737,-10.52691 0,4.79081 z" style="fill:#353564;fill-rule:evenodd;stroke:none"/><path id="path3052-1-1-8-4-7-4" d="m 270.58045,540.13821 29.94589,19.40716 0,-5.31094 -29.94589,-18.88703 z" style="fill:#e9e9ff;fill-rule:evenodd;stroke:none"/><path id="path3050-5-2-8-1-9-3" d="m 229.30308,545.87431 27.19176,21.3886 44.0315,-13.02848 -29.94589,-18.88703 z" style="fill:#2a69b7;fill-opacity:1;fill-rule:evenodd;stroke:#000;stroke-width:.71267569;stroke-opacity:1"/><path id="path3048-1-9-3-7-5-1" d="m 256.49484,572.9341 0,-5.67119 44.0315,-13.02848 0,5.31094 z" style="fill:#3688ec;fill-opacity:1;fill-rule:evenodd;stroke:#000;stroke-width:.71267569;stroke-opacity:1"/><path id="path3046-1-0-1-7-4-2" d="m 229.30308,550.95633 27.19176,21.97777 0,-5.67119 -27.19176,-21.3886 z" style="fill:#1c487d;fill-opacity:1;fill-rule:evenodd;stroke:#000;stroke-width:.71267569;stroke-opacity:1"/></g><text style="font-size:40px;font-style:normal;font-variant:normal;font-weight:300;font-stretch:normal;text-align:center;line-height:125%;letter-spacing:0;word-spacing:0;text-anchor:middle;fill:#000;fill-opacity:1;stroke:none;font-family:Folks-Light;-inkscape-font-specification:Folks-Light Light" id="text7125-1" x="258.296" y="610.434" xml:space="preserve"><tspan id="tspan7129-3" x="259.96" y="610.434" style="font-size:12px;font-style:normal;font-variant:normal;font-weight:400;font-stretch:normal;text-align:center;text-anchor:middle;font-family:Sans;-inkscape-font-specification:Sans">Default History </tspan><tspan style="font-size:12px;font-style:normal;font-variant:normal;font-weight:400;font-stretch:normal;text-align:center;text-anchor:middle;font-family:Sans;-inkscape-font-specification:Sans" id="tspan5396" x="258.296" y="625.434">Database</tspan></text><path style="fill:none;stroke:#000;stroke-width:2.5;stroke-linecap:butt;stroke-linejoin:miter;stroke-miterlimit:4;stroke-opacity:1;stroke-dasharray:7.5,2.5;stroke-dashoffset:0;marker-end:url(#TriangleOutM-6)" id="path5510-5-7-9-1" d="m 304.69531,489.72517 -26.08652,32.14316"/><text style="font-size:40px;font-style:normal;font-weight:400;text-align:center;line-height:125%;letter-spacing:0;word-spacing:0;text-anchor:middle;fill:#fff9f9;fill-opacity:1;stroke:none;font-family:Sans" id="text4318-4-7-4-3" x="532.608" y="293.517" xml:space="preserve"><tspan style="font-size:16px;text-align:center;text-anchor:middle;fill:#fff9f9;fill-opacity:1" id="tspan4391-4-8-7" x="534.827" y="293.517">History </tspan><tspan style="font-size:16px;text-align:center;text-anchor:middle;fill:#fff9f9;fill-opacity:1" id="tspan3064-0-8-2" x="532.608" y="313.517">Event Producer</tspan></text><text style="font-size:40px;font-style:normal;font-variant:normal;font-weight:300;font-stretch:normal;line-height:125%;letter-spacing:0;word-spacing:0;fill:#000;fill-opacity:1;stroke:none;font-family:Folks-Light;-inkscape-font-specification:Folks-Light Light" id="text7209" x="391.403" y="278.959" xml:space="preserve"><tspan id="tspan7211" x="391.403" y="278.959" style="font-size:10px;font-style:normal;font-variant:normal;font-weight:400;font-stretch:normal;font-family:Consolas;-inkscape-font-specification:Consolas">createEvent()</tspan></text><text style="font-size:40px;font-style:normal;font-weight:400;text-align:center;line-height:125%;letter-spacing:0;word-spacing:0;text-anchor:middle;fill:#fff;fill-opacity:1;stroke:none;font-family:Sans" id="text4318-4-7-4-3-5" x="319.597" y="443.816" xml:space="preserve"><tspan style="font-size:16px;text-align:center;text-anchor:middle;fill:#fff;fill-opacity:1" id="tspan4391-4-8-7-7" x="321.816" y="443.816">History </tspan><tspan style="font-size:16px;text-align:center;text-anchor:middle;fill:#fff;fill-opacity:1" id="tspan3064-0-8-2-5" x="319.597" y="463.816">Event Handler</tspan></text><rect style="fill:#1e1e1e;fill-opacity:1;stroke:none" id="rect7264" width="17.164" height="33.582" x="311.601" y="356.571" rx=".046"/><path style="fill:none;stroke:#000;stroke-width:2.2656579;stroke-linecap:butt;stroke-linejoin:miter;stroke-miterlimit:4;stroke-opacity:1;stroke-dasharray:6.79697342,2.26565781;stroke-dashoffset:0;marker-end:url(#TriangleOutM-6)" id="path5510-5-7-9-1-2" d="m 320.18283,396.29158 0,20.17121"/><text style="font-size:40px;font-style:normal;font-variant:normal;font-weight:300;font-stretch:normal;line-height:125%;letter-spacing:0;word-spacing:0;fill:#000;fill-opacity:1;stroke:none;font-family:Folks-Light;-inkscape-font-specification:Folks-Light Light" id="text7290" x="214.294" y="367.974" xml:space="preserve"><tspan id="tspan7292" x="214.294" y="367.974" style="font-size:12px;font-style:normal;font-variant:normal;font-weight:700;font-stretch:normal;text-align:end;text-anchor:end;font-family:Arial;-inkscape-font-specification:Arial Bold">History Event Transport</tspan><tspan id="tspan7294" x="214.294" y="383.01" style="font-size:12px;font-style:oblique;font-variant:normal;font-weight:400;font-stretch:normal;text-align:end;text-anchor:end;font-family:Arial;-inkscape-font-specification:Arial Oblique">(Default: In-JVM, Sync)</tspan></text><path style="fill:none;stroke:#000;stroke-width:1.00932384px;stroke-linecap:butt;stroke-linejoin:miter;stroke-opacity:1" id="path7296" d="m 225.3854,373.46666 79.82622,0"/><text style="font-size:40px;font-style:normal;font-variant:normal;font-weight:300;font-stretch:normal;line-height:125%;letter-spacing:0;word-spacing:0;fill:#000;fill-opacity:1;stroke:none;font-family:Folks-Light;-inkscape-font-specification:Folks-Light Light" id="text7290-0" x="633.075" y="335.697" xml:space="preserve"><tspan id="tspan7294-1" x="633.075" y="335.697" style="font-size:12px;font-style:oblique;font-variant:normal;font-weight:400;font-stretch:normal;text-align:end;text-anchor:end;font-family:Arial;-inkscape-font-specification:Arial Oblique">(Default: DefaultHistoryEventProducer)</tspan></text><text style="font-size:40px;font-style:normal;font-variant:normal;font-weight:300;font-stretch:normal;line-height:125%;letter-spacing:0;word-spacing:0;fill:#000;fill-opacity:1;stroke:none;font-family:Folks-Light;-inkscape-font-specification:Folks-Light Light" id="text7290-0-4" x="422.283" y="483.378" xml:space="preserve"><tspan id="tspan7294-1-6" x="422.283" y="483.378" style="font-size:12px;font-style:oblique;font-variant:normal;font-weight:400;font-stretch:normal;text-align:end;text-anchor:end;font-family:Arial;-inkscape-font-specification:Arial Oblique">(Default: DbHistoryEventHandler)</tspan></text><text style="font-size:40px;font-style:normal;font-variant:normal;font-weight:300;font-stretch:normal;line-height:125%;letter-spacing:0;word-spacing:0;fill:#000;fill-opacity:1;stroke:none;font-family:Folks-Light;-inkscape-font-specification:Folks-Light Light" id="text7209-0" x="238.431" y="411.42" xml:space="preserve"><tspan id="tspan7211-7" x="238.431" y="411.42" style="font-size:10px;font-style:normal;font-variant:normal;font-weight:400;font-stretch:normal;font-family:Consolas;-inkscape-font-specification:Consolas">handleEvent()</tspan></text><path style="fill:none;stroke:#000;stroke-width:2.5;stroke-linecap:butt;stroke-linejoin:miter;stroke-miterlimit:4;stroke-opacity:1;stroke-dasharray:7.5,2.5;stroke-dashoffset:0;marker-end:url(#TriangleOutM-6)" id="path5510-5-7-9-1-7" d="m 315.0184,493.37922 35.43531,69.96777"/><path style="fill:none;stroke:#000;stroke-width:2.5;stroke-linecap:butt;stroke-linejoin:miter;stroke-miterlimit:4;stroke-opacity:1;stroke-dasharray:7.5,2.5;stroke-dashoffset:0;marker-end:url(#TriangleOutM-6)" id="path5510-5-7-9-1-7-9" d="m 324.8667,488.23646 95.49124,83.53011"/><text style="font-size:40px;font-style:normal;font-variant:normal;font-weight:300;font-stretch:normal;text-align:center;line-height:125%;letter-spacing:0;word-spacing:0;text-anchor:middle;fill:#000;fill-opacity:1;stroke:none;font-family:Folks-Light;-inkscape-font-specification:Folks-Light Light" id="text7125-1-9" x="408.377" y="594.66" xml:space="preserve"><tspan style="font-size:16px;font-style:normal;font-variant:normal;font-weight:700;font-stretch:normal;text-align:center;text-anchor:middle;font-family:Sans;-inkscape-font-specification:Sans Bold" id="tspan5396-1" x="408.377" y="594.66">Alternative</tspan><tspan style="font-size:16px;font-style:normal;font-variant:normal;font-weight:700;font-stretch:normal;text-align:center;text-anchor:middle;font-family:Sans;-inkscape-font-specification:Sans Bold" id="tspan7483" x="408.377" y="614.66">Data-Stores</tspan></text><path style="fill:none;stroke:#000;stroke-width:1.875;stroke-linecap:butt;stroke-linejoin:miter;stroke-miterlimit:4;stroke-opacity:1;stroke-dasharray:5.625,1.875;stroke-dashoffset:0;marker-end:url(#TriangleOutM-6)" id="path5510-5-7-9-1-7-9-8-5" d="m 465.63391,303.82465 -84.78652,0"/><path style="fill:none;stroke:#000;stroke-width:2.2656579;stroke-linecap:butt;stroke-linejoin:miter;stroke-miterlimit:4;stroke-opacity:1;stroke-dasharray:6.79697342,2.26565781;stroke-dashoffset:0;marker-end:url(#TriangleOutM-6)" id="path5510-5-7-9-1-2-5" d="m 320.18283,327.25865 0,20.17121"/><path style="fill:none;stroke:#000;stroke-width:1.875;stroke-linecap:butt;stroke-linejoin:miter;stroke-miterlimit:4;stroke-opacity:1;stroke-dasharray:5.625,1.875;stroke-dashoffset:0;marker-end:url(#TriangleOutM-6)" id="path5510-5-7-9-1-7-9-8-5-6" d="m 378.8117,288.92934 84.78652,0"/><text style="font-size:40px;font-style:normal;font-variant:normal;font-weight:300;font-stretch:normal;line-height:125%;letter-spacing:0;word-spacing:0;fill:#000;fill-opacity:1;stroke:none;font-family:Folks-Light;-inkscape-font-specification:Folks-Light Light" id="text7290-4" x="181.015" y="450.384" xml:space="preserve"><tspan id="tspan7294-6" x="181.015" y="450.384" style="font-size:12px;font-style:normal;font-variant:normal;font-weight:700;font-stretch:normal;text-align:end;text-anchor:end;font-family:Arial;-inkscape-font-specification:Arial Bold">History Backend</tspan></text><path style="fill:none;stroke:#000;stroke-width:1;stroke-linecap:butt;stroke-linejoin:miter;stroke-miterlimit:4;stroke-opacity:1;stroke-dasharray:none" id="path7296-1" d="m 189.69795,447.88457 67.29066,0"/></g></svg>