<svg xmlns="http://www.w3.org/2000/svg" xmlns:xlink="http://www.w3.org/1999/xlink" width="889" height="490" version="1.1" viewBox="250 174 889 490"><defs><marker id="markerSivxt18moq6" markerHeight="10" markerWidth="10" orient="auto" refX="11" refY="10" viewBox="0 0 20 20"><path fill="#000" d="M 1 5 L 11 10 L 1 15 Z" style="stroke-width:1;stroke-linecap:round;stroke-dasharray:10000,1"/></marker><marker id="markerSivxt18moq8" markerHeight="20" markerWidth="20" orient="auto" refX="6" refY="6" viewBox="0 0 20 20"><circle cx="6" cy="6" r="3.5" fill="#fff" stroke="#000" style="stroke-width:1;stroke-linecap:round;stroke-dasharray:10000,1"/></marker><marker id="markerSivxt18moqa" markerHeight="20" markerWidth="20" orient="auto" refX="8.5" refY="5" viewBox="0 0 20 20"><path fill="#fff" stroke="#000" d="m 1 5 l 0 -3 l 7 3 l -7 3 z" style="stroke-width:1;stroke-linecap:butt;stroke-dasharray:10000,1"/></marker><marker id="markerSivxt18moqc" markerHeight="10" markerWidth="10" orient="auto" refX="1" refY="10" viewBox="0 0 20 20"><path fill="none" stroke="#000" d="M 11 5 L 1 10 L 11 15" style="stroke-width:1.5;stroke-linecap:round;stroke-dasharray:10000,1"/></marker><marker id="markerSivxt18moqe" markerHeight="10" markerWidth="10" orient="auto" refX="12" refY="10" viewBox="0 0 20 20"><path fill="none" stroke="#000" d="M 1 5 L 11 10 L 1 15" style="stroke-width:1.5;stroke-linecap:round;stroke-dasharray:10000,1"/></marker><marker id="markerSivxt18moqg" markerHeight="10" markerWidth="10" orient="auto" refX="-1" refY="10" viewBox="0 0 20 20"><path fill="#fff" stroke="#000" d="M 0 10 L 8 6 L 16 10 L 8 14 Z" style="stroke-width:1;stroke-linecap:round;stroke-dasharray:10000,1"/></marker><marker id="markerSivxt18moqi" markerHeight="10" markerWidth="10" orient="auto" refX="-5" refY="10" viewBox="0 0 20 20"><path fill="#000" stroke="#000" d="M 1 4 L 5 16" style="stroke-width:1;stroke-linecap:round;stroke-dasharray:10000,1"/></marker></defs><g xmlns="http://www.w3.org/2000/svg" class="djs-group"><g class="djs-element djs-shape" data-element-id="StartEvent_1" transform="matrix(1,0,0,1,266,304)" style="display:block"><g class="djs-visual"><circle cx="18" cy="18" r="18" fill="#fff" stroke="#000" style="stroke-width:2"/><path fill="#fff" stroke="#000" d="m 8.459999999999999,11.34 l 0,12.6 l 18.900000000000002,0 l 0,-12.6 z l 9.450000000000001,5.4 l 9.450000000000001,-5.4" style="stroke-width:1"/></g><rect width="36" height="36" x="0" y="0" fill="none" stroke="#fff" class="djs-hit" style="stroke-opacity:0;stroke-width:15"/><rect width="48" height="48" x="-6" y="-6" fill="none" class="djs-outline"/></g></g><g xmlns="http://www.w3.org/2000/svg" class="djs-group"><g class="djs-element djs-shape" data-element-id="StartEvent_1_label" transform="matrix(1,0,0,1,257,340)" style="display:block"><g class="djs-visual"><text class="djs-label" transform="matrix(1,0,0,1,-18.0625,0)" style="font-family:Arial,sans-serif;font-size:11px"><tspan x="22.078" y="12">Recieved </tspan><tspan x="18.086" y="24.172">Application</tspan></text></g><rect width="54" height="25" x="0" y="0" fill="none" stroke="#fff" class="djs-hit" style="stroke-opacity:0;stroke-width:15"/><rect width="66" height="37" x="-6" y="-6" fill="none" class="djs-outline"/></g></g><g xmlns="http://www.w3.org/2000/svg" class="djs-group"><g class="djs-element djs-shape" data-element-id="Task_1vtii2s" transform="matrix(1,0,0,1,391,282)" style="display:block"><g class="djs-visual"><rect width="100" height="80" x="0" y="0" fill="#fff" stroke="#000" rx="10" ry="10" style="stroke-width:2"/><text class="djs-label" style="font-family:Arial,sans-serif;font-size:12px"><tspan x="31.984" y="36.5">Assign </tspan><tspan x="22.914" y="50.5">Processor</tspan></text><path fill="none" stroke="#000" d="m 15,12 c 0.909,-0.845 1.594,-2.049 1.594,-3.385 0,-2.554 -1.805,-4.62199999 -4.357,-4.62199999 -2.55199998,0 -4.28799998,2.06799999 -4.28799998,4.62199999 0,1.348 0.974,2.562 1.89599998,3.405 -0.52899998,0.187 -5.669,2.097 -5.794,4.7560005 v 6.718 h 17 v -6.718 c 0,-2.2980005 -5.5279996,-4.5950005 -6.0509996,-4.7760005 zm -8,6 l 0,5.5 m 11,0 l 0,-5" style="stroke-width:.5"/><path fill="none" stroke="#000" d="m 15,12 m 2.162,1.009 c 0,2.4470005 -2.158,4.4310005 -4.821,4.4310005 -2.66499998,0 -4.822,-1.981 -4.822,-4.4310005" style="stroke-width:.5"/><path fill="#000" stroke="#000" d="m 15,12 m -6.9,-3.80 c 0,0 2.25099998,-2.358 4.27399998,-1.177 2.024,1.181 4.221,1.537 4.124,0.965 -0.098,-0.57 -0.117,-3.79099999 -4.191,-4.13599999 -3.57499998,0.001 -4.20799998,3.36699999 -4.20699998,4.34799999 z" style="stroke-width:.5"/></g><rect width="100" height="80" x="0" y="0" fill="none" stroke="#fff" class="djs-hit" style="stroke-opacity:0;stroke-width:15"/><rect width="112" height="92" x="-6" y="-6" fill="none" class="djs-outline"/></g></g><g xmlns="http://www.w3.org/2000/svg" class="djs-group"><g class="djs-element djs-shape" data-element-id="IntermediateThrowEvent_1sqjbru" transform="matrix(1,0,0,1,562,304)" style="display:block"><g class="djs-visual"><circle cx="18" cy="18" r="18" fill="#fff" stroke="#000" style="stroke-width:1"/><circle cx="18" cy="18" r="15" fill="none" stroke="#000" style="stroke-width:1"/><path fill="none" stroke="#000" d="M 10.5,8.5 l 14.5,0 l 0,18 l -14.5,0 Z M 12.5,11.5 l 10.5,0 M 12.5,14.5 l 10.5,0 M 12.5,17.5 l 10.5,0 M 12.5,20.5 l 10.5,0 M 12.5,23.5 l 10.5,0 M 12.5,26.5 l 10.5,0" style="stroke-width:1"/></g><rect width="36" height="36" x="0" y="0" fill="none" stroke="#fff" class="djs-hit" style="stroke-opacity:0;stroke-width:15"/><rect width="48" height="48" x="-6" y="-6" fill="none" class="djs-outline"/></g></g><g xmlns="http://www.w3.org/2000/svg" class="djs-group"><g class="djs-element djs-shape" data-element-id="IntermediateThrowEvent_1sqjbru_label" transform="matrix(1,0,0,1,556,340)" style="display:block"><g class="djs-visual"><text class="djs-label" transform="matrix(1,0,0,1,-20.1719,0)" style="font-family:Arial,sans-serif;font-size:11px"><tspan x="20.172" y="12">Processor </tspan><tspan x="20.234" y="24">available?</tspan></text></g><rect width="53" height="24" x="0" y="0" fill="none" stroke="#fff" class="djs-hit" style="stroke-opacity:0;stroke-width:15"/><rect width="65" height="36" x="-6" y="-6" fill="none" class="djs-outline"/></g></g><g xmlns="http://www.w3.org/2000/svg" class="djs-group"><g class="djs-element djs-shape" data-element-id="Task_1whovek" transform="matrix(1,0,0,1,256,458)" style="display:block"><g class="djs-visual"><rect width="350" height="200" x="0" y="0" fill="#fff" stroke="#000" rx="10" ry="10" style="stroke-width:2;fill-opacity:.95;stroke-dasharray:1,2"/></g><rect width="350" height="200" x="0" y="0" fill="none" stroke="#fff" class="djs-hit" style="stroke-opacity:0;stroke-width:15"/><rect width="362" height="212" x="-6" y="-6" fill="none" class="djs-outline"/></g><g class="djs-children"><g class="djs-group"><g class="djs-element djs-shape" data-element-id="StartEvent_16wz929" transform="matrix(1,0,0,1,283,542)" style="display:block"><g class="djs-visual"><circle cx="18" cy="18" r="18" fill="#fff" stroke="#000" style="stroke-width:2"/><path fill="none" stroke="#000" d="M 10.5,8.5 l 14.5,0 l 0,18 l -14.5,0 Z M 12.5,11.5 l 10.5,0 M 12.5,14.5 l 10.5,0 M 12.5,17.5 l 10.5,0 M 12.5,20.5 l 10.5,0 M 12.5,23.5 l 10.5,0 M 12.5,26.5 l 10.5,0" style="stroke-width:1"/></g><rect width="36" height="36" x="0" y="0" fill="none" stroke="#fff" class="djs-hit" style="stroke-opacity:0;stroke-width:15"/><rect width="48" height="48" x="-6" y="-6" fill="none" class="djs-outline"/></g></g><g class="djs-group"><g class="djs-element djs-shape" data-element-id="StartEvent_16wz929_label" transform="matrix(1,0,0,1,274,578)" style="display:block"><g class="djs-visual"><text class="djs-label" transform="matrix(1,0,0,1,-18.0625,0)" style="font-family:Arial,sans-serif;font-size:11px"><tspan x="18.086" y="12.172">Application </tspan><tspan x="19.93" y="24.172">canceled?</tspan></text></g><rect width="57" height="24" x="0" y="0" fill="none" stroke="#fff" class="djs-hit" style="stroke-opacity:0;stroke-width:15"/><rect width="69" height="36" x="-6" y="-6" fill="none" class="djs-outline"/></g></g><g class="djs-group"><g class="djs-element djs-shape" data-element-id="Task_1uyr3r8" transform="matrix(1,0,0,1,380,520)" style="display:block"><g class="djs-visual"><rect width="100" height="80" x="0" y="0" fill="#fff" stroke="#000" rx="10" ry="10" style="stroke-width:2"/><text class="djs-label" style="font-family:Arial,sans-serif;font-size:12px"><tspan x="22.656" y="36.5">Document </tspan><tspan x="21.313" y="50.5">application</tspan></text><path fill="none" stroke="#000" d="m 12,18 v -1.71335 c 0.352326,-0.0705 0.703932,-0.17838 1.047628,-0.32133 0.344416,-0.14465 0.665822,-0.32133 0.966377,-0.52145 l 1.19431,1.18005 1.567487,-1.57688 -1.195028,-1.18014 c 0.403376,-0.61394 0.683079,-1.29908 0.825447,-2.01824 l 1.622133,-0.01 v -2.2196 l -1.636514,0.01 c -0.07333,-0.35153 -0.178319,-0.70024 -0.323564,-1.04372 -0.145244,-0.34406 -0.321407,-0.6644 -0.522735,-0.96217 l 1.131035,-1.13631 -1.583305,-1.56293 -1.129598,1.13589 c -0.614052,-0.40108 -1.302883,-0.68093 -2.022633,-0.82247 l 0.0093,-1.61852 h -2.241173 l 0.0042,1.63124 c -0.353763,0.0736 -0.705369,0.17977 -1.049785,0.32371 -0.344415,0.14437 -0.665102,0.32092 -0.9635006,0.52046 l -1.1698628,-1.15823 -1.5667691,1.5792 1.1684265,1.15669 c -0.4026573,0.61283 -0.68308,1.29797 -0.8247287,2.01713 l -1.6588041,0.003 v 2.22174 l 1.6724648,-0.006 c 0.073327,0.35077 0.1797598,0.70243 0.3242851,1.04472 0.1452428,0.34448 0.3214064,0.6644 0.5227339,0.96066 l -1.1993431,1.19723 1.5840256,1.56011 1.1964668,-1.19348 c 0.6140517,0.40346 1.3028827,0.68232 2.0233517,0.82331 l 7.19e-4,1.69892 h 2.226848 z m 0.221462,-3.9957 c -1.788948,0.7502 -3.8576,-0.0928 -4.6097055,-1.87438 -0.7521065,-1.78321 0.090598,-3.84627 1.8802645,-4.59604 1.78823,-0.74936 3.856881,0.0929 4.608987,1.87437 0.752106,1.78165 -0.0906,3.84612 -1.879546,4.59605 z" style="stroke-width:1"/><path fill="#fff" stroke="none" d="m 17.2,18 c -1.788948,0.7502 -3.8576,-0.0928 -4.6097055,-1.87438 -0.7521065,-1.78321 0.090598,-3.84627 1.8802645,-4.59604 1.78823,-0.74936 3.856881,0.0929 4.608987,1.87437 0.752106,1.78165 -0.0906,3.84612 -1.879546,4.59605 z" style="stroke-width:0"/><path fill="#fff" stroke="#000" d="m 17,22 v -1.71335 c 0.352326,-0.0705 0.703932,-0.17838 1.047628,-0.32133 0.344416,-0.14465 0.665822,-0.32133 0.966377,-0.52145 l 1.19431,1.18005 1.567487,-1.57688 -1.195028,-1.18014 c 0.403376,-0.61394 0.683079,-1.29908 0.825447,-2.01824 l 1.622133,-0.01 v -2.2196 l -1.636514,0.01 c -0.07333,-0.35153 -0.178319,-0.70024 -0.323564,-1.04372 -0.145244,-0.34406 -0.321407,-0.6644 -0.522735,-0.96217 l 1.131035,-1.13631 -1.583305,-1.56293 -1.129598,1.13589 c -0.614052,-0.40108 -1.302883,-0.68093 -2.022633,-0.82247 l 0.0093,-1.61852 h -2.241173 l 0.0042,1.63124 c -0.353763,0.0736 -0.705369,0.17977 -1.049785,0.32371 -0.344415,0.14437 -0.665102,0.32092 -0.9635006,0.52046 l -1.1698628,-1.15823 -1.5667691,1.5792 1.1684265,1.15669 c -0.4026573,0.61283 -0.68308,1.29797 -0.8247287,2.01713 l -1.6588041,0.003 v 2.22174 l 1.6724648,-0.006 c 0.073327,0.35077 0.1797598,0.70243 0.3242851,1.04472 0.1452428,0.34448 0.3214064,0.6644 0.5227339,0.96066 l -1.1993431,1.19723 1.5840256,1.56011 1.1964668,-1.19348 c 0.6140517,0.40346 1.3028827,0.68232 2.0233517,0.82331 l 7.19e-4,1.69892 h 2.226848 z m 0.221462,-3.9957 c -1.788948,0.7502 -3.8576,-0.0928 -4.6097055,-1.87438 -0.7521065,-1.78321 0.090598,-3.84627 1.8802645,-4.59604 1.78823,-0.74936 3.856881,0.0929 4.608987,1.87437 0.752106,1.78165 -0.0906,3.84612 -1.879546,4.59605 z" style="stroke-width:1"/></g><rect width="100" height="80" x="0" y="0" fill="none" stroke="#fff" class="djs-hit" style="stroke-opacity:0;stroke-width:15"/><rect width="112" height="92" x="-6" y="-6" fill="none" class="djs-outline"/></g></g><g class="djs-group"><g class="djs-element djs-shape" data-element-id="EndEvent_1cm8voo" transform="matrix(1,0,0,1,531,542)" style="display:block"><g class="djs-visual"><circle cx="18" cy="18" r="18" fill="#fff" stroke="#000" style="stroke-width:4"/></g><rect width="36" height="36" x="0" y="0" fill="none" stroke="#fff" class="djs-hit" style="stroke-opacity:0;stroke-width:15"/><rect width="48" height="48" x="-6" y="-6" fill="none" class="djs-outline"/></g></g><g class="djs-group"><g class="djs-element djs-shape" data-element-id="EndEvent_1cm8voo_label" transform="matrix(1,0,0,1,523,578)" style="display:block"><g class="djs-visual"><text class="djs-label" transform="matrix(1,0,0,1,-18.0625,0)" style="font-family:Arial,sans-serif;font-size:11px"><tspan x="18.086" y="12.172">Application </tspan><tspan x="25.438" y="24.484">rejected</tspan></text></g><rect width="57" height="25" x="0" y="0" fill="none" stroke="#fff" class="djs-hit" style="stroke-opacity:0;stroke-width:15"/><rect width="69" height="37" x="-6" y="-6" fill="none" class="djs-outline"/></g></g><g class="djs-group"><g class="djs-element djs-connection" data-element-id="SequenceFlow_0omn00q" style="display:block"><g class="djs-visual"><path fill="none" stroke="#000" d="m 319,560L380,560" style="stroke-width:2;stroke-linejoin:round;marker-end:url(#markerSivxt18moq6)"/></g><polyline fill="none" stroke="#fff" points="319 560 380 560" class="djs-hit" style="stroke-opacity:0;stroke-width:15"/><rect width="73" height="12" x="313" y="554" fill="none" class="djs-outline"/></g></g><g class="djs-group"><g class="djs-element djs-shape" data-element-id="SequenceFlow_0omn00q_label" transform="matrix(1,0,0,1,350,545)" style="display:none"><rect width="0" height="0" x="0" y="0" fill="none" stroke="#fff" class="djs-hit" style="stroke-opacity:0;stroke-width:15"/><rect width="12" height="12" x="-6" y="-6" fill="none" class="djs-outline"/></g></g><g class="djs-group"><g class="djs-element djs-connection" data-element-id="SequenceFlow_0addlx1" style="display:block"><g class="djs-visual"><path fill="none" stroke="#000" d="m 480,560L531,560" style="stroke-width:2;stroke-linejoin:round;marker-end:url(#markerSivxt18moq6)"/></g><polyline fill="none" stroke="#fff" points="480 560 531 560" class="djs-hit" style="stroke-opacity:0;stroke-width:15"/><rect width="63" height="12" x="474" y="554" fill="none" class="djs-outline"/></g></g><g class="djs-group"><g class="djs-element djs-shape" data-element-id="SequenceFlow_0addlx1_label" transform="matrix(1,0,0,1,506,545)" style="display:none"><rect width="0" height="0" x="0" y="0" fill="none" stroke="#fff" class="djs-hit" style="stroke-opacity:0;stroke-width:15"/><rect width="12" height="12" x="-6" y="-6" fill="none" class="djs-outline"/></g></g></g></g><g xmlns="http://www.w3.org/2000/svg" class="djs-group"><g class="djs-element djs-shape" data-element-id="EndEvent_1kybcq5" transform="matrix(1,0,0,1,1081,202)" style="display:block"><g class="djs-visual"><circle cx="18" cy="18" r="18" fill="#fff" stroke="#000" style="stroke-width:4"/></g><rect width="36" height="36" x="0" y="0" fill="none" stroke="#fff" class="djs-hit" style="stroke-opacity:0;stroke-width:15"/><rect width="48" height="48" x="-6" y="-6" fill="none" class="djs-outline"/></g></g><g xmlns="http://www.w3.org/2000/svg" class="djs-group"><g class="djs-element djs-shape" data-element-id="EndEvent_1kybcq5_label" transform="matrix(1,0,0,1,1076,238)" style="display:block"><g class="djs-visual"><text class="djs-label" transform="matrix(1,0,0,1,-18.0625,0)" style="font-family:Arial,sans-serif;font-size:11px"><tspan x="18.086" y="12.172">Application </tspan><tspan x="22.07" y="24.344">approved</tspan></text></g><rect width="57" height="25" x="0" y="0" fill="none" stroke="#fff" class="djs-hit" style="stroke-opacity:0;stroke-width:15"/><rect width="69" height="37" x="-6" y="-6" fill="none" class="djs-outline"/></g></g><g xmlns="http://www.w3.org/2000/svg" class="djs-group"><g class="djs-element djs-shape" data-element-id="ExclusiveGateway_0e1r0u0" transform="matrix(1,0,0,1,974,297)" style="display:block"><g class="djs-visual"><polygon fill="#fff" stroke="#000" points="25 0 50 25 25 50 0 25" style="stroke-width:2"/><path fill="#000" stroke="#000" d="m 16,15 7.42857142857143,9.714285714285715 -7.42857142857143,9.714285714285715 3.428571428571429,0 5.714285714285715,-7.464228571428572 5.714285714285715,7.464228571428572 3.428571428571429,0 -7.42857142857143,-9.714285714285715 7.42857142857143,-9.714285714285715 -3.428571428571429,0 -5.714285714285715,7.464228571428572 -5.714285714285715,-7.464228571428572 -3.428571428571429,0 z" style="stroke-width:1"/></g><rect width="50" height="50" x="0" y="0" fill="none" stroke="#fff" class="djs-hit" style="stroke-opacity:0;stroke-width:15"/><rect width="62" height="62" x="-6" y="-6" fill="none" class="djs-outline"/></g></g><g xmlns="http://www.w3.org/2000/svg" class="djs-group"><g class="djs-element djs-shape" data-element-id="ExclusiveGateway_0e1r0u0_label" transform="matrix(1,0,0,1,1043,309)" style="display:block"><g class="djs-visual"><text class="djs-label" transform="matrix(1,0,0,1,-18.0625,0)" style="font-family:Arial,sans-serif;font-size:11px"><tspan x="18.086" y="12.172">Application </tspan><tspan x="19.008" y="24.344">approved?</tspan></text></g><rect width="57" height="25" x="0" y="0" fill="none" stroke="#fff" class="djs-hit" style="stroke-opacity:0;stroke-width:15"/><rect width="69" height="37" x="-6" y="-6" fill="none" class="djs-outline"/></g></g><g xmlns="http://www.w3.org/2000/svg" class="djs-group"><g class="djs-element djs-shape" data-element-id="EndEvent_0t1d71w" transform="matrix(1,0,0,1,1081,380)" style="display:block"><g class="djs-visual"><circle cx="18" cy="18" r="18" fill="#fff" stroke="#000" style="stroke-width:4"/></g><rect width="36" height="36" x="0" y="0" fill="none" stroke="#fff" class="djs-hit" style="stroke-opacity:0;stroke-width:15"/><rect width="48" height="48" x="-6" y="-6" fill="none" class="djs-outline"/></g></g><g xmlns="http://www.w3.org/2000/svg" class="djs-group"><g class="djs-element djs-shape" data-element-id="EndEvent_0t1d71w_label" transform="matrix(1,0,0,1,1072,416)" style="display:block"><g class="djs-visual"><text class="djs-label" transform="matrix(1,0,0,1,-18.0625,0)" style="font-family:Arial,sans-serif;font-size:11px"><tspan x="18.086" y="12.172">Application </tspan><tspan x="25.438" y="24.484">rejected</tspan></text></g><rect width="57" height="25" x="0" y="0" fill="none" stroke="#fff" class="djs-hit" style="stroke-opacity:0;stroke-width:15"/><rect width="69" height="37" x="-6" y="-6" fill="none" class="djs-outline"/></g></g><g xmlns="http://www.w3.org/2000/svg" class="djs-group"><g class="djs-element djs-shape" data-element-id="Task_1dzwh1k" transform="matrix(1,0,0,1,845,282)" style="display:block"><g class="djs-visual"><rect width="100" height="80" x="0" y="0" fill="#fff" stroke="#000" rx="10" ry="10" style="stroke-width:2"/><text class="djs-label" style="font-family:Arial,sans-serif;font-size:12px"><tspan x="33" y="36.5">Check </tspan><tspan x="20.641" y="50.5">Application</tspan></text><path fill="none" stroke="#000" d="m 15,12 c 0.909,-0.845 1.594,-2.049 1.594,-3.385 0,-2.554 -1.805,-4.62199999 -4.357,-4.62199999 -2.55199998,0 -4.28799998,2.06799999 -4.28799998,4.62199999 0,1.348 0.974,2.562 1.89599998,3.405 -0.52899998,0.187 -5.669,2.097 -5.794,4.7560005 v 6.718 h 17 v -6.718 c 0,-2.2980005 -5.5279996,-4.5950005 -6.0509996,-4.7760005 zm -8,6 l 0,5.5 m 11,0 l 0,-5" style="stroke-width:.5"/><path fill="none" stroke="#000" d="m 15,12 m 2.162,1.009 c 0,2.4470005 -2.158,4.4310005 -4.821,4.4310005 -2.66499998,0 -4.822,-1.981 -4.822,-4.4310005" style="stroke-width:.5"/><path fill="#000" stroke="#000" d="m 15,12 m -6.9,-3.80 c 0,0 2.25099998,-2.358 4.27399998,-1.177 2.024,1.181 4.221,1.537 4.124,0.965 -0.098,-0.57 -0.117,-3.79099999 -4.191,-4.13599999 -3.57499998,0.001 -4.20799998,3.36699999 -4.20699998,4.34799999 z" style="stroke-width:.5"/></g><rect width="100" height="80" x="0" y="0" fill="none" stroke="#fff" class="djs-hit" style="stroke-opacity:0;stroke-width:15"/><rect width="112" height="92" x="-6" y="-6" fill="none" class="djs-outline"/></g></g><g xmlns="http://www.w3.org/2000/svg" class="djs-group"><g class="djs-element djs-shape" data-element-id="Task_0l1t1jl" transform="matrix(1,0,0,1,674,282)" style="display:block"><g class="djs-visual"><rect width="100" height="80" x="0" y="0" fill="#fff" stroke="#000" rx="10" ry="10" style="stroke-width:5;fill-opacity:.95"/><text class="djs-label" style="font-family:Arial,sans-serif;font-size:12px"><tspan x="28.328" y="36.5">Process </tspan><tspan x="21.313" y="50.5">application</tspan></text><rect width="14" height="14" x="0" y="0" fill="#fff" stroke="#000" rx="0" ry="0" transform="matrix(1,0,0,1,42.5,60)" style="stroke-width:1"/><path fill="none" stroke="#000" d="m42.5,60 m 7,2 l 0,10 m -5,-5 l 10,0" data-marker="sub-process" style="stroke-width:2"/></g><rect width="100" height="80" x="0" y="0" fill="none" stroke="#fff" class="djs-hit" style="stroke-opacity:0;stroke-width:15"/><rect width="112" height="92" x="-6" y="-6" fill="none" class="djs-outline"/></g></g><g xmlns="http://www.w3.org/2000/svg" class="djs-group"><g class="djs-element djs-shape" data-element-id="TextAnnotation_19rdyew" transform="matrix(1,0,0,1,526,202)" style="display:block"><g class="djs-visual"><rect width="148" height="63" x="0" y="0" fill="none" stroke="none" rx="0" ry="0" style="stroke-width:2"/><path fill="none" stroke="#000" d="m 0, 0 m 10,0 l -10,0 l 0,63 l 10,0" style="stroke-width:2"/><text class="djs-label" style="font-family:Arial,sans-serif;font-size:12px"><tspan x="5" y="28">Waits until the assigned </tspan><tspan x="5" y="42">processor is available.</tspan></text></g><rect width="148" height="63" x="0" y="0" fill="none" stroke="#fff" class="djs-hit" style="stroke-opacity:0;stroke-width:15"/><rect width="160" height="75" x="-6" y="-6" fill="none" class="djs-outline"/></g></g><g xmlns="http://www.w3.org/2000/svg" class="djs-group"><g class="djs-element djs-shape" data-element-id="BoundaryEvent_11e2lmq" transform="matrix(1,0,0,1,877,264)" style="display:block"><g class="djs-visual"><circle cx="18" cy="18" r="18" fill="#fff" stroke="#000" style="stroke-width:1"/><circle cx="18" cy="18" r="15" fill="none" stroke="#000" style="stroke-width:1"/><path fill="none" stroke="#000" d="M 10.5,8.5 l 14.5,0 l 0,18 l -14.5,0 Z M 12.5,11.5 l 10.5,0 M 12.5,14.5 l 10.5,0 M 12.5,17.5 l 10.5,0 M 12.5,20.5 l 10.5,0 M 12.5,23.5 l 10.5,0 M 12.5,26.5 l 10.5,0" style="stroke-width:1"/></g><rect width="36" height="36" x="0" y="0" fill="none" stroke="#fff" class="djs-hit" style="stroke-opacity:0;stroke-width:15"/><rect width="48" height="48" x="-6" y="-6" fill="none" class="djs-outline"/></g></g><g xmlns="http://www.w3.org/2000/svg" class="djs-group"><g class="djs-element djs-shape" data-element-id="BoundaryEvent_11e2lmq_label" transform="matrix(1,0,0,1,829,239)" style="display:block"><g class="djs-visual"><text class="djs-label" transform="matrix(1,0,0,1,-18.0625,0)" style="font-family:Arial,sans-serif;font-size:11px"><tspan x="18.086" y="12.172">Application </tspan><tspan x="20.844" y="24.484">changed?</tspan></text></g><rect width="57" height="25" x="0" y="0" fill="none" stroke="#fff" class="djs-hit" style="stroke-opacity:0;stroke-width:15"/><rect width="69" height="37" x="-6" y="-6" fill="none" class="djs-outline"/></g></g><g xmlns="http://www.w3.org/2000/svg" class="djs-group"><g class="djs-element djs-connection" data-element-id="SequenceFlow_1wjobn4" style="display:block"><g class="djs-visual"><path fill="none" stroke="#000" d="m 302,322L391,322" style="stroke-width:2;stroke-linejoin:round;marker-end:url(#markerSivxt18moq6)"/></g><polyline fill="none" stroke="#fff" points="302 322 391 322" class="djs-hit" style="stroke-opacity:0;stroke-width:15"/><rect width="101" height="12" x="296" y="316" fill="none" class="djs-outline"/></g></g><g xmlns="http://www.w3.org/2000/svg" class="djs-group"><g class="djs-element djs-shape" data-element-id="SequenceFlow_1wjobn4_label" transform="matrix(1,0,0,1,347,307)" style="display:none"><rect width="0" height="0" x="0" y="0" fill="none" stroke="#fff" class="djs-hit" style="stroke-opacity:0;stroke-width:15"/><rect width="12" height="12" x="-6" y="-6" fill="none" class="djs-outline"/></g></g><g xmlns="http://www.w3.org/2000/svg" class="djs-group"><g class="djs-element djs-connection" data-element-id="SequenceFlow_1eysc19" style="display:block"><g class="djs-visual"><path fill="none" stroke="#000" d="m 491,322L562,322" style="stroke-width:2;stroke-linejoin:round;marker-end:url(#markerSivxt18moq6)"/></g><polyline fill="none" stroke="#fff" points="491 322 562 322" class="djs-hit" style="stroke-opacity:0;stroke-width:15"/><rect width="83" height="12" x="485" y="316" fill="none" class="djs-outline"/></g></g><g xmlns="http://www.w3.org/2000/svg" class="djs-group"><g class="djs-element djs-shape" data-element-id="SequenceFlow_1eysc19_label" transform="matrix(1,0,0,1,527,307)" style="display:none"><rect width="0" height="0" x="0" y="0" fill="none" stroke="#fff" class="djs-hit" style="stroke-opacity:0;stroke-width:15"/><rect width="12" height="12" x="-6" y="-6" fill="none" class="djs-outline"/></g></g><g xmlns="http://www.w3.org/2000/svg" class="djs-group"><g class="djs-element djs-connection" data-element-id="SequenceFlow_0s9f3bj" style="display:block"><g class="djs-visual"><path fill="none" stroke="#000" d="m 598,322L674,322" style="stroke-width:2;stroke-linejoin:round;marker-end:url(#markerSivxt18moq6)"/></g><polyline fill="none" stroke="#fff" points="598 322 674 322" class="djs-hit" style="stroke-opacity:0;stroke-width:15"/><rect width="88" height="12" x="592" y="316" fill="none" class="djs-outline"/></g></g><g xmlns="http://www.w3.org/2000/svg" class="djs-group"><g class="djs-element djs-shape" data-element-id="SequenceFlow_0s9f3bj_label" transform="matrix(1,0,0,1,636,307)" style="display:none"><rect width="0" height="0" x="0" y="0" fill="none" stroke="#fff" class="djs-hit" style="stroke-opacity:0;stroke-width:15"/><rect width="12" height="12" x="-6" y="-6" fill="none" class="djs-outline"/></g></g><g xmlns="http://www.w3.org/2000/svg" class="djs-group"><g class="djs-element djs-connection" data-element-id="SequenceFlow_0uwt3om" style="display:block"><g class="djs-visual"><path fill="none" stroke="#000" d="m 774,322L845,322" style="stroke-width:2;stroke-linejoin:round;marker-end:url(#markerSivxt18moq6)"/></g><polyline fill="none" stroke="#fff" points="774 322 845 322" class="djs-hit" style="stroke-opacity:0;stroke-width:15"/><rect width="83" height="12" x="768" y="316" fill="none" class="djs-outline"/></g></g><g xmlns="http://www.w3.org/2000/svg" class="djs-group"><g class="djs-element djs-shape" data-element-id="SequenceFlow_0uwt3om_label" transform="matrix(1,0,0,1,810,307)" style="display:none"><rect width="0" height="0" x="0" y="0" fill="none" stroke="#fff" class="djs-hit" style="stroke-opacity:0;stroke-width:15"/><rect width="12" height="12" x="-6" y="-6" fill="none" class="djs-outline"/></g></g><g xmlns="http://www.w3.org/2000/svg" class="djs-group"><g class="djs-element djs-connection" data-element-id="SequenceFlow_1hhcy1w" style="display:block"><g class="djs-visual"><path fill="none" stroke="#000" d="m 945,322L974,322" style="stroke-width:2;stroke-linejoin:round;marker-end:url(#markerSivxt18moq6)"/></g><polyline fill="none" stroke="#fff" points="945 322 974 322" class="djs-hit" style="stroke-opacity:0;stroke-width:15"/><rect width="41" height="12" x="939" y="316" fill="none" class="djs-outline"/></g></g><g xmlns="http://www.w3.org/2000/svg" class="djs-group"><g class="djs-element djs-shape" data-element-id="SequenceFlow_1hhcy1w_label" transform="matrix(1,0,0,1,960,307)" style="display:none"><rect width="0" height="0" x="0" y="0" fill="none" stroke="#fff" class="djs-hit" style="stroke-opacity:0;stroke-width:15"/><rect width="12" height="12" x="-6" y="-6" fill="none" class="djs-outline"/></g></g><g xmlns="http://www.w3.org/2000/svg" class="djs-group"><g class="djs-element djs-connection" data-element-id="SequenceFlow_0wx3o0p" style="display:block"><g class="djs-visual"><path fill="none" stroke="#000" d="m 999,297L999,220 L1081,220" style="stroke-width:2;stroke-linejoin:round;marker-end:url(#markerSivxt18moq6)"/></g><polyline fill="none" stroke="#fff" points="999 297 999 220 1081 220" class="djs-hit" style="stroke-opacity:0;stroke-width:15"/><rect width="94" height="89" x="993" y="214" fill="none" class="djs-outline"/></g></g><g xmlns="http://www.w3.org/2000/svg" class="djs-group"><g class="djs-element djs-shape" data-element-id="SequenceFlow_0wx3o0p_label" transform="matrix(1,0,0,1,1017,220)" style="display:block"><g class="djs-visual"><text class="djs-label" transform="matrix(1,0,0,1,-36.0313,0)" style="font-family:Arial,sans-serif;font-size:11px"><tspan x="36.031" y="12">Yes</tspan></text></g><rect width="18" height="12" x="0" y="0" fill="none" stroke="#fff" class="djs-hit" style="stroke-opacity:0;stroke-width:15"/><rect width="30" height="24" x="-6" y="-6" fill="none" class="djs-outline"/></g></g><g xmlns="http://www.w3.org/2000/svg" class="djs-group"><g class="djs-element djs-connection" data-element-id="SequenceFlow_18m9b49" style="display:block"><g class="djs-visual"><path fill="none" stroke="#000" d="m 999,347L999,398 L1081,398" style="stroke-width:2;stroke-linejoin:round;marker-end:url(#markerSivxt18moq6)"/></g><polyline fill="none" stroke="#fff" points="999 347 999 398 1081 398" class="djs-hit" style="stroke-opacity:0;stroke-width:15"/><rect width="94" height="63" x="993" y="341" fill="none" class="djs-outline"/></g></g><g xmlns="http://www.w3.org/2000/svg" class="djs-group"><g class="djs-element djs-shape" data-element-id="SequenceFlow_18m9b49_label" transform="matrix(1,0,0,1,1009,363)" style="display:block"><g class="djs-visual"><text class="djs-label" transform="matrix(1,0,0,1,-37.9688,0)" style="font-family:Arial,sans-serif;font-size:11px"><tspan x="37.977" y="12">No</tspan></text></g><rect width="15" height="12" x="0" y="0" fill="none" stroke="#fff" class="djs-hit" style="stroke-opacity:0;stroke-width:15"/><rect width="27" height="24" x="-6" y="-6" fill="none" class="djs-outline"/></g></g><g xmlns="http://www.w3.org/2000/svg" class="djs-group"><g class="djs-element djs-connection" data-element-id="SequenceFlow_07dyy79" style="display:block"><g class="djs-visual"><path fill="none" stroke="#000" d="m 895,264L895,180 L441,180 L441,282" style="stroke-width:2;stroke-linejoin:round;marker-end:url(#markerSivxt18moq6)"/></g><polyline fill="none" stroke="#fff" points="895 264 895 180 441 180 441 282" class="djs-hit" style="stroke-opacity:0;stroke-width:15"/><rect width="466" height="114" x="435" y="174" fill="none" class="djs-outline"/></g></g><g xmlns="http://www.w3.org/2000/svg" class="djs-group"><g class="djs-element djs-shape" data-element-id="SequenceFlow_07dyy79_label" transform="matrix(1,0,0,1,668,165)" style="display:none"><rect width="0" height="0" x="0" y="0" fill="none" stroke="#fff" class="djs-hit" style="stroke-opacity:0;stroke-width:15"/><rect width="12" height="12" x="-6" y="-6" fill="none" class="djs-outline"/></g></g><g xmlns="http://www.w3.org/2000/svg" class="djs-group"><g class="djs-element djs-connection" data-element-id="Association_0n44l5g" style="display:block"><g class="djs-visual"><polyline fill="none" stroke="#000" points="584 305 593 265" style="stroke-width:2;stroke-dasharray:.5,5;stroke-linecap:round;stroke-linejoin:round"/></g><polyline fill="none" stroke="#fff" points="584 305 593 265" class="djs-hit" style="stroke-opacity:0;stroke-width:15"/><rect width="21" height="52" x="578" y="259" fill="none" class="djs-outline"/></g></g></svg>