<svg xmlns="http://www.w3.org/2000/svg" xmlns:osb="http://www.openswatchbook.org/uri/2009/osb" xmlns:svg="http://www.w3.org/2000/svg" id="svg2" width="792.828" height="292.104" version="1.1"><defs id="defs4"><linearGradient id="linearGradient5691" osb:paint="solid"><stop style="stop-color:#000;stop-opacity:1" id="stop5693" offset="0"/></linearGradient><clipPath id="clipPath16" clipPathUnits="userSpaceOnUse"><path id="path18" d="m 0,85.039 85.039,0 L 85.039,0 0,0 0,85.039 z"/></clipPath></defs><metadata id="metadata7"/><g id="layer1" transform="translate(191.7933,-885.54352)"><text style="font-size:40px;font-style:normal;font-variant:normal;font-weight:300;font-stretch:normal;text-align:end;line-height:125%;letter-spacing:0;word-spacing:0;text-anchor:end;fill:#333;fill-opacity:1;stroke:none;font-family:Folks-Light;-inkscape-font-specification:Folks-Light Light" id="text9745" x="-90.887" y="952.246" xml:space="preserve"><tspan style="font-size:20px;font-style:normal;font-variant:normal;font-weight:400;font-stretch:normal;text-align:end;text-anchor:end;fill:#333;fill-opacity:1;font-family:Sans;-inkscape-font-specification:Sans" id="tspan11348" x="-85.34" y="952.246">Clustered </tspan><tspan style="font-size:20px;font-style:normal;font-variant:normal;font-weight:400;font-stretch:normal;text-align:end;text-anchor:end;fill:#333;fill-opacity:1;font-family:Sans;-inkscape-font-specification:Sans" id="tspan11640" x="-90.887" y="977.246">Process Engine</tspan></text><g style="fill:none;stroke:none" id="g3040-4-80"><path id="path3044-7-1" d="m 314.50264,1019.4077 92.69225,30.3861 96.42046,-25.6721 -95.55347,-23.419 z" style="fill:#a00;fill-rule:evenodd;stroke:none"/><path id="path3042-5-5" d="m 314.50264,1019.4077 0,-16.2567 93.55924,-16.87308 0,14.42478 z" style="fill:#353564;fill-rule:evenodd;stroke:none"/><path id="path3052-1-1" d="m 408.06188,1000.7027 95.55347,23.419 0,-16.7342 -95.55347,-21.10958 z" style="fill:#e9e9ff;fill-rule:evenodd;stroke:none"/><path id="path3050-5-2" d="m 314.50264,1003.151 92.69225,27.3919 96.42046,-23.1554 -95.55347,-21.10958 z" style="fill:#bdbdbd;fill-opacity:1;fill-rule:evenodd;stroke:#000;stroke-opacity:1"/><path id="path3048-1-9" d="m 407.19489,1049.7938 0,-19.2509 96.42046,-23.1554 0,16.7342 z" style="fill:#9c9c9c;fill-opacity:1;fill-rule:evenodd;stroke:#000;stroke-opacity:1"/><path id="path3046-1-0" d="m 314.50264,1019.4077 92.69225,30.3861 0,-19.2509 -92.69225,-27.3919 z" style="fill:#606060;fill-opacity:1;fill-rule:evenodd;stroke:#000;stroke-opacity:1"/></g><g style="fill:none;stroke:none" id="g3040-4-1-1-0"><path id="path3044-7-6-4-1" d="m 339.3489,1004.6748 64.69984,18.4341 69.67934,-14.7208 -66.17756,-15.40325 z" style="fill:#a00;fill-rule:evenodd;stroke:none"/><path id="path3042-5-8-46-6" d="m 339.3489,1004.6748 0,-58.83269 68.20162,-6.70774 0,53.85048 z" style="fill:#353564;fill-rule:evenodd;stroke:none"/><path id="path3052-1-5-7-0" d="m 407.55052,992.98485 66.17756,15.40325 0,-59.82332 -66.17756,-9.43041 z" style="fill:#e9e9ff;fill-rule:evenodd;stroke:none"/><path id="path3050-5-7-11-5" d="m 339.3489,945.84211 64.69984,11.23099 69.67934,-8.50832 -66.17756,-9.43041 z" style="fill:#3f81d3;fill-opacity:1;fill-rule:evenodd;stroke:#000;stroke-opacity:1"/><path id="path3048-1-6-8-8" d="m 404.04874,1023.1089 0,-66.0358 69.67934,-8.50832 0,59.82332 z" style="fill:#2a69b7;fill-opacity:1;fill-rule:evenodd;stroke:#000;stroke-opacity:1"/><path id="path3046-1-1-6-2" d="m 339.3489,1004.6748 64.69984,18.4341 0,-66.0358 -64.69984,-11.23099 z" style="fill:#255b9f;fill-opacity:1;fill-rule:evenodd;stroke:#000;stroke-opacity:1"/></g><g style="fill:none;stroke:none" id="g3040-4-80-9"><path id="path3044-7-1-0" d="m 99.796062,1007.7826 75.450788,39.3399 116.4918,-23.0492 -89.88404,-31.20709 z" style="fill:#a00;fill-rule:evenodd;stroke:none"/><path id="path3042-5-5-4" d="m 99.796062,1007.7826 0,-14.39598 102.058548,-13.51659 0,12.99618 z" style="fill:#353564;fill-rule:evenodd;stroke:none"/><path id="path3052-1-1-8" d="m 201.85461,992.86621 89.88404,31.20709 0,-15.983 -89.88404,-28.22027 z" style="fill:#e9e9ff;fill-rule:evenodd;stroke:none"/><path id="path3050-5-2-8" d="m 99.796062,993.38662 75.450788,35.58188 116.4918,-20.8782 -89.88404,-28.22027 z" style="fill:#bdbdbd;fill-opacity:1;fill-rule:evenodd;stroke:#000;stroke-opacity:1"/><path id="path3048-1-9-3" d="m 175.24685,1047.1225 0,-18.154 116.4918,-20.8782 0,15.983 z" style="fill:#9c9c9c;fill-opacity:1;fill-rule:evenodd;stroke:#000;stroke-opacity:1"/><path id="path3046-1-0-1" d="m 99.796062,1007.7826 75.450788,39.3399 0,-18.154 -75.450788,-35.58188 z" style="fill:#606060;fill-opacity:1;fill-rule:evenodd;stroke:#000;stroke-opacity:1"/></g><g style="fill:none;stroke:none" id="g3040-4-1-1-0-9"><path id="path3044-7-6-4-1-0" d="m 119.37094,996.94048 55.83508,25.64022 91.69645,-16.081 -64.19903,-21.29716 z" style="fill:#a00;fill-rule:evenodd;stroke:none"/><path id="path3042-5-8-46-6-7" d="m 119.37094,996.94048 0,-50.10594 83.3325,-7.67055 0,46.03855 z" style="fill:#353564;fill-rule:evenodd;stroke:none"/><path id="path3052-1-5-7-0-4" d="m 202.70344,985.20254 64.19903,21.29716 0,-53.57321 -64.19903,-13.7625 z" style="fill:#e9e9ff;fill-rule:evenodd;stroke:none"/><path id="path3050-5-7-11-5-1" d="m 119.37094,946.83454 55.83508,16.58445 91.69645,-10.4925 -64.19903,-13.7625 z" style="fill:#3f81d3;fill-opacity:1;fill-rule:evenodd;stroke:#000;stroke-opacity:1"/><path id="path3048-1-6-8-8-2" d="m 175.20602,1022.5807 0,-59.16171 91.69645,-10.4925 0,53.57321 z" style="fill:#2a69b7;fill-opacity:1;fill-rule:evenodd;stroke:#000;stroke-opacity:1"/><path id="path3046-1-1-6-2-6" d="m 119.37094,996.94048 55.83508,25.64022 0,-59.16171 -55.83508,-16.58445 z" style="fill:#255b9f;fill-opacity:1;fill-rule:evenodd;stroke:#000;stroke-opacity:1"/></g><g style="fill:none;stroke:none" id="g3040-4-80-3"><path id="path3044-7-1-06" d="m -88.506033,1002.3565 40.387016,57.212 134.733054,-23.6034 -71.433104,-46.3287 z" style="fill:#a00;fill-rule:evenodd;stroke:none"/><path id="path3042-5-5-47" d="m -88.506033,1002.3565 0,-16.91297 103.686966,-11.28775 0,15.48062 z" style="fill:#353564;fill-rule:evenodd;stroke:none"/><path id="path3052-1-1-7" d="m 15.180933,989.6364 71.433104,46.3287 0,-20.8021 -71.433104,-41.00722 z" style="fill:#e9e9ff;fill-rule:evenodd;stroke:none"/><path id="path3050-5-2-7" d="M -88.506033,985.44353 -48.119017,1036.0952 86.614037,1015.163 15.180933,974.15578 z" style="fill:#bdbdbd;fill-opacity:1;fill-rule:evenodd;stroke:#000;stroke-opacity:1"/><path id="path3048-1-9-31" d="m -48.119017,1059.5685 0,-23.4733 134.733054,-20.9322 0,20.8021 z" style="fill:#9c9c9c;fill-opacity:1;fill-rule:evenodd;stroke:#000;stroke-opacity:1"/><path id="path3046-1-0-2" d="m -88.506033,1002.3565 40.387016,57.212 0,-23.4733 -40.387016,-50.65167 z" style="fill:#606060;fill-opacity:1;fill-rule:evenodd;stroke:#000;stroke-opacity:1"/></g><g style="fill:none;stroke:none" id="g3040-4-1-1-0-7"><path id="path3044-7-6-4-1-6" d="M -73.0289,987.79486 -40.211603,1025.3174 60.176132,1010.9408 8.988409,978.88601 z" style="fill:#a00;fill-rule:evenodd;stroke:none"/><path id="path3042-5-8-46-6-79" d="m -73.0289,987.79486 0,-47.32798 82.017309,-5.72884 0,44.14797 z" style="fill:#353564;fill-rule:evenodd;stroke:none"/><path id="path3052-1-5-7-0-41" d="m 8.988409,978.88601 51.187723,32.05479 0,-55.52924 -51.187723,-20.67352 z" style="fill:#e9e9ff;fill-rule:evenodd;stroke:none"/><path id="path3050-5-7-11-5-0" d="m -73.0289,940.46688 32.817297,24.1952 100.387735,-9.25052 -51.187723,-20.67352 z" style="fill:#3f81d3;fill-opacity:1;fill-rule:evenodd;stroke:#000;stroke-opacity:1"/><path id="path3048-1-6-8-8-7" d="m -40.211603,1025.3174 0,-60.65532 100.387735,-9.25052 0,55.52924 z" style="fill:#2a69b7;fill-opacity:1;fill-rule:evenodd;stroke:#000;stroke-opacity:1"/><path id="path3046-1-1-6-2-1" d="m -73.0289,987.79486 32.817297,37.52254 0,-60.65532 -32.817297,-24.1952 z" style="fill:#255b9f;fill-opacity:1;fill-rule:evenodd;stroke:#000;stroke-opacity:1"/></g><text style="font-size:40px;font-style:normal;font-variant:normal;font-weight:300;font-stretch:normal;line-height:125%;letter-spacing:0;word-spacing:0;fill:#000;fill-opacity:1;stroke:none;font-family:Folks-Light;-inkscape-font-specification:Folks-Light Light" id="text11632" x="251.942" y="1138.892" xml:space="preserve"><tspan id="tspan11634" x="251.942" y="1138.892" style="font-size:20px;font-style:normal;font-variant:normal;font-weight:400;font-stretch:normal;font-family:Sans;-inkscape-font-specification:Sans">Shared Database</tspan></text><g style="fill:none;stroke:none" id="g3040-4-80-9-9"><path id="path3044-7-1-0-0" d="m 138.62118,1146.6372 38.41212,34.2721 60.88251,-20.501 -42.27935,-30.3059 z" style="fill:#a00;fill-rule:evenodd;stroke:none"/><path id="path3042-5-5-4-6" d="m 138.62118,1146.6372 0,-9.2666 57.01528,-16.0118 0,8.7436 z" style="fill:#353564;fill-rule:evenodd;stroke:none"/><path id="path3052-1-1-8-4" d="m 195.63646,1130.1024 42.27935,30.3059 0,-9.7058 -42.27935,-29.3437 z" style="fill:#e9e9ff;fill-rule:evenodd;stroke:none"/><path id="path3050-5-2-8-1" d="m 138.62118,1137.3706 38.41212,33.1844 60.88251,-19.8525 -42.27935,-29.3437 z" style="fill:#f9cc09;fill-opacity:1;fill-rule:evenodd;stroke:#000;stroke-opacity:1"/><path id="path3048-1-9-3-7" d="m 177.0333,1180.9093 0,-10.3543 60.88251,-19.8525 0,9.7058 z" style="fill:#fad844;fill-opacity:1;fill-rule:evenodd;stroke:#000;stroke-opacity:1"/><path id="path3046-1-0-1-7" d="m 138.62118,1146.6372 38.41212,34.2721 0,-10.3543 -38.41212,-33.1844 z" style="fill:#b59405;fill-opacity:1;fill-rule:evenodd;stroke:#000;stroke-opacity:1"/></g><g style="fill:none;stroke:none" id="g3040-4-80-9-9-9"><path id="path3044-7-1-0-0-8" d="m 139.34238,1134.2916 37.88514,32.1238 60.69108,-19.5513 -41.66887,-28.3961 z" style="fill:#a00;fill-rule:evenodd;stroke:none"/><path id="path3042-5-5-4-6-9" d="m 139.34238,1134.2916 0,-9.7435 56.90735,-15.2722 0,9.1921 z" style="fill:#353564;fill-rule:evenodd;stroke:none"/><path id="path3052-1-1-8-4-6" d="m 196.24973,1118.468 41.66887,28.3961 0,-10.1871 -41.66887,-27.4011 z" style="fill:#e9e9ff;fill-rule:evenodd;stroke:none"/><path id="path3050-5-2-8-1-2" d="m 139.34238,1124.5481 37.88514,30.9985 60.69108,-18.8696 -41.66887,-27.4011 z" style="fill:#f9cc09;fill-opacity:1;fill-rule:evenodd;stroke:#000;stroke-opacity:1"/><path id="path3048-1-9-3-7-2" d="m 177.22752,1166.4154 0,-10.8688 60.69108,-18.8696 0,10.1871 z" style="fill:#fad844;fill-opacity:1;fill-rule:evenodd;stroke:#000;stroke-opacity:1"/><path id="path3046-1-0-1-7-9" d="m 139.34238,1134.2916 37.88514,32.1238 0,-10.8688 -37.88514,-30.9985 z" style="fill:#b59405;fill-opacity:1;fill-rule:evenodd;stroke:#000;stroke-opacity:1"/></g><g style="fill:none;stroke:none" id="g3040-4-80-9-9-0"><path id="path3044-7-1-0-0-1" d="m 138.97824,1119.9369 38.15445,30.8384 61.78337,-18.7866 -42.01895,-27.2314 z" style="fill:#a00;fill-rule:evenodd;stroke:none"/><path id="path3042-5-5-4-6-90" d="m 138.97824,1119.9369 0,-7.1309 57.91887,-14.771 0,6.7223 z" style="fill:#353564;fill-rule:evenodd;stroke:none"/><path id="path3052-1-1-8-4-7" d="m 196.89711,1104.7573 42.01895,27.2314 0,-7.4521 -42.01895,-26.5016 z" style="fill:#e9e9ff;fill-rule:evenodd;stroke:none"/><path id="path3050-5-2-8-1-9" d="m 138.97824,1112.806 38.15445,30.0117 61.78337,-18.2811 -42.01895,-26.5016 z" style="fill:#f9cc09;fill-opacity:1;fill-rule:evenodd;stroke:#000;stroke-opacity:1"/><path id="path3048-1-9-3-7-5" d="m 177.13269,1150.7753 0,-7.9576 61.78337,-18.2811 0,7.4521 z" style="fill:#fad844;fill-opacity:1;fill-rule:evenodd;stroke:#000;stroke-opacity:1"/><path id="path3046-1-0-1-7-4" d="m 138.97824,1119.9369 38.15445,30.8384 0,-7.9576 -38.15445,-30.0117 z" style="fill:#b59405;fill-opacity:1;fill-rule:evenodd;stroke:#000;stroke-opacity:1"/></g><path style="fill:none;stroke:#635000;stroke-width:3;stroke-linecap:butt;stroke-linejoin:miter;stroke-opacity:1;stroke-miterlimit:4;stroke-dasharray:none" id="path11626" d="m 199.0099,104.97499 c 39.87536,36.8333 165.31902,58.93414 166.30288,123.46984" transform="translate(-191.7933,885.54352)"/><path style="fill:none;stroke:#635000;stroke-width:3;stroke-linecap:butt;stroke-linejoin:miter;stroke-opacity:1;stroke-miterlimit:4;stroke-dasharray:none" id="path11628" d="m 414.85149,96.064097 c 23.06275,7.153753 -37.63732,63.601843 -37.62377,127.722773" transform="translate(-191.7933,885.54352)"/><path style="fill:none;stroke:#635000;stroke-width:3;stroke-linecap:butt;stroke-linejoin:miter;stroke-opacity:1;stroke-miterlimit:4;stroke-dasharray:none" id="path11630" d="M 568.31683,98.044293 C 424.19988,104.04975 392.11452,170.76223 392.11297,233.42908" transform="translate(-191.7933,885.54352)"/><g style="fill:none;stroke:none" id="g3040-4-1"><path id="path3044-7-6" d="m -60.702419,918.71044 6.393399,3.20342 25.783813,-1.42381 -7.478311,-3.0707 z" style="fill:#a00;fill-rule:evenodd;stroke:none"/><path id="path3042-5-8" d="m -60.702419,918.71044 0,-21.38317 24.698901,-0.85328 0,20.94536 z" style="fill:#353564;fill-rule:evenodd;stroke:none"/><path id="path3052-1-5" d="m -36.003518,917.41935 7.478311,3.0707 0,-21.9819 -7.478311,-2.03416 z" style="fill:#e9e9ff;fill-rule:evenodd;stroke:none"/><path id="path3050-5-7" d="m -60.702419,897.32727 6.393399,2.12199 25.783813,-0.94111 -7.478311,-2.03416 z" style="fill:#d85460;fill-rule:evenodd;stroke:#000;stroke-opacity:1"/><path id="path3048-1-6" d="m -54.30902,921.91386 0,-22.4646 25.783813,-0.94111 0,21.9819 z" style="fill:#b72a38;fill-rule:evenodd;stroke:#000;stroke-opacity:1"/><path id="path3046-1-1" d="m -60.702419,918.71044 6.393399,3.20342 0,-22.4646 -6.393399,-2.12199 z" style="fill:#92222d;fill-rule:evenodd;stroke:#000;stroke-opacity:1"/></g><g style="fill:none;stroke:none" id="g3040-4-1-7"><path id="path3044-7-6-9" d="m -8.0454255,923.92582 10.9444141,4.23675 29.2506794,-1.85548 -12.304253,-4.03165 z" style="fill:#a00;fill-rule:evenodd;stroke:none"/><path id="path3042-5-8-7" d="m -8.0454255,923.92582 0,-25.26443 27.8908405,-1.04149 0,24.65554 z" style="fill:#353564;fill-rule:evenodd;stroke:none"/><path id="path3052-1-5-3" d="m 19.845415,922.27544 12.304253,4.03165 0,-26.10451 -12.304253,-2.58268 z" style="fill:#e9e9ff;fill-rule:evenodd;stroke:none"/><path id="path3050-5-7-7" d="M -8.0454255,898.66139 2.8989886,901.37451 32.149668,900.20258 19.845415,897.6199 z" style="fill:#d85460;fill-rule:evenodd;stroke:#000;stroke-opacity:1"/><path id="path3048-1-6-3" d="m 2.8989886,928.16257 0,-26.78806 29.2506794,-1.17193 0,26.10451 z" style="fill:#b72a38;fill-rule:evenodd;stroke:#000;stroke-opacity:1"/><path id="path3046-1-1-2" d="m -8.0454255,923.92582 10.9444141,4.23675 0,-26.78806 -10.9444141,-2.71312 z" style="fill:#92222d;fill-rule:evenodd;stroke:#000;stroke-opacity:1"/></g><g style="fill:none;stroke:none" id="g3040-4-1-5"><path id="path3044-7-6-95" d="m -37.397384,883.15834 5.26713,1.02088 17.44037,-0.4004 -5.766977,-0.99305 z" style="fill:#a00;fill-rule:evenodd;stroke:none"/><path id="path3042-5-8-2" d="m -37.397384,883.15834 0,-14.86489 16.940523,-0.15967 0,14.65199 z" style="fill:#353564;fill-rule:evenodd;stroke:none"/><path id="path3052-1-5-5" d="m -20.456861,882.78577 5.766977,0.99305 0,-15.15178 -5.766977,-0.49326 z" style="fill:#e9e9ff;fill-rule:evenodd;stroke:none"/><path id="path3050-5-7-0" d="m -37.397384,868.29345 5.26713,0.5062 17.44037,-0.17261 -5.766977,-0.49326 z" style="fill:#d85460;fill-rule:evenodd;stroke:#000;stroke-opacity:1"/><path id="path3048-1-6-4" d="m -32.130254,884.17922 0,-15.37957 17.44037,-0.17261 0,15.15178 z" style="fill:#b72a38;fill-rule:evenodd;stroke:#000;stroke-opacity:1"/><path id="path3046-1-1-8" d="m -37.397384,883.15834 5.26713,1.02088 0,-15.37957 -5.26713,-0.5062 z" style="fill:#92222d;fill-rule:evenodd;stroke:#000;stroke-opacity:1"/></g><g style="fill:none;stroke:none" id="g3040-4-1-5-0"><path id="path3044-7-6-95-1" d="m 152.95406,928.28792 11.12936,2.45227 17.27756,-1.33171 -11.47481,-2.36911 z" style="fill:#a00;fill-rule:evenodd;stroke:none"/><path id="path3042-5-8-2-7" d="m 152.95406,928.28792 0,-28.44014 16.93211,-0.76282 0,27.95441 z" style="fill:#353564;fill-rule:evenodd;stroke:none"/><path id="path3052-1-5-5-7" d="m 169.88617,927.03937 11.47481,2.36911 0,-28.84858 -11.47481,-1.47494 z" style="fill:#e9e9ff;fill-rule:evenodd;stroke:none"/><path id="path3050-5-7-0-2" d="m 152.95406,899.84778 11.12936,1.52624 17.27756,-0.81412 -11.47481,-1.47494 z" style="fill:#d85460;fill-rule:evenodd;stroke:#000;stroke-opacity:1"/><path id="path3048-1-6-4-5" d="m 164.08342,930.74019 0,-29.36617 17.27756,-0.81412 0,28.84858 z" style="fill:#b72a38;fill-rule:evenodd;stroke:#000;stroke-opacity:1"/><path id="path3046-1-1-8-5" d="m 152.95406,928.28792 11.12936,2.45227 0,-29.36617 -11.12936,-1.52624 z" style="fill:#92222d;fill-rule:evenodd;stroke:#000;stroke-opacity:1"/></g><g style="fill:none;stroke:none" id="g3040-4-1-5-3"><path id="path3044-7-6-95-7" d="m 221.25597,931.12492 10.10291,1.90282 14.51926,-1.24707 -10.29214,-1.84356 z" style="fill:#a00;fill-rule:evenodd;stroke:none"/><path id="path3042-5-8-2-8" d="m 221.25597,931.12492 0,-16.68959 14.33003,-0.92873 0,16.43051 z" style="fill:#353564;fill-rule:evenodd;stroke:none"/><path id="path3052-1-5-5-3" d="m 235.586,929.93711 10.29214,1.84356 0,-16.83169 -10.29214,-1.44238 z" style="fill:#e9e9ff;fill-rule:evenodd;stroke:none"/><path id="path3050-5-7-0-1" d="m 221.25597,914.43533 10.10291,1.48873 14.51926,-0.97508 -10.29214,-1.44238 z" style="fill:#d85460;fill-rule:evenodd;stroke:#000;stroke-opacity:1"/><path id="path3048-1-6-4-55" d="m 231.35888,933.02774 0,-17.10368 14.51926,-0.97508 0,16.83169 z" style="fill:#b72a38;fill-rule:evenodd;stroke:#000;stroke-opacity:1"/><path id="path3046-1-1-8-4" d="m 221.25597,931.12492 10.10291,1.90282 0,-17.10368 -10.10291,-1.48873 z" style="fill:#92222d;fill-rule:evenodd;stroke:#000;stroke-opacity:1"/></g><g style="fill:none;stroke:none" id="g3040-4-1-4"><path id="path3044-7-6-0" d="m 417.22679,932.47128 24.02064,3.13396 20.24727,-2.34992 -24.10314,-2.96022 z" style="fill:#a00;fill-rule:evenodd;stroke:none"/><path id="path3042-5-8-8" d="m 417.22679,932.47128 0,-25.53042 20.16477,-1.4684 0,24.82264 z" style="fill:#353564;fill-rule:evenodd;stroke:none"/><path id="path3052-1-5-9" d="m 437.39156,930.2951 24.10314,2.96022 0,-25.77542 -24.10314,-2.00744 z" style="fill:#e9e9ff;fill-rule:evenodd;stroke:none"/><path id="path3050-5-7-5" d="m 417.22679,906.94086 24.02064,2.12498 20.24727,-1.58594 -24.10314,-2.00744 z" style="fill:#d85460;fill-rule:evenodd;stroke:#000;stroke-opacity:1"/><path id="path3048-1-6-33" d="m 441.24743,935.60524 0,-26.5394 20.24727,-1.58594 0,25.77542 z" style="fill:#b72a38;fill-rule:evenodd;stroke:#000;stroke-opacity:1"/><path id="path3046-1-1-6" d="m 417.22679,932.47128 24.02064,3.13396 0,-26.5394 -24.02064,-2.12498 z" style="fill:#92222d;fill-rule:evenodd;stroke:#000;stroke-opacity:1"/></g><g style="fill:none;stroke:none" id="g3040-4-1-7-0"><path id="path3044-7-6-9-4" d="m 373.38395,928.969 13.14908,1.76726 20.15776,-2.0412 -13.25454,-1.67602 z" style="fill:#a00;fill-rule:evenodd;stroke:none"/><path id="path3042-5-8-7-8" d="m 373.38395,928.969 0,-17.35454 20.0523,-1.49872 0,16.9033 z" style="fill:#353564;fill-rule:evenodd;stroke:none"/><path id="path3052-1-5-3-9" d="m 393.43625,927.01904 13.25454,1.67602 0,-17.28694 -13.25454,-1.29238 z" style="fill:#e9e9ff;fill-rule:evenodd;stroke:none"/><path id="path3050-5-7-7-7" d="m 373.38395,911.61446 13.14908,1.36263 20.15776,-1.56897 -13.25454,-1.29238 z" style="fill:#d85460;fill-rule:evenodd;stroke:#000;stroke-opacity:1"/><path id="path3048-1-6-3-8" d="m 386.53303,930.73626 0,-17.75917 20.15776,-1.56897 0,17.28694 z" style="fill:#b72a38;fill-rule:evenodd;stroke:#000;stroke-opacity:1"/><path id="path3046-1-1-2-2" d="m 373.38395,928.969 13.14908,1.76726 0,-17.75917 -13.14908,-1.36263 z" style="fill:#92222d;fill-rule:evenodd;stroke:#000;stroke-opacity:1"/></g><g style="fill:none;stroke:none" id="g3040-4-1-7-0-9"><path id="path3044-7-6-9-4-6" d="m 378.32356,894.72146 11.2577,0.78805 17.23201,-0.92877 -11.33476,-0.75274 z" style="fill:#a00;fill-rule:evenodd;stroke:none"/><path id="path3042-5-8-7-8-2" d="m 378.32356,894.72146 0,-14.85377 17.15495,-0.56166 0,14.52197 z" style="fill:#353564;fill-rule:evenodd;stroke:none"/><path id="path3052-1-5-3-9-1" d="m 395.47851,893.828 11.33476,0.75274 0,-14.80422 -11.33476,-0.47049 z" style="fill:#e9e9ff;fill-rule:evenodd;stroke:none"/><path id="path3050-5-7-7-7-9" d="m 378.32356,879.86769 11.2577,0.49262 17.23201,-0.58379 -11.33476,-0.47049 z" style="fill:#d85460;fill-rule:evenodd;stroke:#000;stroke-opacity:1"/><path id="path3048-1-6-3-8-6" d="m 389.58126,895.50951 0,-15.1492 17.23201,-0.58379 0,14.80422 z" style="fill:#b72a38;fill-rule:evenodd;stroke:#000;stroke-opacity:1"/><path id="path3046-1-1-2-2-4" d="m 378.32356,894.72146 11.2577,0.78805 0,-15.1492 -11.2577,-0.49262 z" style="fill:#92222d;fill-rule:evenodd;stroke:#000;stroke-opacity:1"/></g><g style="fill:none;stroke:none" id="g3040-4-1-5-0-5"><path id="path3044-7-6-95-1-7" d="m 188.44612,904.82142 11.56311,1.56016 15.88959,-0.83432 -11.84485,-1.51002 z" style="fill:#a00;fill-rule:evenodd;stroke:none"/><path id="path3042-5-8-2-7-1" d="m 188.44612,904.82142 0,-27.13817 15.60785,-0.34156 0,26.69555 z" style="fill:#353564;fill-rule:evenodd;stroke:none"/><path id="path3052-1-5-5-7-0" d="m 204.05397,904.03724 11.84485,1.51002 0,-27.50983 -11.84485,-0.69574 z" style="fill:#e9e9ff;fill-rule:evenodd;stroke:none"/><path id="path3050-5-7-0-2-5" d="m 188.44612,877.68325 11.56311,0.71822 15.88959,-0.36404 -11.84485,-0.69574 z" style="fill:#d85460;fill-rule:evenodd;stroke:#000;stroke-opacity:1"/><path id="path3048-1-6-4-5-8" d="m 200.00923,906.38158 0,-27.98011 15.88959,-0.36404 0,27.50983 z" style="fill:#b72a38;fill-rule:evenodd;stroke:#000;stroke-opacity:1"/><path id="path3046-1-1-8-5-4" d="m 188.44612,904.82142 11.56311,1.56016 0,-27.98011 -11.56311,-0.71822 z" style="fill:#92222d;fill-rule:evenodd;stroke:#000;stroke-opacity:1"/></g><text style="font-size:40px;font-style:normal;font-variant:normal;font-weight:300;font-stretch:normal;text-align:end;line-height:125%;letter-spacing:0;word-spacing:0;text-anchor:end;fill:#333;fill-opacity:1;stroke:none;font-family:Folks-Light;-inkscape-font-specification:Folks-Light Light" id="text9745-3" x="526.533" y="890.323" xml:space="preserve"><tspan style="font-size:20px;font-style:normal;font-variant:normal;font-weight:400;font-stretch:normal;text-align:end;text-anchor:end;fill:#333;fill-opacity:1;font-family:Sans;-inkscape-font-specification:Sans" id="tspan11640-1" x="526.533" y="890.323">Applications</tspan></text></g></svg>