<svg xmlns="http://www.w3.org/2000/svg" xmlns:osb="http://www.openswatchbook.org/uri/2009/osb" xmlns:svg="http://www.w3.org/2000/svg" id="svg2" width="792.828" height="292.104" version="1.1"><defs id="defs4"><linearGradient id="linearGradient5691" osb:paint="solid"><stop style="stop-color:#000;stop-opacity:1" id="stop5693" offset="0"/></linearGradient><clipPath id="clipPath16" clipPathUnits="userSpaceOnUse"><path id="path18" d="m 0,85.039 85.039,0 L 85.039,0 0,0 0,85.039 z"/></clipPath><clipPath id="clipPath3979" clipPathUnits="userSpaceOnUse"><path style="clip-rule:evenodd" id="path3981" d="m 0,0.1 595.2,0 0,841.8 L 0,841.9 0,0.1 Z"/></clipPath><clipPath id="clipPath3987" clipPathUnits="userSpaceOnUse"><path style="clip-rule:evenodd" id="path3989" d="m 56.7,771.2 481.8,0 0,14.1 -481.8,0 0,-14.1 z"/></clipPath><clipPath id="clipPath4005" clipPathUnits="userSpaceOnUse"><path style="clip-rule:evenodd" id="path4007" d="m 56.7,56.8 481.8,0 0,14.1 -481.8,0 0,-14.1 z"/></clipPath><clipPath id="clipPath4107" clipPathUnits="userSpaceOnUse"><path id="path4109" d="m -83,420 761,0 0,0.1 -761,0 0,-0.1 z"/></clipPath></defs><metadata id="metadata7"/><g id="layer2" transform="translate(191.7933,19.818662)"><path style="fill:none;fill-rule:evenodd;stroke:#635000;stroke-width:3;stroke-linecap:butt;stroke-linejoin:miter;stroke-miterlimit:4;stroke-dasharray:none;stroke-opacity:1" id="path4246" d="m 242.2067,1142.6472 c 155,3 156,-94 156,-94" transform="translate(0,-905.36218)"/></g><g id="layer1" transform="translate(191.7933,-885.54352)"><text style="font-style:normal;font-variant:normal;font-weight:300;font-stretch:normal;font-size:40px;line-height:125%;font-family:Folks-Light;-inkscape-font-specification:'Folks-Light Light';text-align:end;letter-spacing:0;word-spacing:0;text-anchor:end;fill:#333;fill-opacity:1;stroke:none" id="text9745" x="-28.947" y="901.246" xml:space="preserve"><tspan style="font-style:normal;font-variant:normal;font-weight:400;font-stretch:normal;font-size:20px;font-family:Sans;-inkscape-font-specification:Sans;text-align:center;text-anchor:middle;fill:#333;fill-opacity:1" id="tspan11640" x="-28.947" y="901.246">Process Engine</tspan><tspan style="font-style:normal;font-variant:normal;font-weight:400;font-stretch:normal;font-size:20px;font-family:Sans;-inkscape-font-specification:Sans;text-align:center;text-anchor:middle;fill:#333;fill-opacity:1" id="tspan4234" x="-28.947" y="926.246">with multiple Tenants</tspan></text><g style="fill:none;stroke:none" id="g3040-4-80-3"><path id="path3044-7-1-06" d="m -88.506033,1002.3565 40.387016,57.212 134.733054,-23.6034 -71.433104,-46.3287 z" style="fill:#a00;fill-rule:evenodd;stroke:none"/><path id="path3042-5-5-47" d="m -88.506033,1002.3565 0,-16.91297 103.686966,-11.28775 0,15.48062 z" style="fill:#353564;fill-rule:evenodd;stroke:none"/><path id="path3052-1-1-7" d="m 15.180933,989.6364 71.433104,46.3287 0,-20.8021 -71.433104,-41.00722 z" style="fill:#e9e9ff;fill-rule:evenodd;stroke:none"/><path id="path3050-5-2-7" d="M -88.506033,985.44353 -48.119017,1036.0952 86.614037,1015.163 15.180933,974.15578 z" style="fill:#bdbdbd;fill-opacity:1;fill-rule:evenodd;stroke:#000;stroke-opacity:1"/><path id="path3048-1-9-31" d="m -48.119017,1059.5685 0,-23.4733 134.733054,-20.9322 0,20.8021 z" style="fill:#9c9c9c;fill-opacity:1;fill-rule:evenodd;stroke:#000;stroke-opacity:1"/><path id="path3046-1-0-2" d="m -88.506033,1002.3565 40.387016,57.212 0,-23.4733 -40.387016,-50.65167 z" style="fill:#606060;fill-opacity:1;fill-rule:evenodd;stroke:#000;stroke-opacity:1"/></g><g style="fill:none;stroke:none" id="g3040-4-1-1-0-7"><path id="path3044-7-6-4-1-6" d="M -73.0289,987.79486 -40.211603,1025.3174 60.176132,1010.9408 8.988409,978.88601 z" style="fill:#a00;fill-rule:evenodd;stroke:none"/><path id="path3042-5-8-46-6-79" d="m -73.0289,987.79486 0,-47.32798 82.017309,-5.72884 0,44.14797 z" style="fill:#353564;fill-rule:evenodd;stroke:none"/><path id="path3052-1-5-7-0-41" d="m 8.988409,978.88601 51.187723,32.05479 0,-55.52924 -51.187723,-20.67352 z" style="fill:#e9e9ff;fill-rule:evenodd;stroke:none"/><path id="path3050-5-7-11-5-0" d="m -73.0289,940.46688 32.817297,24.1952 100.387735,-9.25052 -51.187723,-20.67352 z" style="fill:#3f81d3;fill-opacity:1;fill-rule:evenodd;stroke:#000;stroke-opacity:1"/><path id="path3048-1-6-8-8-7" d="m -40.211603,1025.3174 0,-60.65532 100.387735,-9.25052 0,55.52924 z" style="fill:#2a69b7;fill-opacity:1;fill-rule:evenodd;stroke:#000;stroke-opacity:1"/><path id="path3046-1-1-6-2-1" d="m -73.0289,987.79486 32.817297,37.52254 0,-60.65532 -32.817297,-24.1952 z" style="fill:#255b9f;fill-opacity:1;fill-rule:evenodd;stroke:#000;stroke-opacity:1"/></g><text style="font-style:normal;font-variant:normal;font-weight:300;font-stretch:normal;font-size:40px;line-height:125%;font-family:Folks-Light;-inkscape-font-specification:'Folks-Light Light';letter-spacing:0;word-spacing:0;fill:#000;fill-opacity:1;stroke:none" id="text11632" x="58.002" y="1106.892" xml:space="preserve"><tspan id="tspan11634" x="61.186" y="1106.892" style="font-style:normal;font-variant:normal;font-weight:400;font-stretch:normal;font-size:20px;font-family:Sans;-inkscape-font-specification:Sans;text-align:center;text-anchor:middle">One Database </tspan><tspan style="font-style:normal;font-variant:normal;font-weight:400;font-stretch:normal;font-size:20px;font-family:Sans;-inkscape-font-specification:Sans;text-align:center;text-anchor:middle" id="tspan4238" x="58.002" y="1131.892">for all Tenants</tspan></text><g style="fill:none;stroke:none" id="g3040-4-80-9-9"><path id="path3044-7-1-0-0" d="m 138.62118,1146.6372 38.41212,34.2721 60.88251,-20.501 -42.27935,-30.3059 z" style="fill:#a00;fill-rule:evenodd;stroke:none"/><path id="path3042-5-5-4-6" d="m 138.62118,1146.6372 0,-9.2666 57.01528,-16.0118 0,8.7436 z" style="fill:#353564;fill-rule:evenodd;stroke:none"/><path id="path3052-1-1-8-4" d="m 195.63646,1130.1024 42.27935,30.3059 0,-9.7058 -42.27935,-29.3437 z" style="fill:#e9e9ff;fill-rule:evenodd;stroke:none"/><path id="path3050-5-2-8-1" d="m 138.62118,1137.3706 38.41212,33.1844 60.88251,-19.8525 -42.27935,-29.3437 z" style="fill:#f9cc09;fill-opacity:1;fill-rule:evenodd;stroke:#000;stroke-opacity:1"/><path id="path3048-1-9-3-7" d="m 177.0333,1180.9093 0,-10.3543 60.88251,-19.8525 0,9.7058 z" style="fill:#fad844;fill-opacity:1;fill-rule:evenodd;stroke:#000;stroke-opacity:1"/><path id="path3046-1-0-1-7" d="m 138.62118,1146.6372 38.41212,34.2721 0,-10.3543 -38.41212,-33.1844 z" style="fill:#b59405;fill-opacity:1;fill-rule:evenodd;stroke:#000;stroke-opacity:1"/></g><g style="fill:none;stroke:none" id="g3040-4-80-9-9-9"><path id="path3044-7-1-0-0-8" d="m 139.34238,1134.2916 37.88514,32.1238 60.69108,-19.5513 -41.66887,-28.3961 z" style="fill:#a00;fill-rule:evenodd;stroke:none"/><path id="path3042-5-5-4-6-9" d="m 139.34238,1134.2916 0,-9.7435 56.90735,-15.2722 0,9.1921 z" style="fill:#353564;fill-rule:evenodd;stroke:none"/><path id="path3052-1-1-8-4-6" d="m 196.24973,1118.468 41.66887,28.3961 0,-10.1871 -41.66887,-27.4011 z" style="fill:#e9e9ff;fill-rule:evenodd;stroke:none"/><path id="path3050-5-2-8-1-2" d="m 139.34238,1124.5481 37.88514,30.9985 60.69108,-18.8696 -41.66887,-27.4011 z" style="fill:#f9cc09;fill-opacity:1;fill-rule:evenodd;stroke:#000;stroke-opacity:1"/><path id="path3048-1-9-3-7-2" d="m 177.22752,1166.4154 0,-10.8688 60.69108,-18.8696 0,10.1871 z" style="fill:#fad844;fill-opacity:1;fill-rule:evenodd;stroke:#000;stroke-opacity:1"/><path id="path3046-1-0-1-7-9" d="m 139.34238,1134.2916 37.88514,32.1238 0,-10.8688 -37.88514,-30.9985 z" style="fill:#b59405;fill-opacity:1;fill-rule:evenodd;stroke:#000;stroke-opacity:1"/></g><g style="fill:none;stroke:none" id="g3040-4-80-9-9-0"><path id="path3044-7-1-0-0-1" d="m 138.97824,1119.9369 38.15445,30.8384 61.78337,-18.7866 -42.01895,-27.2314 z" points="177.133 1150.775 238.916 1131.989 196.897 1104.757 138.978 1119.937" style="fill:#a00;fill-rule:evenodd;stroke:none"/><path id="path3042-5-5-4-6-90" d="m 138.97824,1119.9369 0,-7.1309 57.91887,-14.771 0,6.7223 z" points="138.978 1112.806 196.897 1098.035 196.897 1104.757 138.978 1119.937" style="fill:#353564;fill-rule:evenodd;stroke:none"/><path id="path3052-1-1-8-4-7" d="m 196.89711,1104.7573 42.01895,27.2314 0,-7.4521 -42.01895,-26.5016 z" points="238.916 1131.989 238.916 1124.537 196.897 1098.035 196.897 1104.757" style="fill:#e9e9ff;fill-rule:evenodd;stroke:none"/><path id="path3050-5-2-8-1-9" d="m 138.97824,1112.806 38.15445,30.0117 61.78337,-18.2811 -42.01895,-26.5016 z" points="177.133 1142.818 238.916 1124.537 196.897 1098.035 138.978 1112.806" style="fill:#f9cc09;fill-opacity:1;fill-rule:evenodd;stroke:#000;stroke-opacity:1"/><path id="path3048-1-9-3-7-5" d="m 177.13269,1150.7753 0,-7.9576 61.78337,-18.2811 0,7.4521 z" points="177.133 1142.818 238.916 1124.537 238.916 1131.989 177.133 1150.775" style="fill:#fad844;fill-opacity:1;fill-rule:evenodd;stroke:#000;stroke-opacity:1"/><path id="path3046-1-0-1-7-4" d="m 138.97824,1119.9369 38.15445,30.8384 0,-7.9576 -38.15445,-30.0117 z" points="177.133 1150.775 177.133 1142.818 138.978 1112.806 138.978 1119.937" style="fill:#b59405;fill-opacity:1;fill-rule:evenodd;stroke:#000;stroke-opacity:1"/></g><path style="fill:none;stroke:#635000;stroke-width:3;stroke-linecap:butt;stroke-linejoin:miter;stroke-opacity:1;stroke-miterlimit:4;stroke-dasharray:none" id="path11626" d="m 199.0099,104.97499 c 39.87536,36.8333 165.31902,58.93414 166.30288,123.46984" transform="translate(-191.7933,885.54352)"/><g id="g3973" transform="matrix(1.25,0,0,-1.25,247.55467,1622.0525)"><g id="g4001"><g id="g4003" clip-path="url(#clipPath4005)"><g id="g4011"><text id="text4013" transform="matrix(1,0,0,-1,282.1,60.4)" style="font-variant:normal;font-weight:400;font-size:10px;font-family:'Liberation Sans';-inkscape-font-specification:LiberationSans;writing-mode:lr-tb;fill:#000;fill-opacity:1;fill-rule:nonzero;stroke:none"><tspan id="tspan4015" x="0 6.69 12.28 14.48 17.27 22.77" y="0">Seite</tspan></text></g><g id="g4017"><text id="text4019" transform="matrix(1,0,0,-1,307.7,60.4)" style="font-variant:normal;font-weight:400;font-size:10px;font-family:'Liberation Sans';-inkscape-font-specification:LiberationSans;writing-mode:lr-tb;fill:#000;fill-opacity:1;fill-rule:nonzero;stroke:none"><tspan id="tspan4021" x="0" y="0">1</tspan></text></g></g></g><path id="path4025" d="m 261.33038,528.7018 -0.87956,-0.99818 -279.701636,0 -0.769619,0.99818 -0.879565,0.99818 283,0 -0.76962,-0.99818 z" style="fill:#000;fill-opacity:1;fill-rule:evenodd;stroke:none"/><path id="path4027" d="m 261.33038,509.98595 -0.87956,-0.24954 -279.59169,0 -0.879565,0.24954 0.879565,0.37432 279.59169,0 0.87956,-0.37432 z" style="fill:#000;fill-opacity:1;fill-rule:evenodd;stroke:none"/><path id="path4029" d="m 261.33038,494.0151 -0.87956,-0.24955 -279.59169,0 -0.879565,0.24955 0.879565,0.37432 279.59169,0 0.87956,-0.37432 z" style="fill:#000;fill-opacity:1;fill-rule:evenodd;stroke:none"/><path id="path4031" d="m 261.33038,478.04424 -0.87956,-0.24954 -279.59169,0 -0.879565,0.24954 0.879565,0.37432 279.59169,0 0.87956,-0.37432 z" style="fill:#000;fill-opacity:1;fill-rule:evenodd;stroke:none"/><path id="path4033" d="m 261.33038,462.19816 0.76962,-0.99818 -283,0 0.879565,0.99818 0.769619,0.87341 279.701636,0 0.87956,-0.87341 z" style="fill:#000;fill-opacity:1;fill-rule:evenodd;stroke:none"/><path id="path4035" d="m -20.020435,528.7018 0.769619,-0.99818 0,-64.63205 -0.769619,-0.87341 -0.879565,-0.99818 0,68.5 0.879565,-0.99818 z" style="fill:#000;fill-opacity:1;fill-rule:evenodd;stroke:none"/><path id="path4037" d="m 50.23481,509.98595 0.329836,-0.24954 0,-46.66484 -0.329836,-0.87341 -0.219892,0.87341 0,46.66484 0.219892,0.24954 z" style="fill:#000;fill-opacity:1;fill-rule:evenodd;stroke:none"/><path id="path4039" d="m 120.6,509.98595 0.32984,-0.24954 0,-46.66484 -0.32984,-0.87341 -0.21989,0.87341 0,46.66484 0.21989,0.24954 z" style="fill:#000;fill-opacity:1;fill-rule:evenodd;stroke:none"/><path id="path4041" d="m 190.96519,509.98595 0.32984,-0.24954 0,-46.66484 -0.32984,-0.87341 -0.32984,0.87341 0,46.66484 0.32984,0.24954 z" style="fill:#000;fill-opacity:1;fill-rule:evenodd;stroke:none"/><path id="path4043" d="m 261.33038,528.7018 0.76962,0.99818 0,-68.5 -0.76962,0.99818 -0.87956,0.87341 0,64.63205 0.87956,0.99818 z" style="fill:#000;fill-opacity:1;fill-rule:evenodd;stroke:none"/><text id="text4045" x="62.416" y="-482.827" transform="scale(0.93870653,-1.0652957)" style="font-variant:normal;font-weight:700;font-size:14.05494976px;font-family:'Liberation Sans';-inkscape-font-specification:LiberationSans-Bold;writing-mode:lr-tb;fill:#000;fill-opacity:1;fill-rule:nonzero;stroke:none"><tspan id="tspan4047" x="62.416 71.903 82.079 90.512 98.341 108.517 117.877 125.706 135.066 145.242 156.135 166.311 176.486 185.847" y="-482.827">ACT_RE_PROCDEF</tspan></text><text id="text4049" x="-20.156" y="-467.366" transform="scale(0.93870653,-1.0652957)" style="font-variant:normal;font-weight:700;font-size:11.71245861px;font-family:'Liberation Sans';-inkscape-font-specification:LiberationSans-Bold;writing-mode:lr-tb;fill:#000;fill-opacity:1;fill-rule:nonzero;stroke:none"><tspan id="tspan4051" x="-20.156 -16.889 -8.456" y="-467.366">ID_</tspan></text><text id="text4053" x="54.803" y="-467.366" transform="scale(0.93870653,-1.0652957)" style="font-variant:normal;font-weight:700;font-size:11.71245861px;font-family:'Liberation Sans';-inkscape-font-specification:LiberationSans-Bold;writing-mode:lr-tb;fill:#000;fill-opacity:1;fill-rule:nonzero;stroke:none"><tspan id="tspan4055" x="54.803 63.236 71.072 78.802" y="-467.366">KEY_</tspan></text><text id="text4057" x="129.646" y="-467.366" transform="scale(0.93870653,-1.0652957)" style="font-variant:normal;font-weight:700;font-size:11.71245861px;font-family:'Liberation Sans';-inkscape-font-specification:LiberationSans-Bold;writing-mode:lr-tb;fill:#000;fill-opacity:1;fill-rule:nonzero;stroke:none"><tspan id="tspan4059" x="129.646" y="-467.366">…</tspan></text><g id="g4061" transform="matrix(1.0994561,0,0,1.2477231,-82.359596,-424.68342)"><text id="text4063" transform="matrix(1,0,0,-1,249.6,739.4)" style="font-variant:normal;font-weight:700;font-size:10px;font-family:'Liberation Sans';-inkscape-font-specification:LiberationSans-Bold;writing-mode:lr-tb;fill:#f33;fill-opacity:1;fill-rule:nonzero;stroke:none"><tspan id="tspan4065" x="0 6.1 12.79 19.99 26.89 34.09 40.19 45.78 48.57 55.77" y="0">TENANT_ID_</tspan></text></g><text id="text4067" x="-20.156" y="-452.374" transform="scale(0.93870653,-1.0652957)" style="font-variant:normal;font-weight:400;font-size:11.71245861px;font-family:'Liberation Sans';-inkscape-font-specification:LiberationSans;writing-mode:lr-tb;fill:#000;fill-opacity:1;fill-rule:nonzero;stroke:none"><tspan id="tspan3531" x="-20.156" y="-452.374">invoice:1:1f..</tspan></text><text id="text4071" x="54.803" y="-452.374" transform="scale(0.93870653,-1.0652957)" style="font-variant:normal;font-weight:400;font-size:11.71245861px;font-family:'Liberation Sans';-inkscape-font-specification:LiberationSans;writing-mode:lr-tb;fill:#000;fill-opacity:1;fill-rule:nonzero;stroke:none"><tspan id="tspan4073" x="54.803 57.38 63.927 69.666 76.214 78.79 84.647" y="-452.374">invoice</tspan></text><text id="text4075" x="129.646" y="-452.374" transform="scale(0.93870653,-1.0652957)" style="font-variant:normal;font-weight:400;font-size:11.71245861px;font-family:'Liberation Sans';-inkscape-font-specification:LiberationSans;writing-mode:lr-tb;fill:#000;fill-opacity:1;fill-rule:nonzero;stroke:none"><tspan id="tspan4077" x="129.646" y="-452.374">…</tspan></text><g id="g4079" transform="matrix(1.0994561,0,0,1.2477231,-82.359596,-424.68342)"><text id="text4081" transform="matrix(1,0,0,-1,249.6,726.6)" style="font-variant:normal;font-weight:400;font-size:10px;font-family:'Liberation Sans';-inkscape-font-specification:LiberationSans;writing-mode:lr-tb;fill:#f33;fill-opacity:1;fill-rule:nonzero;stroke:none"><tspan id="tspan4083" x="0 2.79 8.38 13.97 19.56 25.15 27.94" y="0">tenant1</tspan></text></g><text id="text4085" x="-20.156" y="-437.382" transform="scale(0.93870653,-1.0652957)" style="font-variant:normal;font-weight:400;font-size:11.71245861px;font-family:'Liberation Sans';-inkscape-font-specification:LiberationSans;writing-mode:lr-tb;fill:#000;fill-opacity:1;fill-rule:nonzero;stroke:none"><tspan id="tspan4087" x="-20.156 -17.58 -11.032 -5.293 1.254 3.831 9.687 16.234 19.502" y="-437.382">invoice:1:8d..</tspan></text><text id="text4089" x="54.803" y="-437.382" transform="scale(0.93870653,-1.0652957)" style="font-variant:normal;font-weight:400;font-size:11.71245861px;font-family:'Liberation Sans';-inkscape-font-specification:LiberationSans;writing-mode:lr-tb;fill:#000;fill-opacity:1;fill-rule:nonzero;stroke:none"><tspan id="tspan4091" x="54.803 57.38 63.927 69.666 76.214 78.79 84.647" y="-437.382">invoice</tspan></text><text id="text4093" x="129.646" y="-437.382" transform="scale(0.93870653,-1.0652957)" style="font-variant:normal;font-weight:400;font-size:11.71245861px;font-family:'Liberation Sans';-inkscape-font-specification:LiberationSans;writing-mode:lr-tb;fill:#000;fill-opacity:1;fill-rule:nonzero;stroke:none"><tspan id="tspan4095" x="129.646" y="-437.382">…</tspan></text><g id="g4097" transform="matrix(1.0994561,0,0,1.2477231,-82.359596,-424.68342)"><text id="text4099" transform="matrix(1,0,0,-1,249.6,713.8)" style="font-variant:normal;font-weight:400;font-size:10px;font-family:'Liberation Sans';-inkscape-font-specification:LiberationSans;writing-mode:lr-tb;fill:#f33;fill-opacity:1;fill-rule:nonzero;stroke:none"><tspan id="tspan4101" x="0 2.79 8.38 13.97 19.56 25.15 27.94" y="0">tenant2</tspan></text></g></g><text style="font-style:normal;font-weight:400;font-size:40px;line-height:125%;font-family:sans-serif;letter-spacing:0;word-spacing:0;fill:#000;fill-opacity:1;stroke:none;stroke-width:1px;stroke-linecap:butt;stroke-linejoin:miter;stroke-opacity:1" id="text4240" x="387.934" y="926.647" xml:space="preserve"><tspan id="tspan4242" x="391.118" y="926.647" style="font-style:normal;font-variant:normal;font-weight:400;font-stretch:normal;font-size:20px;font-family:Sans;-inkscape-font-specification:Sans;text-align:center;text-anchor:middle">Database Rows </tspan><tspan id="tspan4244" x="387.934" y="951.647" style="font-style:normal;font-variant:normal;font-weight:400;font-stretch:normal;font-size:20px;font-family:Sans;-inkscape-font-specification:Sans;text-align:center;text-anchor:middle">with Tenant-Identifiers</tspan></text></g></svg>