<svg xmlns="http://www.w3.org/2000/svg" xmlns:osb="http://www.openswatchbook.org/uri/2009/osb" xmlns:svg="http://www.w3.org/2000/svg" id="svg2" width="792.828" height="292.104" version="1.1"><defs id="defs4"><linearGradient id="linearGradient5691" osb:paint="solid"><stop style="stop-color:#000;stop-opacity:1" id="stop5693" offset="0"/></linearGradient><clipPath id="clipPath16" clipPathUnits="userSpaceOnUse"><path id="path18" d="m 0,85.039 85.039,0 L 85.039,0 0,0 0,85.039 z"/></clipPath></defs><metadata id="metadata7"/><g id="layer1" transform="translate(191.7933,-885.54352)"><text style="font-size:40px;font-style:normal;font-variant:normal;font-weight:300;font-stretch:normal;text-align:end;line-height:125%;letter-spacing:0;word-spacing:0;text-anchor:end;fill:#000;fill-opacity:1;stroke:none;font-family:Folks-Light;-inkscape-font-specification:Folks-Light Light" id="text9745" x="-36.887" y="905.246" xml:space="preserve"><tspan style="font-size:20px;font-style:normal;font-variant:normal;font-weight:400;font-stretch:normal;text-align:end;text-anchor:end;fill:#000;fill-opacity:1;font-family:Sans;-inkscape-font-specification:Sans" id="tspan11640" x="-36.887" y="905.246">Tenant-specific</tspan><tspan style="font-size:20px;font-style:normal;font-variant:normal;font-weight:400;font-stretch:normal;text-align:end;text-anchor:end;fill:#000;fill-opacity:1;font-family:Sans;-inkscape-font-specification:Sans" id="tspan3359" x="-36.887" y="930.246">Process Engines</tspan></text><g style="fill:none;stroke:none" id="g3040-4-80-3"><path id="path3044-7-1-06" d="m -88.506033,1002.3565 40.387016,57.212 404.542337,-70.87044 -111.68183,-27.22368 z" points="-48.119 1059.569 365.818 987.052 253.319 960.422 -88.506 1002.356" style="fill:#a00;fill-rule:evenodd;stroke:none"/><path id="path3042-5-5-47" d="m -88.506033,1002.3565 0,-16.91297 333.247523,-36.27856 0,12.30941 z" points="-88.506 985.444 253.319 948.231 253.319 960.422 -88.506 1002.356" style="fill:#353564;fill-rule:evenodd;stroke:none"/><path id="path3052-1-1-7" d="m 244.74149,961.47438 111.68183,27.22368 0,-15.45262 -111.68183,-24.08047 z" points="365.818 987.052 365.818 971.786 253.319 948.231 253.319 960.422" style="fill:#e9e9ff;fill-rule:evenodd;stroke:none"/><path id="path3050-5-2-7" d="M -88.506033,985.44353 -48.119017,1036.0952 356.42332,973.24544 244.74149,949.16497 z" points="-48.119 1036.095 365.818 971.786 253.319 948.231 -88.506 985.444" style="fill:#bdbdbd;fill-opacity:1;fill-rule:evenodd;stroke:#000;stroke-opacity:1"/><path id="path3048-1-9-31" d="m -48.119017,1059.5685 0,-23.4733 404.542337,-62.84976 0,15.45262 z" points="-48.119 1036.095 365.818 971.786 365.818 987.052 -48.119 1059.569" style="fill:#9c9c9c;fill-opacity:1;fill-rule:evenodd;stroke:#000;stroke-opacity:1"/><path id="path3046-1-0-2" d="m -88.506033,1002.3565 40.387016,57.212 0,-23.4733 -40.387016,-50.65167 z" points="-48.119 1059.569 -48.119 1036.095 -88.506 985.444 -88.506 1002.356" style="fill:#606060;fill-opacity:1;fill-rule:evenodd;stroke:#000;stroke-opacity:1"/></g><g style="fill:none;stroke:none" id="g3040-4-1-1-0-7-2-1"><path id="path3044-7-6-4-1-6-0-0" d="m 166.96214,965.9465 57.20626,17.94762 83.23599,-11.66562 -63.3521,-15.04252 z" points="227.168 984.835 310.683 973.007 248.534 958.25 170.962 967.201" style="fill:#a00;fill-rule:evenodd;stroke:none"/><path id="path3042-5-8-46-6-79-4-9" d="m 166.96214,965.9465 0,-40.49662 77.09015,-5.57298 0,37.30908 z" points="170.962 920.615 248.534 915.369 248.534 958.25 170.962 967.201" style="fill:#353564;fill-rule:evenodd;stroke:none"/><path id="path3052-1-5-7-0-41-3-2" d="m 244.05229,957.18598 63.3521,15.04252 0,-42.78235 -63.3521,-9.56925 z" points="310.683 973.007 310.683 924.018 248.534 915.369 248.534 958.25" style="fill:#e9e9ff;fill-rule:evenodd;stroke:none"/><path id="path3050-5-7-11-5-0-3-1" d="m 166.96214,925.44988 57.20626,11.41731 83.23599,-7.42104 -63.3521,-9.56925 z" points="227.168 930.95 310.683 924.018 248.534 915.369 170.962 920.615" style="fill:#3f81d3;fill-opacity:1;fill-rule:evenodd;stroke:#000;stroke-opacity:1"/><path id="path3048-1-6-8-8-7-5-2" d="m 224.1684,983.89412 0,-47.02693 83.23599,-7.42104 0,42.78235 z" points="227.168 930.95 310.683 924.018 310.683 973.007 227.168 984.835" style="fill:#2a69b7;fill-opacity:1;fill-rule:evenodd;stroke:#000;stroke-opacity:1"/><path id="path3046-1-1-6-2-1-7-7" d="m 166.96214,965.9465 57.20626,17.94762 0,-47.02693 -57.20626,-11.41731 z" points="227.168 984.835 227.168 930.95 170.962 920.615 170.962 967.201" style="fill:#255b9f;fill-opacity:1;fill-rule:evenodd;stroke:#000;stroke-opacity:1"/></g><g style="fill:none;stroke:none" id="g3040-4-1-1-0-7-2"><path id="path3044-7-6-4-1-6-0" d="m 47.16848,976.77068 52.011418,27.03342 97.078932,-13.82756 -64.23256,-22.63377 z" points="91.47 1005.265 186.874 991.643 125.931 969.36 42.324 978.758" style="fill:#a00;fill-rule:evenodd;stroke:none"/><path id="path3042-5-8-46-6-79-4" d="m 47.16848,976.77068 0,-44.67462 84.85779,-5.97904 0,41.22575 z" points="42.324 931.328 125.931 925.521 125.931 969.36 42.324 978.758" style="fill:#353564;fill-rule:evenodd;stroke:none"/><path id="path3052-1-5-7-0-41-3" d="m 132.02627,967.34277 64.23256,22.63377 0,-49.50553 -64.23256,-14.35399 z" points="186.874 991.643 186.874 939.289 125.931 925.521 125.931 969.36" style="fill:#e9e9ff;fill-rule:evenodd;stroke:none"/><path id="path3050-5-7-11-5-0-3" d="m 47.16848,932.09606 52.011418,17.14416 97.078932,-8.76921 -64.23256,-14.35399 z" points="91.47 947.705 186.874 939.289 125.931 925.521 42.324 931.328" style="fill:#3f81d3;fill-opacity:1;fill-rule:evenodd;stroke:#000;stroke-opacity:1"/><path id="path3048-1-6-8-8-7-5" d="m 99.179898,1003.8041 0,-54.56388 97.078932,-8.76921 0,49.50553 z" points="91.47 947.705 186.874 939.289 186.874 991.643 91.47 1005.265" style="fill:#2a69b7;fill-opacity:1;fill-rule:evenodd;stroke:#000;stroke-opacity:1"/><path id="path3046-1-1-6-2-1-7" d="m 47.16848,976.77068 52.011418,27.03342 0,-54.56388 -52.011418,-17.14416 z" points="91.47 1005.265 91.47 947.705 42.324 931.328 42.324 978.758" style="fill:#255b9f;fill-opacity:1;fill-rule:evenodd;stroke:#000;stroke-opacity:1"/></g><g style="fill:none;stroke:none" id="g3040-4-1-1-0-7"><path id="path3044-7-6-4-1-6" d="M -73.0289,987.79486 -40.211603,1025.3174 60.176132,1010.9408 8.988409,978.88601 z" points="-40.212 1025.317 60.176 1010.941 8.988 978.886 -73.029 987.795" style="fill:#a00;fill-rule:evenodd;stroke:none"/><path id="path3042-5-8-46-6-79" d="m -73.0289,987.79486 0,-47.32798 82.017309,-5.72884 0,44.14797 z" points="-73.029 940.467 8.988 934.738 8.988 978.886 -73.029 987.795" style="fill:#353564;fill-rule:evenodd;stroke:none"/><path id="path3052-1-5-7-0-41" d="m 8.988409,978.88601 51.187723,32.05479 0,-55.52924 -51.187723,-20.67352 z" points="60.176 1010.941 60.176 955.412 8.988 934.738 8.988 978.886" style="fill:#e9e9ff;fill-rule:evenodd;stroke:none"/><path id="path3050-5-7-11-5-0" d="m -73.0289,940.46688 32.817297,24.1952 100.387735,-9.25052 -51.187723,-20.67352 z" points="-40.212 964.662 60.176 955.412 8.988 934.738 -73.029 940.467" style="fill:#3f81d3;fill-opacity:1;fill-rule:evenodd;stroke:#000;stroke-opacity:1"/><path id="path3048-1-6-8-8-7" d="m -40.211603,1025.3174 0,-60.65532 100.387735,-9.25052 0,55.52924 z" points="-40.212 964.662 60.176 955.412 60.176 1010.941 -40.212 1025.317" style="fill:#2a69b7;fill-opacity:1;fill-rule:evenodd;stroke:#000;stroke-opacity:1"/><path id="path3046-1-1-6-2-1" d="m -73.0289,987.79486 32.817297,37.52254 0,-60.65532 -32.817297,-24.1952 z" points="-40.212 1025.317 -40.212 964.662 -73.029 940.467 -73.029 987.795" style="fill:#255b9f;fill-opacity:1;fill-rule:evenodd;stroke:#000;stroke-opacity:1"/></g><text style="font-size:40px;font-style:normal;font-variant:normal;font-weight:300;font-stretch:normal;line-height:125%;letter-spacing:0;word-spacing:0;fill:#000;fill-opacity:1;stroke:none;font-family:Folks-Light;-inkscape-font-specification:Folks-Light Light" id="text11632" x="342.942" y="1146.892" xml:space="preserve"><tspan id="tspan11634" x="342.942" y="1146.892" style="font-size:20px;font-style:normal;font-variant:normal;font-weight:400;font-stretch:normal;font-family:Sans;-inkscape-font-specification:Sans">Separate </tspan><tspan style="font-size:20px;font-style:normal;font-variant:normal;font-weight:400;font-stretch:normal;font-family:Sans;-inkscape-font-specification:Sans" id="tspan3355" x="342.942" y="1171.892">Databases/Schemas/Tables</tspan></text><g style="fill:none;stroke:none" id="g3040-4-80-9-9"><path id="path3044-7-1-0-0" d="m 138.62118,1146.6372 38.41212,34.2721 60.88251,-20.501 -42.27935,-30.3059 z" style="fill:#a00;fill-rule:evenodd;stroke:none"/><path id="path3042-5-5-4-6" d="m 138.62118,1146.6372 0,-9.2666 57.01528,-16.0118 0,8.7436 z" style="fill:#353564;fill-rule:evenodd;stroke:none"/><path id="path3052-1-1-8-4" d="m 195.63646,1130.1024 42.27935,30.3059 0,-9.7058 -42.27935,-29.3437 z" style="fill:#e9e9ff;fill-rule:evenodd;stroke:none"/><path id="path3050-5-2-8-1" d="m 138.62118,1137.3706 38.41212,33.1844 60.88251,-19.8525 -42.27935,-29.3437 z" style="fill:#f9cc09;fill-opacity:1;fill-rule:evenodd;stroke:#000;stroke-opacity:1"/><path id="path3048-1-9-3-7" d="m 177.0333,1180.9093 0,-10.3543 60.88251,-19.8525 0,9.7058 z" style="fill:#fad844;fill-opacity:1;fill-rule:evenodd;stroke:#000;stroke-opacity:1"/><path id="path3046-1-0-1-7" d="m 138.62118,1146.6372 38.41212,34.2721 0,-10.3543 -38.41212,-33.1844 z" style="fill:#b59405;fill-opacity:1;fill-rule:evenodd;stroke:#000;stroke-opacity:1"/></g><g style="fill:none;stroke:none" id="g3040-4-80-9-9-9"><path id="path3044-7-1-0-0-8" d="m 139.34238,1134.2916 37.88514,32.1238 60.69108,-19.5513 -41.66887,-28.3961 z" style="fill:#a00;fill-rule:evenodd;stroke:none"/><path id="path3042-5-5-4-6-9" d="m 139.34238,1134.2916 0,-9.7435 56.90735,-15.2722 0,9.1921 z" style="fill:#353564;fill-rule:evenodd;stroke:none"/><path id="path3052-1-1-8-4-6" d="m 196.24973,1118.468 41.66887,28.3961 0,-10.1871 -41.66887,-27.4011 z" style="fill:#e9e9ff;fill-rule:evenodd;stroke:none"/><path id="path3050-5-2-8-1-2" d="m 139.34238,1124.5481 37.88514,30.9985 60.69108,-18.8696 -41.66887,-27.4011 z" style="fill:#f9cc09;fill-opacity:1;fill-rule:evenodd;stroke:#000;stroke-opacity:1"/><path id="path3048-1-9-3-7-2" d="m 177.22752,1166.4154 0,-10.8688 60.69108,-18.8696 0,10.1871 z" style="fill:#fad844;fill-opacity:1;fill-rule:evenodd;stroke:#000;stroke-opacity:1"/><path id="path3046-1-0-1-7-9" d="m 139.34238,1134.2916 37.88514,32.1238 0,-10.8688 -37.88514,-30.9985 z" style="fill:#b59405;fill-opacity:1;fill-rule:evenodd;stroke:#000;stroke-opacity:1"/></g><g style="fill:none;stroke:none" id="g3040-4-80-9-9-0"><path id="path3044-7-1-0-0-1" d="m 138.97824,1119.9369 38.15445,30.8384 61.78337,-18.7866 -42.01895,-27.2314 z" style="fill:#a00;fill-rule:evenodd;stroke:none"/><path id="path3042-5-5-4-6-90" d="m 138.97824,1119.9369 0,-7.1309 57.91887,-14.771 0,6.7223 z" style="fill:#353564;fill-rule:evenodd;stroke:none"/><path id="path3052-1-1-8-4-7" d="m 196.89711,1104.7573 42.01895,27.2314 0,-7.4521 -42.01895,-26.5016 z" style="fill:#e9e9ff;fill-rule:evenodd;stroke:none"/><path id="path3050-5-2-8-1-9" d="m 138.97824,1112.806 38.15445,30.0117 61.78337,-18.2811 -42.01895,-26.5016 z" style="fill:#f9cc09;fill-opacity:1;fill-rule:evenodd;stroke:#000;stroke-opacity:1"/><path id="path3048-1-9-3-7-5" d="m 177.13269,1150.7753 0,-7.9576 61.78337,-18.2811 0,7.4521 z" style="fill:#fad844;fill-opacity:1;fill-rule:evenodd;stroke:#000;stroke-opacity:1"/><path id="path3046-1-0-1-7-4" d="m 138.97824,1119.9369 38.15445,30.8384 0,-7.9576 -38.15445,-30.0117 z" style="fill:#b59405;fill-opacity:1;fill-rule:evenodd;stroke:#000;stroke-opacity:1"/></g><path style="fill:none;stroke:#635000;stroke-width:3;stroke-linecap:butt;stroke-linejoin:miter;stroke-opacity:1;stroke-miterlimit:4;stroke-dasharray:none" id="path11626" d="m 199.0099,104.97499 c 39.87536,36.8333 165.31902,58.93414 166.30288,123.46984" transform="translate(-191.7933,885.54352)"/><g style="fill:none;stroke:none" id="g3040-4-80-9-9-94"><path id="path3044-7-1-0-0-88" d="m 258.99494,1112.2954 52.07368,30.6428 52.45044,-18.1453 -54.33412,-27.1148 z" style="fill:#a00;fill-rule:evenodd;stroke:none"/><path id="path3042-5-5-4-6-2" d="m 258.99494,1112.2954 0,-8.8073 50.19,-14.1203 0,8.3103 z" style="fill:#353564;fill-rule:evenodd;stroke:none"/><path id="path3052-1-1-8-4-4" d="m 309.18494,1097.6781 54.33412,27.1148 0,-9.2246 -54.33412,-26.2005 z" style="fill:#e9e9ff;fill-rule:evenodd;stroke:none"/><path id="path3050-5-2-8-1-5" d="m 258.99494,1103.4881 52.07368,29.6089 52.45044,-17.5287 -54.33412,-26.2005 z" style="fill:#f9cc09;fill-opacity:1;fill-rule:evenodd;stroke:#000;stroke-width:.94714713;stroke-opacity:1"/><path id="path3048-1-9-3-7-51" d="m 311.06862,1142.9382 0,-9.8412 52.45044,-17.5287 0,9.2246 z" style="fill:#fad844;fill-opacity:1;fill-rule:evenodd;stroke:#000;stroke-width:.94714713;stroke-opacity:1"/><path id="path3046-1-0-1-7-7" d="m 258.99494,1112.2954 52.07368,30.6428 0,-9.8412 -52.07368,-29.6089 z" style="fill:#b59405;fill-opacity:1;fill-rule:evenodd;stroke:#000;stroke-width:.94714713;stroke-opacity:1"/></g><g style="fill:none;stroke:none" id="g3040-4-80-9-9-9-1"><path id="path3044-7-1-0-0-8-1" d="m 258.76437,1099.7887 51.70164,28.8512 52.19488,-17.1942 -53.91322,-25.5388 z" style="fill:#a00;fill-rule:evenodd;stroke:none"/><path id="path3042-5-5-4-6-9-5" d="m 258.76437,1099.7887 0,-9.4593 49.9833,-13.3492 0,8.9267 z" style="fill:#353564;fill-rule:evenodd;stroke:none"/><path id="path3052-1-1-8-4-6-2" d="m 308.74767,1085.9069 53.91322,25.5388 0,-9.8982 -53.91322,-24.5673 z" style="fill:#e9e9ff;fill-rule:evenodd;stroke:none"/><path id="path3050-5-2-8-1-2-7" d="m 258.76437,1090.3294 51.70164,27.753 52.19488,-16.5349 -53.91322,-24.5673 z" style="fill:#f9cc09;fill-opacity:1;fill-rule:evenodd;stroke:#000;stroke-width:.94714713;stroke-opacity:1"/><path id="path3048-1-9-3-7-2-6" d="m 310.46601,1128.6399 0,-10.5575 52.19488,-16.5349 0,9.8982 z" style="fill:#fad844;fill-opacity:1;fill-rule:evenodd;stroke:#000;stroke-width:.94714713;stroke-opacity:1"/><path id="path3046-1-0-1-7-9-1" d="m 258.76437,1099.7887 51.70164,28.8512 0,-10.5575 -51.70164,-27.753 z" style="fill:#b59405;fill-opacity:1;fill-rule:evenodd;stroke:#000;stroke-width:.94714713;stroke-opacity:1"/></g><g style="fill:none;stroke:none" id="g3040-4-80-9-9-0-4"><path id="path3044-7-1-0-0-1-2" d="m 258.69538,1087.1232 51.71072,27.39 53.00007,-16.5626 -53.95266,-24.1991 z" style="fill:#a00;fill-rule:evenodd;stroke:none"/><path id="path3042-5-5-4-6-90-3" d="m 258.69538,1087.1232 0,-6.8419 50.75813,-12.9805 0,6.4507 z" style="fill:#353564;fill-rule:evenodd;stroke:none"/><path id="path3052-1-1-8-4-7-2" d="m 309.45351,1073.7515 53.95266,24.1991 0,-7.1522 -53.95266,-23.4976 z" style="fill:#e9e9ff;fill-rule:evenodd;stroke:none"/><path id="path3050-5-2-8-1-9-2" d="m 258.69538,1080.2813 51.71072,26.5955 53.00007,-16.0784 -53.95266,-23.4976 z" style="fill:#f9cc09;fill-opacity:1;fill-rule:evenodd;stroke:#000;stroke-width:.94714713;stroke-opacity:1"/><path id="path3048-1-9-3-7-5-1" d="m 310.4061,1114.5132 0,-7.6364 53.00007,-16.0784 0,7.1522 z" style="fill:#fad844;fill-opacity:1;fill-rule:evenodd;stroke:#000;stroke-width:.94714713;stroke-opacity:1"/><path id="path3046-1-0-1-7-4-6" d="m 258.69538,1087.1232 51.71072,27.39 0,-7.6364 -51.71072,-26.5955 z" style="fill:#b59405;fill-opacity:1;fill-rule:evenodd;stroke:#000;stroke-width:.94714713;stroke-opacity:1"/></g><g style="fill:none;stroke:none" id="g3040-4-80-9-9-94-5"><path id="path3044-7-1-0-0-88-7" d="m 365.33694,1078.5569 64.67964,26.2424 44.96484,-15.6641 -65.48668,-23.2087 z" style="fill:#a00;fill-rule:evenodd;stroke:none"/><path id="path3042-5-5-4-6-2-6" d="m 365.33694,1078.5569 0,-8.1973 44.1578,-12.1678 0,7.7347 z" style="fill:#353564;fill-rule:evenodd;stroke:none"/><path id="path3052-1-1-8-4-4-1" d="m 409.49474,1065.9265 65.48668,23.2087 0,-8.5857 -65.48668,-22.3577 z" style="fill:#e9e9ff;fill-rule:evenodd;stroke:none"/><path id="path3050-5-2-8-1-5-8" d="m 365.33694,1070.3596 64.67964,25.2802 44.96484,-15.0903 -65.48668,-22.3577 z" style="fill:#f9cc09;fill-opacity:1;fill-rule:evenodd;stroke:#000;stroke-width:.88474208;stroke-opacity:1"/><path id="path3048-1-9-3-7-51-9" d="m 430.01658,1104.7993 0,-9.1595 44.96484,-15.0903 0,8.5857 z" style="fill:#fad844;fill-opacity:1;fill-rule:evenodd;stroke:#000;stroke-width:.88474208;stroke-opacity:1"/><path id="path3046-1-0-1-7-7-2" d="m 365.33694,1078.5569 64.67964,26.2424 0,-9.1595 -64.67964,-25.2802 z" style="fill:#b59405;fill-opacity:1;fill-rule:evenodd;stroke:#000;stroke-width:.88474208;stroke-opacity:1"/></g><g style="fill:none;stroke:none" id="g3040-4-80-9-9-9-1-7"><path id="path3044-7-1-0-0-8-1-9" d="m 365.53472,1066.839 64.21753,24.5912 44.71217,-14.779 -64.98986,-21.7558 z" style="fill:#a00;fill-rule:evenodd;stroke:none"/><path id="path3042-5-5-4-6-9-5-5" d="m 365.53472,1066.839 0,-8.8042 43.93984,-11.4478 0,8.3084 z" style="fill:#353564;fill-rule:evenodd;stroke:none"/><path id="path3052-1-1-8-4-6-2-4" d="m 409.47456,1054.8954 64.98986,21.7558 0,-9.2127 -64.98986,-20.8515 z" style="fill:#e9e9ff;fill-rule:evenodd;stroke:none"/><path id="path3050-5-2-8-1-2-7-3" d="m 365.53472,1058.0348 64.21753,23.5692 44.71217,-14.1655 -64.98986,-20.8515 z" style="fill:#f9cc09;fill-opacity:1;fill-rule:evenodd;stroke:#000;stroke-width:.88474208;stroke-opacity:1"/><path id="path3048-1-9-3-7-2-6-1" d="m 429.75225,1091.4302 0,-9.8262 44.71217,-14.1655 0,9.2127 z" style="fill:#fad844;fill-opacity:1;fill-rule:evenodd;stroke:#000;stroke-width:.88474208;stroke-opacity:1"/><path id="path3046-1-0-1-7-9-1-2" d="m 365.53472,1066.839 64.21753,24.5912 0,-9.8262 -64.21753,-23.5692 z" style="fill:#b59405;fill-opacity:1;fill-rule:evenodd;stroke:#000;stroke-width:.88474208;stroke-opacity:1"/></g><g style="fill:none;stroke:none" id="g3040-4-80-9-9-0-4-3"><path id="path3044-7-1-0-0-1-2-3" d="m 365.44903,1055.0538 64.22882,23.2307 45.40338,-14.1724 -65.00978,-20.5122 z" style="fill:#a00;fill-rule:evenodd;stroke:none"/><path id="path3042-5-5-4-6-90-3-4" d="m 365.44903,1055.0538 0,-6.3681 44.62242,-11.0898 0,6.004 z" style="fill:#353564;fill-rule:evenodd;stroke:none"/><path id="path3052-1-1-8-4-7-2-1" d="m 410.07145,1043.5999 65.00978,20.5122 0,-6.6569 -65.00978,-19.8593 z" style="fill:#e9e9ff;fill-rule:evenodd;stroke:none"/><path id="path3050-5-2-8-1-9-2-1" d="m 365.44903,1048.6857 64.22882,22.4913 45.40338,-13.7218 -65.00978,-19.8593 z" style="fill:#f9cc09;fill-opacity:1;fill-rule:evenodd;stroke:#000;stroke-width:.88474208;stroke-opacity:1"/><path id="path3048-1-9-3-7-5-1-3" d="m 429.67785,1078.2845 0,-7.1075 45.40338,-13.7218 0,6.6569 z" style="fill:#fad844;fill-opacity:1;fill-rule:evenodd;stroke:#000;stroke-width:.88474208;stroke-opacity:1"/><path id="path3046-1-0-1-7-4-6-8" d="m 365.44903,1055.0538 64.22882,23.2307 0,-7.1075 -64.22882,-22.4913 z" style="fill:#b59405;fill-opacity:1;fill-rule:evenodd;stroke:#000;stroke-width:.88474208;stroke-opacity:1"/></g><path style="fill:none;stroke:#635000;stroke-width:2.60550117;stroke-linecap:butt;stroke-linejoin:miter;stroke-miterlimit:4;stroke-opacity:1;stroke-dasharray:none" id="path11626-7" d="m 139.85801,974.71503 c 35.41422,31.28297 146.82359,50.05347 147.69738,104.86437"/><path style="fill:none;stroke:#635000;stroke-width:2.22757173;stroke-linecap:butt;stroke-linejoin:miter;stroke-miterlimit:4;stroke-opacity:1;stroke-dasharray:none" id="path11626-7-4" d="m 274.16905,955.02607 c 29.75022,27.21925 123.34126,43.55143 124.0753,91.24233"/><text style="font-size:40px;font-style:normal;font-variant:normal;font-weight:300;font-stretch:normal;text-align:end;line-height:125%;letter-spacing:0;word-spacing:0;text-anchor:end;fill:#000;fill-opacity:1;stroke:none;font-family:Folks-Light;-inkscape-font-specification:Folks-Light Light" id="text9745-2" x="21.626" y="1084.323" xml:space="preserve"><tspan style="font-size:20px;font-style:normal;font-variant:normal;font-weight:400;font-stretch:normal;text-align:end;text-anchor:end;fill:#000;fill-opacity:1;font-family:Sans;-inkscape-font-specification:Sans" id="tspan3359-7" x="27.173" y="1084.323">Shared Application </tspan><tspan style="font-size:20px;font-style:normal;font-variant:normal;font-weight:400;font-stretch:normal;text-align:end;text-anchor:end;fill:#000;fill-opacity:1;font-family:Sans;-inkscape-font-specification:Sans" id="tspan3395" x="21.626" y="1109.323">Server Resources</tspan></text></g></svg>