<svg xmlns="http://www.w3.org/2000/svg" xmlns:xlink="http://www.w3.org/1999/xlink" width="528" height="159" version="1.1" viewBox="146 74 528 159"><defs><marker id="sequenceflow-end-white-black-22ljd1cocmqkrx2btkuwh0px3" markerHeight="10" markerWidth="10" orient="auto" refX="11" refY="10" viewBox="0 0 20 20"><path d="M 1 5 L 11 10 L 1 15 Z" style="fill:#000;stroke-width:1px;stroke-linecap:round;stroke-dasharray:10000,1;stroke:#000"/></marker></defs><g class="djs-group"><g class="djs-element djs-shape" data-element-id="TextAnnotation_1i413rw" transform="matrix(1 0 0 1 190 80)" style="display:block"><g class="djs-visual"><rect width="116" height="39" x="0" y="0" rx="0" ry="0" style="stroke:none;stroke-width:2px;fill:none"/><path d="m 0, 0 m 10,0 l -10,0 l 0,39 l 10,0" style="fill:none;stroke-width:2px;stroke:#000"/><text class="djs-label" lineHeight="1.2" style="font-family:Arial,sans-serif;font-size:12px;font-weight:400;fill:#000"><tspan x="5" y="15.8">asyncBefore=true</tspan></text></g><rect width="116" height="39" x="0" y="0" class="djs-hit djs-hit-all" style="fill:none;stroke-opacity:0;stroke:#fff;stroke-width:15px"/><rect width="128" height="51" x="-6" y="-6" class="djs-outline" style="fill:none"/></g></g><g class="djs-group"><g class="djs-element djs-connection" data-element-id="Flow_0o3uo3m" style="display:block"><g class="djs-visual"><path d="m 580,187L632,187" style="fill:none;stroke-width:2px;stroke:#000;stroke-linejoin:round;marker-end:url(#sequenceflow-end-white-black-22ljd1cocmqkrx2btkuwh0px3)"/></g><polyline points="580 187 632 187" class="djs-hit djs-hit-stroke" style="fill:none;stroke-opacity:0;stroke:#fff;stroke-width:15px"/><rect width="64" height="12" x="574" y="181" class="djs-outline" style="fill:none"/></g></g><g class="djs-group"><g class="djs-element djs-connection" data-element-id="SequenceFlow_1kj04ng" style="display:block"><g class="djs-visual"><path d="m 410,187L480,187" style="fill:none;stroke-width:2px;stroke:#000;stroke-linejoin:round;marker-end:url(#sequenceflow-end-white-black-22ljd1cocmqkrx2btkuwh0px3)"/></g><polyline points="410 187 480 187" class="djs-hit djs-hit-stroke" style="fill:none;stroke-opacity:0;stroke:#fff;stroke-width:15px"/><rect width="82" height="12" x="404" y="181" class="djs-outline" style="fill:none"/></g></g><g class="djs-group"><g class="djs-element djs-connection" data-element-id="SequenceFlow_00irwn1" style="display:block"><g class="djs-visual"><path d="m 188,187L310,187" style="fill:none;stroke-width:2px;stroke:#000;stroke-linejoin:round;marker-end:url(#sequenceflow-end-white-black-22ljd1cocmqkrx2btkuwh0px3)"/></g><polyline points="188 187 310 187" class="djs-hit djs-hit-stroke" style="fill:none;stroke-opacity:0;stroke:#fff;stroke-width:15px"/><rect width="134" height="12" x="182" y="181" class="djs-outline" style="fill:none"/></g></g><g class="djs-group"><g class="djs-element djs-shape" data-element-id="StartEvent_1" transform="matrix(1 0 0 1 152 169)" style="display:block"><g class="djs-visual"><circle cx="18" cy="18" r="18" style="stroke:#000;stroke-width:2px;fill:#fff;fill-opacity:.95"/></g><rect width="36" height="36" x="0" y="0" class="djs-hit djs-hit-all" style="fill:none;stroke-opacity:0;stroke:#fff;stroke-width:15px"/><rect width="48" height="48" x="-6" y="-6" class="djs-outline" style="fill:none"/></g></g><g class="djs-group"><g class="djs-element djs-shape" data-element-id="EndEvent_0aompeh" transform="matrix(1 0 0 1 632 169)" style="display:block"><g class="djs-visual"><circle cx="18" cy="18" r="18" style="stroke:#000;stroke-width:4px;fill:#fff;fill-opacity:.95"/></g><rect width="36" height="36" x="0" y="0" class="djs-hit djs-hit-all" style="fill:none;stroke-opacity:0;stroke:#fff;stroke-width:15px"/><rect width="48" height="48" x="-6" y="-6" class="djs-outline" style="fill:none"/></g></g><g class="djs-group"><g class="djs-element djs-shape" data-element-id="Activity_0136smr" transform="matrix(1 0 0 1 480 147)" style="display:block"><g class="djs-visual"><rect width="100" height="80" x="0" y="0" rx="10" ry="10" style="stroke:#000;stroke-width:2px;fill:#fff;fill-opacity:.95"/><text class="djs-label" lineHeight="1.2" style="font-family:Arial,sans-serif;font-size:12px;font-weight:400;fill:#000"><tspan x="11.977" y="43.6">Approve order</tspan></text><path d="m 15,12 c 0.909,-0.845 1.594,-2.049 1.594,-3.385 0,-2.554 -1.805,-4.62199999 -4.357,-4.62199999 -2.55199998,0 -4.28799998,2.06799999 -4.28799998,4.62199999 0,1.348 0.974,2.562 1.89599998,3.405 -0.52899998,0.187 -5.669,2.097 -5.794,4.7560005 v 6.718 h 17 v -6.718 c 0,-2.2980005 -5.5279996,-4.5950005 -6.0509996,-4.7760005 zm -8,6 l 0,5.5 m 11,0 l 0,-5" style="fill:#fff;stroke-width:.5px;stroke:#000"/><path d="m 15,12 m 2.162,1.009 c 0,2.4470005 -2.158,4.4310005 -4.821,4.4310005 -2.66499998,0 -4.822,-1.981 -4.822,-4.4310005" style="fill:#fff;stroke-width:.5px;stroke:#000"/><path d="m 15,12 m -6.9,-3.80 c 0,0 2.25099998,-2.358 4.27399998,-1.177 2.024,1.181 4.221,1.537 4.124,0.965 -0.098,-0.57 -0.117,-3.79099999 -4.191,-4.13599999 -3.57499998,0.001 -4.20799998,3.36699999 -4.20699998,4.34799999 z" style="fill:#000;stroke-width:.5px;stroke:#000"/></g><rect width="100" height="80" x="0" y="0" class="djs-hit djs-hit-all" style="fill:none;stroke-opacity:0;stroke:#fff;stroke-width:15px"/><rect width="112" height="92" x="-6" y="-6" class="djs-outline" style="fill:none"/></g></g><g class="djs-group"><g class="djs-element djs-shape" data-element-id="Task_0kwuktg" transform="matrix(1 0 0 1 310 147)" style="display:block"><g class="djs-visual"><rect width="100" height="80" x="0" y="0" rx="10" ry="10" style="stroke:#000;stroke-width:2px;fill:#fff;fill-opacity:.95"/><text class="djs-label" lineHeight="1.2" style="font-family:Arial,sans-serif;font-size:12px;font-weight:400;fill:#000"><tspan x="24.82" y="36.4">Generate </tspan><tspan x="31.156" y="50.8">invoice</tspan></text><path d="m 12,18 v -1.71335 c 0.352326,-0.0705 0.703932,-0.17838 1.047628,-0.32133 0.344416,-0.14465 0.665822,-0.32133 0.966377,-0.52145 l 1.19431,1.18005 1.567487,-1.57688 -1.195028,-1.18014 c 0.403376,-0.61394 0.683079,-1.29908 0.825447,-2.01824 l 1.622133,-0.01 v -2.2196 l -1.636514,0.01 c -0.07333,-0.35153 -0.178319,-0.70024 -0.323564,-1.04372 -0.145244,-0.34406 -0.321407,-0.6644 -0.522735,-0.96217 l 1.131035,-1.13631 -1.583305,-1.56293 -1.129598,1.13589 c -0.614052,-0.40108 -1.302883,-0.68093 -2.022633,-0.82247 l 0.0093,-1.61852 h -2.241173 l 0.0042,1.63124 c -0.353763,0.0736 -0.705369,0.17977 -1.049785,0.32371 -0.344415,0.14437 -0.665102,0.32092 -0.9635006,0.52046 l -1.1698628,-1.15823 -1.5667691,1.5792 1.1684265,1.15669 c -0.4026573,0.61283 -0.68308,1.29797 -0.8247287,2.01713 l -1.6588041,0.003 v 2.22174 l 1.6724648,-0.006 c 0.073327,0.35077 0.1797598,0.70243 0.3242851,1.04472 0.1452428,0.34448 0.3214064,0.6644 0.5227339,0.96066 l -1.1993431,1.19723 1.5840256,1.56011 1.1964668,-1.19348 c 0.6140517,0.40346 1.3028827,0.68232 2.0233517,0.82331 l 7.19e-4,1.69892 h 2.226848 z m 0.221462,-3.9957 c -1.788948,0.7502 -3.8576,-0.0928 -4.6097055,-1.87438 -0.7521065,-1.78321 0.090598,-3.84627 1.8802645,-4.59604 1.78823,-0.74936 3.856881,0.0929 4.608987,1.87437 0.752106,1.78165 -0.0906,3.84612 -1.879546,4.59605 z" style="fill:#fff;stroke-width:1px;stroke:#000"/><path d="m 17.2,18 c -1.788948,0.7502 -3.8576,-0.0928 -4.6097055,-1.87438 -0.7521065,-1.78321 0.090598,-3.84627 1.8802645,-4.59604 1.78823,-0.74936 3.856881,0.0929 4.608987,1.87437 0.752106,1.78165 -0.0906,3.84612 -1.879546,4.59605 z" style="fill:#fff;stroke-width:0;stroke:#000"/><path d="m 17,22 v -1.71335 c 0.352326,-0.0705 0.703932,-0.17838 1.047628,-0.32133 0.344416,-0.14465 0.665822,-0.32133 0.966377,-0.52145 l 1.19431,1.18005 1.567487,-1.57688 -1.195028,-1.18014 c 0.403376,-0.61394 0.683079,-1.29908 0.825447,-2.01824 l 1.622133,-0.01 v -2.2196 l -1.636514,0.01 c -0.07333,-0.35153 -0.178319,-0.70024 -0.323564,-1.04372 -0.145244,-0.34406 -0.321407,-0.6644 -0.522735,-0.96217 l 1.131035,-1.13631 -1.583305,-1.56293 -1.129598,1.13589 c -0.614052,-0.40108 -1.302883,-0.68093 -2.022633,-0.82247 l 0.0093,-1.61852 h -2.241173 l 0.0042,1.63124 c -0.353763,0.0736 -0.705369,0.17977 -1.049785,0.32371 -0.344415,0.14437 -0.665102,0.32092 -0.9635006,0.52046 l -1.1698628,-1.15823 -1.5667691,1.5792 1.1684265,1.15669 c -0.4026573,0.61283 -0.68308,1.29797 -0.8247287,2.01713 l -1.6588041,0.003 v 2.22174 l 1.6724648,-0.006 c 0.073327,0.35077 0.1797598,0.70243 0.3242851,1.04472 0.1452428,0.34448 0.3214064,0.6644 0.5227339,0.96066 l -1.1993431,1.19723 1.5840256,1.56011 1.1964668,-1.19348 c 0.6140517,0.40346 1.3028827,0.68232 2.0233517,0.82331 l 7.19e-4,1.69892 h 2.226848 z m 0.221462,-3.9957 c -1.788948,0.7502 -3.8576,-0.0928 -4.6097055,-1.87438 -0.7521065,-1.78321 0.090598,-3.84627 1.8802645,-4.59604 1.78823,-0.74936 3.856881,0.0929 4.608987,1.87437 0.752106,1.78165 -0.0906,3.84612 -1.879546,4.59605 z" style="fill:#fff;stroke-width:1px;stroke:#000"/></g><rect width="100" height="80" x="0" y="0" class="djs-hit djs-hit-all" style="fill:none;stroke-opacity:0;stroke:#fff;stroke-width:15px"/><rect width="112" height="92" x="-6" y="-6" class="djs-outline" style="fill:none"/></g></g><g class="djs-group"><g class="djs-element djs-connection" data-element-id="Association_1jo45cy" style="display:block"><g class="djs-visual"><polyline points="182 174 231 119" style="fill:none;stroke:#000;stroke-width:2px;stroke-dasharray:.5,5;stroke-linecap:round;stroke-linejoin:round"/></g><polyline points="182 174 231 119" class="djs-hit djs-hit-stroke" style="fill:none;stroke-opacity:0;stroke:#fff;stroke-width:15px"/><rect width="61" height="67" x="176" y="113" class="djs-outline" style="fill:none"/></g></g></svg>